G04 MADE WITH FRITZING*
G04 WWW.FRITZING.ORG*
G04 DOUBLE SIDED*
G04 HOLES PLATED*
G04 CONTOUR ON CENTER OF CONTOUR VECTOR*
%ASAXBY*%
%FSLAX23Y23*%
%MOIN*%
%OFA0B0*%
%SFA1.0B1.0*%
%ADD10C,0.085000*%
%ADD11C,0.088000*%
%ADD12C,0.090000*%
%ADD13C,0.049370*%
%ADD14C,0.085833*%
%ADD15R,0.085000X0.085000*%
%ADD16R,0.090000X0.090000*%
%LNMASK1*%
G90*
G70*
G54D10*
X1394Y1810D03*
X1694Y1810D03*
X1394Y1710D03*
X1694Y1710D03*
X1394Y1610D03*
X1694Y1610D03*
X1394Y1510D03*
X1694Y1510D03*
X1394Y1410D03*
X1694Y1410D03*
X1394Y1310D03*
X1694Y1310D03*
X1394Y1210D03*
X1694Y1210D03*
X1394Y1110D03*
X1694Y1110D03*
G54D11*
X1194Y2310D03*
X1194Y2410D03*
X1194Y2510D03*
X1894Y2310D03*
X1894Y2410D03*
X1894Y2510D03*
X294Y2310D03*
X294Y2410D03*
X294Y2510D03*
X994Y2310D03*
X994Y2410D03*
X994Y2510D03*
X294Y1610D03*
X294Y1710D03*
X294Y1810D03*
X994Y1610D03*
X994Y1710D03*
X994Y1810D03*
X294Y910D03*
X294Y1010D03*
X294Y1110D03*
X994Y910D03*
X994Y1010D03*
X994Y1110D03*
G54D12*
X1694Y410D03*
X1497Y410D03*
X1294Y410D03*
X1097Y410D03*
X894Y410D03*
X697Y410D03*
X494Y410D03*
X297Y410D03*
G54D13*
X1594Y1910D03*
X1594Y2110D03*
X1094Y1910D03*
G54D14*
X1994Y1987D03*
X1994Y1887D03*
X1994Y1780D03*
X1994Y1680D03*
X1994Y1580D03*
X1994Y1480D03*
X1994Y1380D03*
X1994Y1280D03*
X1994Y1180D03*
X1994Y1080D03*
X1994Y910D03*
X1994Y810D03*
X1994Y710D03*
X1994Y610D03*
X1994Y510D03*
X1994Y410D03*
X1994Y310D03*
X1994Y210D03*
X94Y1610D03*
X94Y1510D03*
X94Y1410D03*
X94Y1310D03*
X94Y1210D03*
X94Y1110D03*
X94Y1010D03*
X94Y910D03*
X94Y710D03*
X94Y610D03*
X94Y510D03*
X94Y410D03*
X94Y310D03*
X94Y210D03*
G54D15*
X1394Y1810D03*
G54D16*
X1694Y410D03*
X1294Y410D03*
X894Y410D03*
X494Y410D03*
G04 End of Mask1*
M02*