G04 MADE WITH FRITZING*
G04 WWW.FRITZING.ORG*
G04 DOUBLE SIDED*
G04 HOLES PLATED*
G04 CONTOUR ON CENTER OF CONTOUR VECTOR*
%ASAXBY*%
%FSLAX23Y23*%
%MOIN*%
%OFA0B0*%
%SFA1.0B1.0*%
%ADD10C,0.075000*%
%ADD11C,0.078000*%
%ADD12C,0.080000*%
%ADD13C,0.039370*%
%ADD14C,0.075833*%
%ADD15R,0.075000X0.075000*%
%ADD16R,0.080000X0.080000*%
%ADD17C,0.024000*%
%LNCOPPER1*%
G90*
G70*
G54D10*
X1394Y1810D03*
X1694Y1810D03*
X1394Y1710D03*
X1694Y1710D03*
X1394Y1610D03*
X1694Y1610D03*
X1394Y1510D03*
X1694Y1510D03*
X1394Y1410D03*
X1694Y1410D03*
X1394Y1310D03*
X1694Y1310D03*
X1394Y1210D03*
X1694Y1210D03*
X1394Y1110D03*
X1694Y1110D03*
G54D11*
X1194Y2310D03*
X1194Y2410D03*
X1194Y2510D03*
X1894Y2310D03*
X1894Y2410D03*
X1894Y2510D03*
X294Y2310D03*
X294Y2410D03*
X294Y2510D03*
X994Y2310D03*
X994Y2410D03*
X994Y2510D03*
X294Y1610D03*
X294Y1710D03*
X294Y1810D03*
X994Y1610D03*
X994Y1710D03*
X994Y1810D03*
X294Y910D03*
X294Y1010D03*
X294Y1110D03*
X994Y910D03*
X994Y1010D03*
X994Y1110D03*
G54D12*
X1694Y410D03*
X1497Y410D03*
X1294Y410D03*
X1097Y410D03*
X894Y410D03*
X697Y410D03*
X494Y410D03*
X297Y410D03*
G54D13*
X1594Y1910D03*
X1594Y2110D03*
X1094Y1910D03*
G54D14*
X1994Y1987D03*
X1994Y1887D03*
X1994Y1780D03*
X1994Y1680D03*
X1994Y1580D03*
X1994Y1480D03*
X1994Y1380D03*
X1994Y1280D03*
X1994Y1180D03*
X1994Y1080D03*
X1994Y910D03*
X1994Y810D03*
X1994Y710D03*
X1994Y610D03*
X1994Y510D03*
X1994Y410D03*
X1994Y310D03*
X1994Y210D03*
X94Y1610D03*
X94Y1510D03*
X94Y1410D03*
X94Y1310D03*
X94Y1210D03*
X94Y1110D03*
X94Y1010D03*
X94Y910D03*
X94Y710D03*
X94Y610D03*
X94Y510D03*
X94Y410D03*
X94Y310D03*
X94Y210D03*
G54D15*
X1394Y1810D03*
G54D16*
X1694Y410D03*
X1294Y410D03*
X894Y410D03*
X494Y410D03*
G54D17*
X1394Y1181D02*
X1394Y1139D01*
D02*
X1394Y1281D02*
X1394Y1239D01*
D02*
X894Y2510D02*
X794Y2410D01*
D02*
X964Y2510D02*
X894Y2510D01*
D02*
X794Y2010D02*
X973Y1831D01*
D02*
X794Y2410D02*
X794Y2010D01*
D02*
X894Y1710D02*
X973Y1789D01*
D02*
X894Y1210D02*
X894Y1710D01*
D02*
X973Y1131D02*
X894Y1210D01*
D02*
X1594Y1610D02*
X1494Y1710D01*
D02*
X1494Y1710D02*
X1494Y1910D01*
D02*
X1665Y1610D02*
X1594Y1610D01*
D02*
X1294Y1910D02*
X1015Y1631D01*
D02*
X1494Y1910D02*
X1294Y1910D01*
D02*
X1494Y1110D02*
X1494Y1510D01*
D02*
X1494Y1510D02*
X1414Y1590D01*
D02*
X1694Y910D02*
X1494Y1110D01*
D02*
X1794Y910D02*
X1694Y910D01*
D02*
X1973Y1062D02*
X1794Y910D01*
D02*
X1694Y1010D02*
X1594Y1110D01*
D02*
X1594Y1410D02*
X1674Y1490D01*
D02*
X1594Y1110D02*
X1594Y1410D01*
D02*
X1794Y1010D02*
X1694Y1010D01*
D02*
X1973Y1162D02*
X1794Y1010D01*
D02*
X1094Y1610D02*
X1094Y1110D01*
D02*
X1094Y1110D02*
X1015Y1031D01*
D02*
X1294Y1810D02*
X1094Y1610D01*
D02*
X1365Y1810D02*
X1294Y1810D01*
D02*
X1394Y2110D02*
X1094Y2110D01*
D02*
X1581Y1924D02*
X1394Y2110D01*
D02*
X994Y2210D02*
X994Y2280D01*
D02*
X1094Y2110D02*
X994Y2210D01*
D02*
X1594Y2110D02*
X1873Y2389D01*
D02*
X1394Y1010D02*
X1194Y810D01*
D02*
X194Y810D02*
X194Y910D01*
D02*
X194Y910D02*
X114Y990D01*
D02*
X1194Y810D02*
X194Y810D01*
D02*
X1394Y1081D02*
X1394Y1010D01*
D02*
X1081Y1924D02*
X894Y2110D01*
D02*
X894Y2110D02*
X894Y2310D01*
D02*
X894Y2310D02*
X973Y2389D01*
D02*
X194Y1410D02*
X114Y1330D01*
D02*
X194Y1710D02*
X194Y1410D01*
D02*
X273Y1789D02*
X194Y1710D01*
G04 End of Copper1*
M02*