M48
INCH
T10C0.034167
T11C0.038000
T12C0.040000
T13C0.015748
%
T10
X025085Y000973
X024086Y000973
X023086Y000973
X022085Y000973
X021085Y000973
X020085Y000973
X018086Y000973
X017085Y000973
X016085Y000973
X015085Y000973
X014086Y000973
X013086Y000973
X012085Y000973
X011085Y000973
X025085Y019973
X024086Y019973
X023086Y019973
X022085Y019973
X021085Y019973
X020085Y019973
X019086Y019973
X018086Y019973
X016385Y019973
X015385Y019973
X014385Y019973
X013386Y019973
X012386Y019973
X011385Y019973
X010385Y019973
X009385Y019973
X008315Y019973
X007315Y019973
T11
X007085Y006973
X006085Y006973
X005085Y006973
X007085Y013973
X006085Y013973
X005085Y013973
X014085Y006973
X013085Y006973
X012085Y006973
X014085Y013973
X013085Y013973
X012085Y013973
X021085Y006973
X020085Y006973
X019085Y006973
X021085Y013973
X020085Y013973
X019085Y013973
T12
X026085Y013351
X026085Y011973
X026085Y009351
X026085Y007973
X026085Y005351
X026085Y003973
T13
X018086Y012973
X005086Y008973
X024086Y006973
T00
M30
