<?xml version='1.0' encoding='UTF-8' standalone='no'?>
<!-- Created with Fritzing (http://www.fritzing.org/) -->
<svg xmlns="http://www.w3.org/2000/svg" width="2.1014in" x="0in" version="1.2" y="0in"  height="2.725in" viewBox="0 0 151.301 196.2" baseProfile="tiny" xmlns:svg="http://www.w3.org/2000/svg">
 <g partID="6393830">
  <g transform="translate(151.301,0)">
   <g transform="matrix(0,1,-1,0,0,0)">
    <g id="board">
     <path fill="none" stroke="black" fill-opacity="0.5" id="boardoutline" stroke-width="0.5" d="M186.956,36.4096L186.956,4.3672L183.389,0.8008L0.800042,0.8L0.801642,150.501L186.958,150.501L186.958,144.674L195.4,136.232L195.4,43.5456L186.956,36.4096z"/>
    </g>
   </g>
  </g>
 </g>
 <g partID="12130">
  <g transform="translate(146.054,51.1494)">
   <g transform="matrix(0,1,-1,0,0,0)">
    <g  id="copper0">
     <circle fill="none" cx="1.98"  cy="2.484" stroke="black" id="connector30pin" r="1.98" stroke-width="1.5"/>
     <circle fill="none" cx="9.18"  cy="2.484" stroke="black" id="connector31pin" r="1.98" stroke-width="1.5"/>
     <circle fill="none" cx="16.884"  cy="2.484" stroke="black" id="connector0pin" r="1.98" stroke-width="1.5"/>
     <circle fill="none" cx="24.084"  cy="2.484" stroke="black" id="connector1pin" r="1.98" stroke-width="1.5"/>
     <circle fill="none" cx="31.284"  cy="2.484" stroke="black" id="connector2pin" r="1.98" stroke-width="1.5"/>
     <circle fill="none" cx="38.485"  cy="2.484" stroke="black" id="connector3pin" r="1.98" stroke-width="1.5"/>
     <circle fill="none" cx="45.685"  cy="2.484" stroke="black" id="connector4pin" r="1.98" stroke-width="1.5"/>
     <circle fill="none" cx="52.884"  cy="2.484" stroke="black" id="connector5pin" r="1.98" stroke-width="1.5"/>
     <circle fill="none" cx="60.084"  cy="2.484" stroke="black" id="connector6pin" r="1.98" stroke-width="1.5"/>
     <circle fill="none" cx="67.284"  cy="2.484" stroke="black" id="connector7pin" r="1.98" stroke-width="1.5"/>
     <circle fill="none" cx="79.525"  cy="2.484" stroke="black" id="connector8pin" r="1.98" stroke-width="1.5"/>
     <circle fill="none" cx="86.725"  cy="2.484" stroke="black" id="connector9pin" r="1.98" stroke-width="1.5"/>
     <circle fill="none" cx="93.924"  cy="2.484" stroke="black" id="connector10pin" r="1.98" stroke-width="1.5"/>
     <circle fill="none" cx="101.124"  cy="2.484" stroke="black" id="connector11pin" r="1.98" stroke-width="1.5"/>
     <circle fill="none" cx="108.324"  cy="2.484" stroke="black" id="connector12pin" r="1.98" stroke-width="1.5"/>
     <circle fill="none" cx="115.525"  cy="2.484" stroke="black" id="connector13pin" r="1.98" stroke-width="1.5"/>
     <circle fill="none" cx="122.725"  cy="2.484" stroke="black" id="connector14pin" r="1.98" stroke-width="1.5"/>
     <circle fill="none" cx="129.924"  cy="2.484" stroke="black" id="connector15pin" r="1.98" stroke-width="1.5"/>
     <circle fill="none" cx="29.124"  cy="139.284" stroke="black" id="connector28pin" r="1.98" stroke-width="1.5"/>
     <circle fill="none" cx="36.324"  cy="139.284" stroke="black" id="connector29pin" r="1.98" stroke-width="1.5"/>
     <circle fill="none" cx="43.525"  cy="139.284" stroke="black" id="connector16pin" r="1.98" stroke-width="1.5"/>
     <circle fill="none" cx="50.725"  cy="139.284" stroke="black" id="connector17pin" r="1.98" stroke-width="1.5"/>
     <circle fill="none" cx="57.924"  cy="139.284" stroke="black" id="connector18pin" r="1.98" stroke-width="1.5"/>
     <circle fill="none" cx="65.124"  cy="139.284" stroke="black" id="connector19pin" r="1.98" stroke-width="1.5"/>
     <circle fill="none" cx="72.324"  cy="139.284" stroke="black" id="connector20pin" r="1.98" stroke-width="1.5"/>
     <circle fill="none" cx="79.525"  cy="139.284" stroke="black" id="connector21pin" r="1.98" stroke-width="1.5"/>
     <circle fill="none" cx="93.924"  cy="139.284" stroke="black" id="connector22pin" r="1.98" stroke-width="1.5"/>
     <circle fill="none" cx="101.124"  cy="139.284" stroke="black" id="connector23pin" r="1.98" stroke-width="1.5"/>
     <circle fill="none" cx="108.324"  cy="139.284" stroke="black" id="connector24pin" r="1.98" stroke-width="1.5"/>
     <circle fill="none" cx="115.525"  cy="139.284" stroke="black" id="connector25pin" r="1.98" stroke-width="1.5"/>
     <circle fill="none" cx="122.725"  cy="139.284" stroke="black" id="connector26pin" r="1.98" stroke-width="1.5"/>
     <circle fill="none" cx="129.924"  cy="139.284" stroke="black" id="connector27pin" r="1.98" stroke-width="1.5"/>
    </g>
   </g>
  </g>
 </g>
 <g partID="12580">
  <g transform="translate(96.0504,104.754)">
   <g  id="copper0">
    <rect width="3.96" x="2.34" y="2.34" fill="none"  height="3.96" stroke="black" id="square" stroke-width="1.44"/>
    <circle fill="none" cx="4.32"  cy="4.32" stroke="black" id="connector0pin" r="1.98" stroke-width="1.44"/>
    <circle fill="none" cx="25.92"  cy="4.32" stroke="black" id="connector15pin" r="1.98" stroke-width="1.44"/>
    <circle fill="none" cx="4.32"  cy="11.52" stroke="black" id="connector1pin" r="1.98" stroke-width="1.44"/>
    <circle fill="none" cx="25.92"  cy="11.52" stroke="black" id="connector14pin" r="1.98" stroke-width="1.44"/>
    <circle fill="none" cx="4.32"  cy="18.72" stroke="black" id="connector2pin" r="1.98" stroke-width="1.44"/>
    <circle fill="none" cx="25.92"  cy="18.72" stroke="black" id="connector13pin" r="1.98" stroke-width="1.44"/>
    <circle fill="none" cx="4.32"  cy="25.92" stroke="black" id="connector3pin" r="1.98" stroke-width="1.44"/>
    <circle fill="none" cx="25.92"  cy="25.92" stroke="black" id="connector12pin" r="1.98" stroke-width="1.44"/>
    <circle fill="none" cx="4.32"  cy="33.12" stroke="black" id="connector4pin" r="1.98" stroke-width="1.44"/>
    <circle fill="none" cx="25.92"  cy="33.12" stroke="black" id="connector11pin" r="1.98" stroke-width="1.44"/>
    <circle fill="none" cx="4.32"  cy="40.32" stroke="black" id="connector5pin" r="1.98" stroke-width="1.44"/>
    <circle fill="none" cx="25.92"  cy="40.32" stroke="black" id="connector10pin" r="1.98" stroke-width="1.44"/>
    <circle fill="none" cx="4.32"  cy="47.52" stroke="black" id="connector6pin" r="1.98" stroke-width="1.44"/>
    <circle fill="none" cx="25.92"  cy="47.52" stroke="black" id="connector9pin" r="1.98" stroke-width="1.44"/>
    <circle fill="none" cx="4.32"  cy="54.72" stroke="black" id="connector7pin" r="1.98" stroke-width="1.44"/>
    <circle fill="none" cx="25.92"  cy="54.72" stroke="black" id="connector8pin" r="1.98" stroke-width="1.44"/>
   </g>
  </g>
 </g>
 <g partID="14890">
  <g transform="translate(33.4104,34.9136)">
   <g transform="matrix(-1,0,0,-1,0,0)">
    <g  id="copper0">
     <circle fill="none" cx="5.04"  cy="5.04" stroke="black" id="connector0pin" r="2.088" stroke-width="1.44"/>
     <circle fill="none" cx="5.04"  cy="12.24" stroke="black" id="connector1pin" r="2.088" stroke-width="1.44"/>
     <circle fill="none" cx="5.04"  cy="19.44" stroke="black" id="connector2pin" r="2.088" stroke-width="1.44"/>
    </g>
   </g>
  </g>
 </g>
 <g partID="14880">
  <g transform="translate(83.8104,34.9136)">
   <g transform="matrix(-1,0,0,-1,0,0)">
    <g  id="copper0">
     <circle fill="none" cx="5.04"  cy="5.04" stroke="black" id="connector0pin" r="2.088" stroke-width="1.44"/>
     <circle fill="none" cx="5.04"  cy="12.24" stroke="black" id="connector1pin" r="2.088" stroke-width="1.44"/>
     <circle fill="none" cx="5.04"  cy="19.44" stroke="black" id="connector2pin" r="2.088" stroke-width="1.44"/>
    </g>
   </g>
  </g>
 </g>
 <g partID="14870">
  <g transform="translate(33.4104,78.1136)">
   <g transform="matrix(-1,0,0,-1,0,0)">
    <g  id="copper0">
     <circle fill="none" cx="5.04"  cy="5.04" stroke="black" id="connector0pin" r="2.088" stroke-width="1.44"/>
     <circle fill="none" cx="5.04"  cy="12.24" stroke="black" id="connector1pin" r="2.088" stroke-width="1.44"/>
     <circle fill="none" cx="5.04"  cy="19.44" stroke="black" id="connector2pin" r="2.088" stroke-width="1.44"/>
    </g>
   </g>
  </g>
 </g>
 <g partID="14860">
  <g transform="translate(83.8104,78.1136)">
   <g transform="matrix(-1,0,0,-1,0,0)">
    <g  id="copper0">
     <circle fill="none" cx="5.04"  cy="5.04" stroke="black" id="connector0pin" r="2.088" stroke-width="1.44"/>
     <circle fill="none" cx="5.04"  cy="12.24" stroke="black" id="connector1pin" r="2.088" stroke-width="1.44"/>
     <circle fill="none" cx="5.04"  cy="19.44" stroke="black" id="connector2pin" r="2.088" stroke-width="1.44"/>
    </g>
   </g>
  </g>
 </g>
 <g partID="14830">
  <g transform="translate(33.4104,121.314)">
   <g transform="matrix(-1,0,0,-1,0,0)">
    <g  id="copper0">
     <circle fill="none" cx="5.04"  cy="5.04" stroke="black" id="connector0pin" r="2.088" stroke-width="1.44"/>
     <circle fill="none" cx="5.04"  cy="12.24" stroke="black" id="connector1pin" r="2.088" stroke-width="1.44"/>
     <circle fill="none" cx="5.04"  cy="19.44" stroke="black" id="connector2pin" r="2.088" stroke-width="1.44"/>
    </g>
   </g>
  </g>
 </g>
 <g partID="14820">
  <g transform="translate(83.8104,121.314)">
   <g transform="matrix(-1,0,0,-1,0,0)">
    <g  id="copper0">
     <circle fill="none" cx="5.04"  cy="5.04" stroke="black" id="connector0pin" r="2.088" stroke-width="1.44"/>
     <circle fill="none" cx="5.04"  cy="12.24" stroke="black" id="connector1pin" r="2.088" stroke-width="1.44"/>
     <circle fill="none" cx="5.04"  cy="19.44" stroke="black" id="connector2pin" r="2.088" stroke-width="1.44"/>
    </g>
   </g>
  </g>
 </g>
 <g partID="14800">
  <g transform="translate(33.4104,164.514)">
   <g transform="matrix(-1,0,0,-1,0,0)">
    <g  id="copper0">
     <circle fill="none" cx="5.04"  cy="5.04" stroke="black" id="connector0pin" r="2.088" stroke-width="1.44"/>
     <circle fill="none" cx="5.04"  cy="12.24" stroke="black" id="connector1pin" r="2.088" stroke-width="1.44"/>
     <circle fill="none" cx="5.04"  cy="19.44" stroke="black" id="connector2pin" r="2.088" stroke-width="1.44"/>
    </g>
   </g>
  </g>
 </g>
 <g partID="14450">
  <g transform="translate(83.8104,164.514)">
   <g transform="matrix(-1,0,0,-1,0,0)">
    <g  id="copper0">
     <circle fill="none" cx="5.04"  cy="5.04" stroke="black" id="connector0pin" r="2.088" stroke-width="1.44"/>
     <circle fill="none" cx="5.04"  cy="12.24" stroke="black" id="connector1pin" r="2.088" stroke-width="1.44"/>
     <circle fill="none" cx="5.04"  cy="19.44" stroke="black" id="connector2pin" r="2.088" stroke-width="1.44"/>
    </g>
   </g>
  </g>
 </g>
 <g partID="15340">
  <g transform="translate(108.331,176.231)">
   <g transform="matrix(0,1,-1,0,0,0)">
    <g id="copper0">
     <rect width="4.32" x="5.616" y="4.60063" fill="none" height="4.32" stroke="black" id="square" stroke-width="1.44"/>
     <circle fill="none" cx="7.776" cy="6.76063" stroke="black" id="connector0pin" r="2.16" stroke-width="1.44"/>
     <circle fill="none" cx="7.776" cy="16.6819" stroke="black" id="connector1pin" r="2.16" stroke-width="1.44"/>
    </g>
   </g>
  </g>
 </g>
 <g partID="15240">
  <g transform="translate(84.5977,176.231)">
   <g transform="matrix(0,1,-1,0,0,0)">
    <g id="copper0">
     <rect width="4.32" x="5.616" y="4.60063" fill="none" height="4.32" stroke="black" id="square" stroke-width="1.44"/>
     <circle fill="none" cx="7.776" cy="6.76063" stroke="black" id="connector0pin" r="2.16" stroke-width="1.44"/>
     <circle fill="none" cx="7.776" cy="16.6819" stroke="black" id="connector1pin" r="2.16" stroke-width="1.44"/>
    </g>
   </g>
  </g>
 </g>
 <g partID="15140">
  <g transform="translate(60.9533,176.276)">
   <g transform="matrix(0,1,-1,0,0,0)">
    <g id="copper0">
     <rect width="4.32" x="5.616" y="4.60063" fill="none" height="4.32" stroke="black" id="square" stroke-width="1.44"/>
     <circle fill="none" cx="7.776" cy="6.76063" stroke="black" id="connector0pin" r="2.16" stroke-width="1.44"/>
     <circle fill="none" cx="7.776" cy="16.6819" stroke="black" id="connector1pin" r="2.16" stroke-width="1.44"/>
    </g>
   </g>
  </g>
 </g>
 <g partID="15030">
  <g transform="translate(37.2645,176.231)">
   <g transform="matrix(0,1,-1,0,0,0)">
    <g id="copper0">
     <rect width="4.32" x="5.616" y="4.60063" fill="none" height="4.32" stroke="black" id="square" stroke-width="1.44"/>
     <circle fill="none" cx="7.776" cy="6.76063" stroke="black" id="connector0pin" r="2.16" stroke-width="1.44"/>
     <circle fill="none" cx="7.776" cy="16.6819" stroke="black" id="connector1pin" r="2.16" stroke-width="1.44"/>
    </g>
   </g>
  </g>
 </g>
 <g partID="6449840">
  <g transform="translate(104.553,77.256)">
   <g  id="copper0">
    <circle fill="none" cx="3.01733"  cy="3.01733" stroke="black" r="0.992124" id="connector0pin" stroke-width="0.850392"/>
   </g>
  </g>
 </g>
 <g partID="6450520">
  <g transform="translate(90.153,134.856)">
   <g  id="copper0">
    <circle fill="none" cx="3.01733"  cy="3.01733" stroke="black" r="0.992124" id="connector0pin" stroke-width="0.850392"/>
   </g>
  </g>
 </g>
 <g partID="6421850">
  <line stroke="black" stroke-linecap="round" y1="157.414" x1="100.37" y2="154.334" stroke-width="1.728" x2="100.37"/>
 </g>
 <g partID="6421900">
  <line stroke="black" stroke-linecap="round" y1="150.214" x1="100.37" y2="147.134" stroke-width="1.728" x2="100.37"/>
 </g>
 <g partID="6448610">
  <line stroke="black" stroke-linecap="round" y1="145.074" x1="57.1704" y2="145.074" stroke-width="1.728" x2="76.6024"/>
 </g>
 <g partID="6448530">
  <line stroke="black" stroke-linecap="round" y1="101.874" x1="57.1704" y2="145.074" stroke-width="1.728" x2="57.1704"/>
 </g>
 <g partID="6448540">
  <line stroke="black" stroke-linecap="round" y1="101.874" x1="76.6024" y2="101.874" stroke-width="1.728" x2="57.1704"/>
 </g>
 <g partID="6448780">
  <line stroke="black" stroke-linecap="round" y1="101.874" x1="57.1704" y2="58.6736" stroke-width="1.728" x2="57.1704"/>
 </g>
 <g partID="6448730">
  <line stroke="black" stroke-linecap="round" y1="58.6736" x1="57.1704" y2="58.6736" stroke-width="1.728" x2="76.6024"/>
 </g>
 <g partID="6448680">
  <line stroke="black" stroke-linecap="round" y1="101.874" x1="76.6024" y2="101.874" stroke-width="1.728" x2="57.1704"/>
 </g>
 <g partID="6449120">
  <line stroke="black" stroke-linecap="round" y1="65.8736" x1="136.37" y2="37.0736" stroke-width="1.728" x2="85.9704"/>
 </g>
 <g partID="6449090">
  <line stroke="black" stroke-linecap="round" y1="75.2336" x1="136.37" y2="65.8736" stroke-width="1.728" x2="136.37"/>
 </g>
 <g partID="6449000">
  <line stroke="black" stroke-linecap="round" y1="37.0736" x1="85.9704" y2="22.6736" stroke-width="1.728" x2="85.9704"/>
 </g>
 <g partID="6448970">
  <line stroke="black" stroke-linecap="round" y1="22.6736" x1="85.9704" y2="17.0066" stroke-width="1.728" x2="80.3034"/>
 </g>
 <g partID="6448940">
  <line stroke="black" stroke-linecap="round" y1="75.2336" x1="141.54" y2="75.2336" stroke-width="1.728" x2="136.37"/>
 </g>
 <g partID="6449200">
  <line stroke="black" stroke-linecap="round" y1="29.8736" x1="71.5704" y2="24.2066" stroke-width="1.728" x2="77.2374"/>
 </g>
 <g partID="6449450">
  <line stroke="black" stroke-linecap="round" y1="123.474" x1="93.1704" y2="51.4736" stroke-width="1.728" x2="93.1704"/>
 </g>
 <g partID="6449270">
  <line stroke="black" stroke-linecap="round" y1="51.4736" x1="93.1704" y2="37.0736" stroke-width="1.728" x2="71.5704"/>
 </g>
 <g partID="6449240">
  <line stroke="black" stroke-linecap="round" y1="37.0736" x1="71.5704" y2="29.8736" stroke-width="1.728" x2="71.5704"/>
 </g>
 <g partID="6449210">
  <line stroke="black" stroke-linecap="round" y1="129.217" x1="98.9138" y2="123.474" stroke-width="1.728" x2="93.1704"/>
 </g>
 <g partID="6447310">
  <line stroke="black" stroke-linecap="round" y1="58.6736" x1="57.1704" y2="37.0736" stroke-width="1.728" x2="57.1704"/>
 </g>
 <g partID="6447200">
  <line stroke="black" stroke-linecap="round" y1="37.0736" x1="57.1704" y2="17.0066" stroke-width="1.728" x2="77.2374"/>
 </g>
 <g partID="6447090">
  <line stroke="black" stroke-linecap="round" y1="58.6736" x1="76.6024" y2="58.6736" stroke-width="1.728" x2="57.1704"/>
 </g>
 <g partID="6449320">
  <line stroke="black" stroke-linecap="round" y1="37.0736" x1="78.7704" y2="32.0416" stroke-width="1.728" x2="78.7704"/>
 </g>
 <g partID="6449420">
  <line stroke="black" stroke-linecap="round" y1="145.074" x1="114.77" y2="58.6736" stroke-width="1.728" x2="114.77"/>
 </g>
 <g partID="6449360">
  <line stroke="black" stroke-linecap="round" y1="58.6736" x1="114.77" y2="37.0736" stroke-width="1.728" x2="78.7704"/>
 </g>
 <g partID="6449330">
  <line stroke="black" stroke-linecap="round" y1="145.074" x1="119.91" y2="145.074" stroke-width="1.728" x2="114.77"/>
 </g>
 <g partID="6449570">
  <line stroke="black" stroke-linecap="round" y1="123.474" x1="85.9704" y2="116.274" stroke-width="1.728" x2="85.9704"/>
 </g>
 <g partID="6449510">
  <line stroke="black" stroke-linecap="round" y1="136.417" x1="98.9138" y2="123.474" stroke-width="1.728" x2="85.9704"/>
 </g>
 <g partID="6449540">
  <line stroke="black" stroke-linecap="round" y1="116.274" x1="85.9704" y2="110.607" stroke-width="1.728" x2="80.3034"/>
 </g>
 <g partID="6447760">
  <line stroke="black" stroke-linecap="round" y1="159.474" x1="141.54" y2="159.474" stroke-width="1.728" x2="124.03"/>
 </g>
 <g partID="6448310">
  <line stroke="black" stroke-linecap="round" y1="145.074" x1="98.3104" y2="145.074" stroke-width="1.728" x2="80.9384"/>
 </g>
 <g partID="6447820">
  <line stroke="black" stroke-linecap="round" y1="130.674" x1="129.17" y2="130.674" stroke-width="1.728" x2="124.03"/>
 </g>
 <g partID="6447850">
  <line stroke="black" stroke-linecap="round" y1="111.234" x1="136.37" y2="130.674" stroke-width="1.728" x2="129.17"/>
 </g>
 <g partID="6447790">
  <line stroke="black" stroke-linecap="round" y1="111.234" x1="141.54" y2="111.234" stroke-width="1.728" x2="136.37"/>
 </g>
 <g partID="6449750">
  <line stroke="black" stroke-linecap="round" y1="81.6405" x1="107.57" y2="123.474" stroke-width="1.728" x2="107.57"/>
 </g>
 <g partID="6449720">
  <line stroke="black" stroke-linecap="round" y1="123.474" x1="107.57" y2="123.474" stroke-width="1.728" x2="102.43"/>
 </g>
 <g partID="6449920">
  <line stroke="black" stroke-linecap="round" y1="145.074" x1="42.7704" y2="123.474" stroke-width="1.728" x2="21.1704"/>
 </g>
 <g partID="6449890">
  <line stroke="black" stroke-linecap="round" y1="123.474" x1="21.1704" y2="123.474" stroke-width="1.728" x2="8.8004"/>
 </g>
 <g partID="6449860">
  <line stroke="black" stroke-linecap="round" y1="145.074" x1="57.1704" y2="145.074" stroke-width="1.728" x2="42.7704"/>
 </g>
 <g partID="6450490">
  <line stroke="black" stroke-linecap="round" y1="136.907" x1="92.2038" y2="123.474" stroke-width="1.728" x2="78.7704"/>
 </g>
 <g partID="6450460">
  <line stroke="black" stroke-linecap="round" y1="123.474" x1="78.7704" y2="118.442" stroke-width="1.728" x2="78.7704"/>
 </g>
</svg>
