G04 MADE WITH FRITZING*
G04 WWW.FRITZING.ORG*
G04 DOUBLE SIDED*
G04 HOLES PLATED*
G04 CONTOUR ON CENTER OF CONTOUR VECTOR*
%ASAXBY*%
%FSLAX23Y23*%
%MOIN*%
%OFA0B0*%
%SFA1.0B1.0*%
%ADD10C,0.075000*%
%ADD11C,0.075833*%
%ADD12C,0.078000*%
%ADD13C,0.080000*%
%ADD14C,0.039370*%
%ADD15R,0.080000X0.080000*%
%ADD16C,0.024000*%
%ADD17R,0.001000X0.001000*%
%LNCOPPER1*%
G90*
G70*
G54D10*
X134Y1967D03*
X332Y1802D03*
X2424Y1847D03*
X811Y1579D03*
X1511Y1579D03*
X2520Y1072D03*
X2230Y689D03*
X929Y886D03*
X1626Y685D03*
X2012Y298D03*
G54D11*
X732Y1997D03*
X832Y1997D03*
X939Y1997D03*
X1039Y1997D03*
X1139Y1997D03*
X1239Y1997D03*
X1339Y1997D03*
X1439Y1997D03*
X1539Y1997D03*
X1639Y1997D03*
X1809Y1997D03*
X1909Y1997D03*
X2009Y1997D03*
X2109Y1997D03*
X2209Y1997D03*
X2309Y1997D03*
X2409Y1997D03*
X2509Y1997D03*
X1109Y97D03*
X1209Y97D03*
X1309Y97D03*
X1409Y97D03*
X1509Y97D03*
X1609Y97D03*
X1709Y97D03*
X1809Y97D03*
X2009Y97D03*
X2109Y97D03*
X2209Y97D03*
X2309Y97D03*
X2409Y97D03*
X2509Y97D03*
G54D12*
X1909Y1397D03*
X2009Y1397D03*
X2109Y1397D03*
X1909Y697D03*
X2009Y697D03*
X2109Y697D03*
G54D13*
X2609Y397D03*
X2609Y535D03*
G54D12*
X1209Y1397D03*
X1309Y1397D03*
X1409Y1397D03*
X1209Y697D03*
X1309Y697D03*
X1409Y697D03*
G54D13*
X2609Y797D03*
X2609Y935D03*
G54D12*
X509Y1397D03*
X609Y1397D03*
X709Y1397D03*
X509Y697D03*
X609Y697D03*
X709Y697D03*
G54D13*
X2609Y1197D03*
X2609Y1335D03*
G54D14*
X2409Y697D03*
X509Y897D03*
X1809Y1297D03*
G54D15*
X2609Y397D03*
X2609Y797D03*
X2609Y1197D03*
G54D16*
X2209Y1497D02*
X2109Y1497D01*
D02*
X2109Y1497D02*
X2109Y1427D01*
D02*
X2209Y1969D02*
X2209Y1497D01*
D02*
X2109Y535D02*
X2109Y667D01*
D02*
X2577Y535D02*
X2109Y535D01*
D02*
X1409Y297D02*
X1209Y297D01*
D02*
X1409Y126D02*
X1409Y297D01*
D02*
X1409Y1697D02*
X1409Y1427D01*
D02*
X2009Y1697D02*
X1409Y1697D01*
D02*
X2009Y1969D02*
X2009Y1697D01*
D02*
X509Y297D02*
X509Y667D01*
D02*
X1209Y297D02*
X509Y297D01*
D02*
X1409Y297D02*
X1909Y297D01*
D02*
X1909Y297D02*
X1909Y667D01*
D02*
X1409Y126D02*
X1409Y297D01*
D02*
X1209Y297D02*
X1209Y667D01*
D02*
X709Y1697D02*
X709Y1427D01*
D02*
X1109Y1697D02*
X709Y1697D01*
D02*
X1109Y1897D02*
X1109Y1697D01*
D02*
X1809Y1897D02*
X1109Y1897D01*
D02*
X1809Y1969D02*
X1809Y1897D01*
D02*
X939Y1897D02*
X939Y1969D01*
D02*
X209Y1897D02*
X939Y1897D01*
D02*
X209Y697D02*
X209Y1897D01*
D02*
X478Y697D02*
X209Y697D01*
D02*
X2009Y397D02*
X2009Y667D01*
D02*
X2577Y397D02*
X2009Y397D01*
D02*
X1509Y797D02*
X2577Y797D01*
D02*
X1509Y597D02*
X1509Y797D01*
D02*
X1309Y597D02*
X1509Y597D01*
D02*
X1309Y667D02*
X1309Y597D01*
D02*
X1409Y727D02*
X1409Y935D01*
D02*
X1409Y935D02*
X2577Y935D01*
D02*
X2209Y1397D02*
X2309Y1397D01*
D02*
X2309Y1397D02*
X2309Y1969D01*
D02*
X2209Y1297D02*
X2209Y1397D01*
D02*
X2009Y1297D02*
X2209Y1297D01*
D02*
X2009Y1367D02*
X2009Y1297D01*
D02*
X1209Y1197D02*
X1209Y1367D01*
D02*
X1709Y1197D02*
X1209Y1197D01*
D02*
X1709Y1397D02*
X1709Y1197D01*
D02*
X1878Y1397D02*
X1709Y1397D01*
D02*
X1609Y1297D02*
X1309Y1297D01*
D02*
X1309Y1297D02*
X1309Y1367D01*
D02*
X1609Y1597D02*
X1609Y1297D01*
D02*
X2109Y1597D02*
X1609Y1597D01*
D02*
X2109Y1969D02*
X2109Y1597D01*
D02*
X1209Y1797D02*
X1209Y1597D01*
D02*
X1209Y1597D02*
X909Y1597D01*
D02*
X1909Y1797D02*
X1209Y1797D01*
D02*
X909Y1597D02*
X909Y1297D01*
D02*
X1909Y1969D02*
X1909Y1797D01*
D02*
X909Y1297D02*
X609Y1297D01*
D02*
X609Y1297D02*
X609Y1367D01*
D02*
X1039Y1797D02*
X309Y1797D01*
D02*
X309Y1797D02*
X309Y1597D01*
D02*
X1039Y1969D02*
X1039Y1797D01*
D02*
X309Y1197D02*
X509Y1197D01*
D02*
X509Y1197D02*
X509Y1397D01*
D02*
X309Y1397D02*
X309Y1197D01*
D02*
X309Y1597D02*
X309Y1397D01*
D02*
X1209Y1197D02*
X1209Y1367D01*
D02*
X509Y1197D02*
X1209Y1197D01*
D02*
X509Y1397D02*
X509Y1197D01*
D02*
X1209Y1367D02*
X1209Y1197D01*
D02*
X1209Y1197D02*
X309Y1197D01*
D02*
X509Y1197D02*
X509Y1367D01*
D02*
X309Y1197D02*
X509Y1197D01*
D02*
X309Y1397D02*
X309Y1197D01*
D02*
X309Y1197D02*
X309Y1397D01*
D02*
X2409Y1197D02*
X2577Y1197D01*
D02*
X2409Y997D02*
X2409Y1197D01*
D02*
X809Y997D02*
X2409Y997D01*
D02*
X809Y597D02*
X809Y997D01*
D02*
X609Y597D02*
X809Y597D01*
D02*
X609Y667D02*
X609Y597D01*
D02*
X2309Y1097D02*
X2309Y1335D01*
D02*
X2309Y1335D02*
X2577Y1335D01*
D02*
X1809Y1097D02*
X2309Y1097D01*
D02*
X709Y1097D02*
X1809Y1097D01*
D02*
X709Y727D02*
X709Y1097D01*
G36*
X52Y2049D02*
X52Y167D01*
X1324Y167D01*
X1324Y165D01*
X1332Y165D01*
X1332Y163D01*
X1336Y163D01*
X1336Y161D01*
X1340Y161D01*
X1340Y159D01*
X1344Y159D01*
X1344Y157D01*
X1364Y157D01*
X1364Y253D01*
X492Y253D01*
X492Y255D01*
X486Y255D01*
X486Y257D01*
X482Y257D01*
X482Y259D01*
X480Y259D01*
X480Y261D01*
X478Y261D01*
X478Y263D01*
X476Y263D01*
X476Y265D01*
X474Y265D01*
X474Y267D01*
X472Y267D01*
X472Y269D01*
X470Y269D01*
X470Y273D01*
X468Y273D01*
X468Y277D01*
X466Y277D01*
X466Y285D01*
X464Y285D01*
X464Y643D01*
X460Y643D01*
X460Y645D01*
X458Y645D01*
X458Y647D01*
X456Y647D01*
X456Y649D01*
X454Y649D01*
X454Y653D01*
X192Y653D01*
X192Y655D01*
X186Y655D01*
X186Y657D01*
X182Y657D01*
X182Y659D01*
X180Y659D01*
X180Y661D01*
X178Y661D01*
X178Y663D01*
X176Y663D01*
X176Y665D01*
X174Y665D01*
X174Y667D01*
X172Y667D01*
X172Y669D01*
X170Y669D01*
X170Y673D01*
X168Y673D01*
X168Y677D01*
X166Y677D01*
X166Y685D01*
X164Y685D01*
X164Y1909D01*
X166Y1909D01*
X166Y1917D01*
X168Y1917D01*
X168Y1921D01*
X170Y1921D01*
X170Y1925D01*
X172Y1925D01*
X172Y1927D01*
X174Y1927D01*
X174Y1929D01*
X176Y1929D01*
X176Y1931D01*
X178Y1931D01*
X178Y1933D01*
X180Y1933D01*
X180Y1935D01*
X184Y1935D01*
X184Y1937D01*
X188Y1937D01*
X188Y1939D01*
X194Y1939D01*
X194Y1941D01*
X672Y1941D01*
X672Y1961D01*
X670Y1961D01*
X670Y1965D01*
X668Y1965D01*
X668Y1969D01*
X666Y1969D01*
X666Y1973D01*
X664Y1973D01*
X664Y1979D01*
X662Y1979D01*
X662Y2015D01*
X664Y2015D01*
X664Y2021D01*
X666Y2021D01*
X666Y2025D01*
X668Y2025D01*
X668Y2029D01*
X670Y2029D01*
X670Y2049D01*
X52Y2049D01*
G37*
D02*
G36*
X52Y167D02*
X52Y51D01*
X1044Y51D01*
X1044Y71D01*
X1042Y71D01*
X1042Y75D01*
X1040Y75D01*
X1040Y85D01*
X1038Y85D01*
X1038Y109D01*
X1040Y109D01*
X1040Y119D01*
X1042Y119D01*
X1042Y123D01*
X1044Y123D01*
X1044Y127D01*
X1046Y127D01*
X1046Y131D01*
X1048Y131D01*
X1048Y135D01*
X1050Y135D01*
X1050Y137D01*
X1052Y137D01*
X1052Y141D01*
X1054Y141D01*
X1054Y143D01*
X1056Y143D01*
X1056Y145D01*
X1058Y145D01*
X1058Y147D01*
X1060Y147D01*
X1060Y149D01*
X1062Y149D01*
X1062Y151D01*
X1064Y151D01*
X1064Y153D01*
X1068Y153D01*
X1068Y155D01*
X1070Y155D01*
X1070Y157D01*
X1074Y157D01*
X1074Y159D01*
X1076Y159D01*
X1076Y161D01*
X1080Y161D01*
X1080Y163D01*
X1086Y163D01*
X1086Y165D01*
X1094Y165D01*
X1094Y167D01*
X52Y167D01*
G37*
D02*
G36*
X1124Y167D02*
X1124Y165D01*
X1132Y165D01*
X1132Y163D01*
X1136Y163D01*
X1136Y161D01*
X1140Y161D01*
X1140Y159D01*
X1144Y159D01*
X1144Y157D01*
X1146Y157D01*
X1146Y155D01*
X1170Y155D01*
X1170Y157D01*
X1174Y157D01*
X1174Y159D01*
X1176Y159D01*
X1176Y161D01*
X1180Y161D01*
X1180Y163D01*
X1186Y163D01*
X1186Y165D01*
X1194Y165D01*
X1194Y167D01*
X1124Y167D01*
G37*
D02*
G36*
X1224Y167D02*
X1224Y165D01*
X1232Y165D01*
X1232Y163D01*
X1236Y163D01*
X1236Y161D01*
X1240Y161D01*
X1240Y159D01*
X1244Y159D01*
X1244Y157D01*
X1246Y157D01*
X1246Y155D01*
X1270Y155D01*
X1270Y157D01*
X1274Y157D01*
X1274Y159D01*
X1276Y159D01*
X1276Y161D01*
X1280Y161D01*
X1280Y163D01*
X1286Y163D01*
X1286Y165D01*
X1294Y165D01*
X1294Y167D01*
X1224Y167D01*
G37*
D02*
G36*
X982Y1937D02*
X982Y1879D01*
X980Y1879D01*
X980Y1875D01*
X978Y1875D01*
X978Y1871D01*
X976Y1871D01*
X976Y1867D01*
X974Y1867D01*
X974Y1865D01*
X972Y1865D01*
X972Y1863D01*
X970Y1863D01*
X970Y1861D01*
X968Y1861D01*
X968Y1859D01*
X964Y1859D01*
X964Y1857D01*
X960Y1857D01*
X960Y1855D01*
X954Y1855D01*
X954Y1853D01*
X252Y1853D01*
X252Y1467D01*
X628Y1467D01*
X628Y1465D01*
X634Y1465D01*
X634Y1463D01*
X638Y1463D01*
X638Y1461D01*
X642Y1461D01*
X642Y1459D01*
X664Y1459D01*
X664Y1709D01*
X666Y1709D01*
X666Y1717D01*
X668Y1717D01*
X668Y1721D01*
X670Y1721D01*
X670Y1725D01*
X672Y1725D01*
X672Y1727D01*
X674Y1727D01*
X674Y1729D01*
X676Y1729D01*
X676Y1731D01*
X678Y1731D01*
X678Y1733D01*
X680Y1733D01*
X680Y1735D01*
X684Y1735D01*
X684Y1737D01*
X688Y1737D01*
X688Y1739D01*
X694Y1739D01*
X694Y1741D01*
X1064Y1741D01*
X1064Y1909D01*
X1066Y1909D01*
X1066Y1927D01*
X1022Y1927D01*
X1022Y1929D01*
X1016Y1929D01*
X1016Y1931D01*
X1010Y1931D01*
X1010Y1933D01*
X1006Y1933D01*
X1006Y1935D01*
X1004Y1935D01*
X1004Y1937D01*
X982Y1937D01*
G37*
D02*
G36*
X1252Y1753D02*
X1252Y1579D01*
X1250Y1579D01*
X1250Y1575D01*
X1248Y1575D01*
X1248Y1571D01*
X1246Y1571D01*
X1246Y1567D01*
X1244Y1567D01*
X1244Y1565D01*
X1242Y1565D01*
X1242Y1563D01*
X1240Y1563D01*
X1240Y1561D01*
X1238Y1561D01*
X1238Y1559D01*
X1234Y1559D01*
X1234Y1557D01*
X1230Y1557D01*
X1230Y1555D01*
X1224Y1555D01*
X1224Y1553D01*
X952Y1553D01*
X952Y1467D01*
X1328Y1467D01*
X1328Y1465D01*
X1334Y1465D01*
X1334Y1463D01*
X1338Y1463D01*
X1338Y1461D01*
X1342Y1461D01*
X1342Y1459D01*
X1364Y1459D01*
X1364Y1709D01*
X1366Y1709D01*
X1366Y1717D01*
X1368Y1717D01*
X1368Y1721D01*
X1370Y1721D01*
X1370Y1725D01*
X1372Y1725D01*
X1372Y1727D01*
X1374Y1727D01*
X1374Y1729D01*
X1376Y1729D01*
X1376Y1731D01*
X1378Y1731D01*
X1378Y1733D01*
X1380Y1733D01*
X1380Y1753D01*
X1252Y1753D01*
G37*
D02*
G36*
X1652Y1553D02*
X1652Y1467D01*
X2028Y1467D01*
X2028Y1465D01*
X2034Y1465D01*
X2034Y1463D01*
X2038Y1463D01*
X2038Y1461D01*
X2042Y1461D01*
X2042Y1459D01*
X2064Y1459D01*
X2064Y1509D01*
X2066Y1509D01*
X2066Y1517D01*
X2068Y1517D01*
X2068Y1521D01*
X2070Y1521D01*
X2070Y1525D01*
X2072Y1525D01*
X2072Y1527D01*
X2074Y1527D01*
X2074Y1529D01*
X2076Y1529D01*
X2076Y1531D01*
X2078Y1531D01*
X2078Y1533D01*
X2080Y1533D01*
X2080Y1553D01*
X1652Y1553D01*
G37*
D02*
G36*
X252Y1467D02*
X252Y1325D01*
X500Y1325D01*
X500Y1327D01*
X488Y1327D01*
X488Y1329D01*
X482Y1329D01*
X482Y1331D01*
X478Y1331D01*
X478Y1333D01*
X474Y1333D01*
X474Y1335D01*
X472Y1335D01*
X472Y1337D01*
X468Y1337D01*
X468Y1339D01*
X466Y1339D01*
X466Y1341D01*
X464Y1341D01*
X464Y1343D01*
X460Y1343D01*
X460Y1345D01*
X458Y1345D01*
X458Y1347D01*
X456Y1347D01*
X456Y1349D01*
X454Y1349D01*
X454Y1353D01*
X452Y1353D01*
X452Y1355D01*
X450Y1355D01*
X450Y1357D01*
X448Y1357D01*
X448Y1361D01*
X446Y1361D01*
X446Y1363D01*
X444Y1363D01*
X444Y1367D01*
X442Y1367D01*
X442Y1373D01*
X440Y1373D01*
X440Y1379D01*
X438Y1379D01*
X438Y1415D01*
X440Y1415D01*
X440Y1421D01*
X442Y1421D01*
X442Y1427D01*
X444Y1427D01*
X444Y1431D01*
X446Y1431D01*
X446Y1433D01*
X448Y1433D01*
X448Y1437D01*
X450Y1437D01*
X450Y1439D01*
X452Y1439D01*
X452Y1441D01*
X454Y1441D01*
X454Y1445D01*
X456Y1445D01*
X456Y1447D01*
X458Y1447D01*
X458Y1449D01*
X460Y1449D01*
X460Y1451D01*
X464Y1451D01*
X464Y1453D01*
X466Y1453D01*
X466Y1455D01*
X468Y1455D01*
X468Y1457D01*
X472Y1457D01*
X472Y1459D01*
X474Y1459D01*
X474Y1461D01*
X478Y1461D01*
X478Y1463D01*
X482Y1463D01*
X482Y1465D01*
X488Y1465D01*
X488Y1467D01*
X252Y1467D01*
G37*
D02*
G36*
X528Y1467D02*
X528Y1465D01*
X534Y1465D01*
X534Y1463D01*
X538Y1463D01*
X538Y1461D01*
X542Y1461D01*
X542Y1459D01*
X546Y1459D01*
X546Y1457D01*
X548Y1457D01*
X548Y1455D01*
X568Y1455D01*
X568Y1457D01*
X572Y1457D01*
X572Y1459D01*
X574Y1459D01*
X574Y1461D01*
X578Y1461D01*
X578Y1463D01*
X582Y1463D01*
X582Y1465D01*
X588Y1465D01*
X588Y1467D01*
X528Y1467D01*
G37*
D02*
G36*
X952Y1467D02*
X952Y1325D01*
X1200Y1325D01*
X1200Y1327D01*
X1188Y1327D01*
X1188Y1329D01*
X1182Y1329D01*
X1182Y1331D01*
X1178Y1331D01*
X1178Y1333D01*
X1174Y1333D01*
X1174Y1335D01*
X1172Y1335D01*
X1172Y1337D01*
X1168Y1337D01*
X1168Y1339D01*
X1166Y1339D01*
X1166Y1341D01*
X1164Y1341D01*
X1164Y1343D01*
X1160Y1343D01*
X1160Y1345D01*
X1158Y1345D01*
X1158Y1347D01*
X1156Y1347D01*
X1156Y1349D01*
X1154Y1349D01*
X1154Y1353D01*
X1152Y1353D01*
X1152Y1355D01*
X1150Y1355D01*
X1150Y1357D01*
X1148Y1357D01*
X1148Y1361D01*
X1146Y1361D01*
X1146Y1363D01*
X1144Y1363D01*
X1144Y1367D01*
X1142Y1367D01*
X1142Y1373D01*
X1140Y1373D01*
X1140Y1379D01*
X1138Y1379D01*
X1138Y1415D01*
X1140Y1415D01*
X1140Y1421D01*
X1142Y1421D01*
X1142Y1427D01*
X1144Y1427D01*
X1144Y1431D01*
X1146Y1431D01*
X1146Y1433D01*
X1148Y1433D01*
X1148Y1437D01*
X1150Y1437D01*
X1150Y1439D01*
X1152Y1439D01*
X1152Y1441D01*
X1154Y1441D01*
X1154Y1445D01*
X1156Y1445D01*
X1156Y1447D01*
X1158Y1447D01*
X1158Y1449D01*
X1160Y1449D01*
X1160Y1451D01*
X1164Y1451D01*
X1164Y1453D01*
X1166Y1453D01*
X1166Y1455D01*
X1168Y1455D01*
X1168Y1457D01*
X1172Y1457D01*
X1172Y1459D01*
X1174Y1459D01*
X1174Y1461D01*
X1178Y1461D01*
X1178Y1463D01*
X1182Y1463D01*
X1182Y1465D01*
X1188Y1465D01*
X1188Y1467D01*
X952Y1467D01*
G37*
D02*
G36*
X1228Y1467D02*
X1228Y1465D01*
X1234Y1465D01*
X1234Y1463D01*
X1238Y1463D01*
X1238Y1461D01*
X1242Y1461D01*
X1242Y1459D01*
X1246Y1459D01*
X1246Y1457D01*
X1248Y1457D01*
X1248Y1455D01*
X1268Y1455D01*
X1268Y1457D01*
X1272Y1457D01*
X1272Y1459D01*
X1274Y1459D01*
X1274Y1461D01*
X1278Y1461D01*
X1278Y1463D01*
X1282Y1463D01*
X1282Y1465D01*
X1288Y1465D01*
X1288Y1467D01*
X1228Y1467D01*
G37*
D02*
G36*
X1652Y1467D02*
X1652Y1325D01*
X1900Y1325D01*
X1900Y1327D01*
X1888Y1327D01*
X1888Y1329D01*
X1882Y1329D01*
X1882Y1331D01*
X1878Y1331D01*
X1878Y1333D01*
X1874Y1333D01*
X1874Y1335D01*
X1872Y1335D01*
X1872Y1337D01*
X1868Y1337D01*
X1868Y1339D01*
X1866Y1339D01*
X1866Y1341D01*
X1864Y1341D01*
X1864Y1343D01*
X1860Y1343D01*
X1860Y1345D01*
X1858Y1345D01*
X1858Y1347D01*
X1856Y1347D01*
X1856Y1349D01*
X1854Y1349D01*
X1854Y1353D01*
X1852Y1353D01*
X1852Y1355D01*
X1850Y1355D01*
X1850Y1357D01*
X1848Y1357D01*
X1848Y1361D01*
X1846Y1361D01*
X1846Y1363D01*
X1844Y1363D01*
X1844Y1367D01*
X1842Y1367D01*
X1842Y1373D01*
X1840Y1373D01*
X1840Y1379D01*
X1838Y1379D01*
X1838Y1415D01*
X1840Y1415D01*
X1840Y1421D01*
X1842Y1421D01*
X1842Y1427D01*
X1844Y1427D01*
X1844Y1431D01*
X1846Y1431D01*
X1846Y1433D01*
X1848Y1433D01*
X1848Y1437D01*
X1850Y1437D01*
X1850Y1439D01*
X1852Y1439D01*
X1852Y1441D01*
X1854Y1441D01*
X1854Y1445D01*
X1856Y1445D01*
X1856Y1447D01*
X1858Y1447D01*
X1858Y1449D01*
X1860Y1449D01*
X1860Y1451D01*
X1864Y1451D01*
X1864Y1453D01*
X1866Y1453D01*
X1866Y1455D01*
X1868Y1455D01*
X1868Y1457D01*
X1872Y1457D01*
X1872Y1459D01*
X1874Y1459D01*
X1874Y1461D01*
X1878Y1461D01*
X1878Y1463D01*
X1882Y1463D01*
X1882Y1465D01*
X1888Y1465D01*
X1888Y1467D01*
X1652Y1467D01*
G37*
D02*
G36*
X1928Y1467D02*
X1928Y1465D01*
X1934Y1465D01*
X1934Y1463D01*
X1938Y1463D01*
X1938Y1461D01*
X1942Y1461D01*
X1942Y1459D01*
X1946Y1459D01*
X1946Y1457D01*
X1948Y1457D01*
X1948Y1455D01*
X1968Y1455D01*
X1968Y1457D01*
X1972Y1457D01*
X1972Y1459D01*
X1974Y1459D01*
X1974Y1461D01*
X1978Y1461D01*
X1978Y1463D01*
X1982Y1463D01*
X1982Y1465D01*
X1988Y1465D01*
X1988Y1467D01*
X1928Y1467D01*
G37*
D02*
G36*
X542Y1335D02*
X542Y1333D01*
X540Y1333D01*
X540Y1331D01*
X534Y1331D01*
X534Y1329D01*
X530Y1329D01*
X530Y1327D01*
X518Y1327D01*
X518Y1325D01*
X564Y1325D01*
X564Y1335D01*
X542Y1335D01*
G37*
D02*
G36*
X1242Y1335D02*
X1242Y1333D01*
X1240Y1333D01*
X1240Y1331D01*
X1234Y1331D01*
X1234Y1329D01*
X1230Y1329D01*
X1230Y1327D01*
X1218Y1327D01*
X1218Y1325D01*
X1264Y1325D01*
X1264Y1335D01*
X1242Y1335D01*
G37*
D02*
G36*
X1942Y1335D02*
X1942Y1333D01*
X1940Y1333D01*
X1940Y1331D01*
X1934Y1331D01*
X1934Y1329D01*
X1930Y1329D01*
X1930Y1327D01*
X1918Y1327D01*
X1918Y1325D01*
X1964Y1325D01*
X1964Y1335D01*
X1942Y1335D01*
G37*
D02*
G36*
X252Y1325D02*
X252Y1323D01*
X564Y1323D01*
X564Y1325D01*
X252Y1325D01*
G37*
D02*
G36*
X252Y1325D02*
X252Y1323D01*
X564Y1323D01*
X564Y1325D01*
X252Y1325D01*
G37*
D02*
G36*
X952Y1325D02*
X952Y1323D01*
X1264Y1323D01*
X1264Y1325D01*
X952Y1325D01*
G37*
D02*
G36*
X952Y1325D02*
X952Y1323D01*
X1264Y1323D01*
X1264Y1325D01*
X952Y1325D01*
G37*
D02*
G36*
X1652Y1325D02*
X1652Y1323D01*
X1964Y1323D01*
X1964Y1325D01*
X1652Y1325D01*
G37*
D02*
G36*
X1652Y1325D02*
X1652Y1323D01*
X1964Y1323D01*
X1964Y1325D01*
X1652Y1325D01*
G37*
D02*
G36*
X252Y1323D02*
X252Y1253D01*
X592Y1253D01*
X592Y1255D01*
X586Y1255D01*
X586Y1257D01*
X582Y1257D01*
X582Y1259D01*
X580Y1259D01*
X580Y1261D01*
X578Y1261D01*
X578Y1263D01*
X576Y1263D01*
X576Y1265D01*
X574Y1265D01*
X574Y1267D01*
X572Y1267D01*
X572Y1269D01*
X570Y1269D01*
X570Y1273D01*
X568Y1273D01*
X568Y1277D01*
X566Y1277D01*
X566Y1285D01*
X564Y1285D01*
X564Y1323D01*
X252Y1323D01*
G37*
D02*
G36*
X952Y1323D02*
X952Y1279D01*
X950Y1279D01*
X950Y1275D01*
X948Y1275D01*
X948Y1271D01*
X946Y1271D01*
X946Y1267D01*
X944Y1267D01*
X944Y1265D01*
X942Y1265D01*
X942Y1263D01*
X940Y1263D01*
X940Y1261D01*
X938Y1261D01*
X938Y1259D01*
X934Y1259D01*
X934Y1257D01*
X930Y1257D01*
X930Y1255D01*
X924Y1255D01*
X924Y1253D01*
X1292Y1253D01*
X1292Y1255D01*
X1286Y1255D01*
X1286Y1257D01*
X1282Y1257D01*
X1282Y1259D01*
X1280Y1259D01*
X1280Y1261D01*
X1278Y1261D01*
X1278Y1263D01*
X1276Y1263D01*
X1276Y1265D01*
X1274Y1265D01*
X1274Y1267D01*
X1272Y1267D01*
X1272Y1269D01*
X1270Y1269D01*
X1270Y1273D01*
X1268Y1273D01*
X1268Y1277D01*
X1266Y1277D01*
X1266Y1285D01*
X1264Y1285D01*
X1264Y1323D01*
X952Y1323D01*
G37*
D02*
G36*
X1652Y1323D02*
X1652Y1279D01*
X1650Y1279D01*
X1650Y1275D01*
X1648Y1275D01*
X1648Y1271D01*
X1646Y1271D01*
X1646Y1267D01*
X1644Y1267D01*
X1644Y1265D01*
X1642Y1265D01*
X1642Y1263D01*
X1640Y1263D01*
X1640Y1261D01*
X1638Y1261D01*
X1638Y1259D01*
X1634Y1259D01*
X1634Y1257D01*
X1630Y1257D01*
X1630Y1255D01*
X1624Y1255D01*
X1624Y1253D01*
X1992Y1253D01*
X1992Y1255D01*
X1986Y1255D01*
X1986Y1257D01*
X1982Y1257D01*
X1982Y1259D01*
X1980Y1259D01*
X1980Y1261D01*
X1978Y1261D01*
X1978Y1263D01*
X1976Y1263D01*
X1976Y1265D01*
X1974Y1265D01*
X1974Y1267D01*
X1972Y1267D01*
X1972Y1269D01*
X1970Y1269D01*
X1970Y1273D01*
X1968Y1273D01*
X1968Y1277D01*
X1966Y1277D01*
X1966Y1285D01*
X1964Y1285D01*
X1964Y1323D01*
X1652Y1323D01*
G37*
D02*
G36*
X2244Y1267D02*
X2244Y1265D01*
X2242Y1265D01*
X2242Y1263D01*
X2240Y1263D01*
X2240Y1261D01*
X2238Y1261D01*
X2238Y1259D01*
X2234Y1259D01*
X2234Y1257D01*
X2230Y1257D01*
X2230Y1255D01*
X2224Y1255D01*
X2224Y1253D01*
X2264Y1253D01*
X2264Y1267D01*
X2244Y1267D01*
G37*
D02*
G36*
X252Y1253D02*
X252Y1251D01*
X2264Y1251D01*
X2264Y1253D01*
X252Y1253D01*
G37*
D02*
G36*
X252Y1253D02*
X252Y1251D01*
X2264Y1251D01*
X2264Y1253D01*
X252Y1253D01*
G37*
D02*
G36*
X252Y1253D02*
X252Y1251D01*
X2264Y1251D01*
X2264Y1253D01*
X252Y1253D01*
G37*
D02*
G36*
X252Y1253D02*
X252Y1251D01*
X2264Y1251D01*
X2264Y1253D01*
X252Y1253D01*
G37*
D02*
G36*
X252Y1251D02*
X252Y767D01*
X628Y767D01*
X628Y765D01*
X634Y765D01*
X634Y763D01*
X638Y763D01*
X638Y761D01*
X642Y761D01*
X642Y759D01*
X664Y759D01*
X664Y1109D01*
X666Y1109D01*
X666Y1117D01*
X668Y1117D01*
X668Y1121D01*
X670Y1121D01*
X670Y1125D01*
X672Y1125D01*
X672Y1127D01*
X674Y1127D01*
X674Y1129D01*
X676Y1129D01*
X676Y1131D01*
X678Y1131D01*
X678Y1133D01*
X680Y1133D01*
X680Y1135D01*
X684Y1135D01*
X684Y1137D01*
X688Y1137D01*
X688Y1139D01*
X694Y1139D01*
X694Y1141D01*
X2264Y1141D01*
X2264Y1251D01*
X252Y1251D01*
G37*
D02*
G36*
X252Y767D02*
X252Y741D01*
X454Y741D01*
X454Y745D01*
X456Y745D01*
X456Y747D01*
X458Y747D01*
X458Y749D01*
X460Y749D01*
X460Y751D01*
X464Y751D01*
X464Y753D01*
X466Y753D01*
X466Y755D01*
X468Y755D01*
X468Y757D01*
X472Y757D01*
X472Y759D01*
X474Y759D01*
X474Y761D01*
X478Y761D01*
X478Y763D01*
X482Y763D01*
X482Y765D01*
X488Y765D01*
X488Y767D01*
X252Y767D01*
G37*
D02*
G36*
X528Y767D02*
X528Y765D01*
X534Y765D01*
X534Y763D01*
X538Y763D01*
X538Y761D01*
X542Y761D01*
X542Y759D01*
X546Y759D01*
X546Y757D01*
X548Y757D01*
X548Y755D01*
X568Y755D01*
X568Y757D01*
X572Y757D01*
X572Y759D01*
X574Y759D01*
X574Y761D01*
X578Y761D01*
X578Y763D01*
X582Y763D01*
X582Y765D01*
X588Y765D01*
X588Y767D01*
X528Y767D01*
G37*
D02*
G36*
X2448Y1939D02*
X2448Y1937D01*
X2444Y1937D01*
X2444Y1935D01*
X2440Y1935D01*
X2440Y1933D01*
X2436Y1933D01*
X2436Y1931D01*
X2432Y1931D01*
X2432Y1929D01*
X2424Y1929D01*
X2424Y1927D01*
X2492Y1927D01*
X2492Y1929D01*
X2486Y1929D01*
X2486Y1931D01*
X2480Y1931D01*
X2480Y1933D01*
X2476Y1933D01*
X2476Y1935D01*
X2474Y1935D01*
X2474Y1937D01*
X2470Y1937D01*
X2470Y1939D01*
X2448Y1939D01*
G37*
D02*
G36*
X2352Y1937D02*
X2352Y1927D01*
X2392Y1927D01*
X2392Y1929D01*
X2386Y1929D01*
X2386Y1931D01*
X2380Y1931D01*
X2380Y1933D01*
X2376Y1933D01*
X2376Y1935D01*
X2374Y1935D01*
X2374Y1937D01*
X2352Y1937D01*
G37*
D02*
G36*
X2536Y1933D02*
X2536Y1931D01*
X2532Y1931D01*
X2532Y1929D01*
X2524Y1929D01*
X2524Y1927D01*
X2556Y1927D01*
X2556Y1933D01*
X2536Y1933D01*
G37*
D02*
G36*
X2352Y1927D02*
X2352Y1925D01*
X2556Y1925D01*
X2556Y1927D01*
X2352Y1927D01*
G37*
D02*
G36*
X2352Y1927D02*
X2352Y1925D01*
X2556Y1925D01*
X2556Y1927D01*
X2352Y1927D01*
G37*
D02*
G36*
X2352Y1927D02*
X2352Y1925D01*
X2556Y1925D01*
X2556Y1927D01*
X2352Y1927D01*
G37*
D02*
G36*
X2352Y1925D02*
X2352Y1407D01*
X2624Y1407D01*
X2624Y1405D01*
X2632Y1405D01*
X2632Y1403D01*
X2636Y1403D01*
X2636Y1401D01*
X2640Y1401D01*
X2640Y1399D01*
X2644Y1399D01*
X2644Y1397D01*
X2648Y1397D01*
X2648Y1395D01*
X2650Y1395D01*
X2650Y1393D01*
X2652Y1393D01*
X2652Y1391D01*
X2674Y1391D01*
X2674Y1491D01*
X2672Y1491D01*
X2672Y1493D01*
X2670Y1493D01*
X2670Y1495D01*
X2666Y1495D01*
X2666Y1497D01*
X2664Y1497D01*
X2664Y1499D01*
X2662Y1499D01*
X2662Y1501D01*
X2660Y1501D01*
X2660Y1503D01*
X2658Y1503D01*
X2658Y1505D01*
X2654Y1505D01*
X2654Y1507D01*
X2652Y1507D01*
X2652Y1509D01*
X2650Y1509D01*
X2650Y1511D01*
X2648Y1511D01*
X2648Y1513D01*
X2646Y1513D01*
X2646Y1515D01*
X2644Y1515D01*
X2644Y1517D01*
X2640Y1517D01*
X2640Y1519D01*
X2638Y1519D01*
X2638Y1521D01*
X2636Y1521D01*
X2636Y1523D01*
X2634Y1523D01*
X2634Y1525D01*
X2632Y1525D01*
X2632Y1527D01*
X2628Y1527D01*
X2628Y1529D01*
X2626Y1529D01*
X2626Y1531D01*
X2624Y1531D01*
X2624Y1533D01*
X2622Y1533D01*
X2622Y1535D01*
X2620Y1535D01*
X2620Y1537D01*
X2618Y1537D01*
X2618Y1539D01*
X2614Y1539D01*
X2614Y1541D01*
X2612Y1541D01*
X2612Y1543D01*
X2610Y1543D01*
X2610Y1545D01*
X2608Y1545D01*
X2608Y1547D01*
X2606Y1547D01*
X2606Y1549D01*
X2602Y1549D01*
X2602Y1551D01*
X2600Y1551D01*
X2600Y1553D01*
X2598Y1553D01*
X2598Y1555D01*
X2596Y1555D01*
X2596Y1557D01*
X2594Y1557D01*
X2594Y1559D01*
X2592Y1559D01*
X2592Y1561D01*
X2590Y1561D01*
X2590Y1563D01*
X2588Y1563D01*
X2588Y1565D01*
X2586Y1565D01*
X2586Y1567D01*
X2584Y1567D01*
X2584Y1569D01*
X2582Y1569D01*
X2582Y1571D01*
X2580Y1571D01*
X2580Y1573D01*
X2578Y1573D01*
X2578Y1575D01*
X2576Y1575D01*
X2576Y1577D01*
X2574Y1577D01*
X2574Y1579D01*
X2572Y1579D01*
X2572Y1581D01*
X2570Y1581D01*
X2570Y1583D01*
X2568Y1583D01*
X2568Y1585D01*
X2566Y1585D01*
X2566Y1587D01*
X2564Y1587D01*
X2564Y1589D01*
X2562Y1589D01*
X2562Y1591D01*
X2560Y1591D01*
X2560Y1593D01*
X2558Y1593D01*
X2558Y1595D01*
X2556Y1595D01*
X2556Y1925D01*
X2352Y1925D01*
G37*
D02*
G36*
X2352Y1407D02*
X2352Y1379D01*
X2552Y1379D01*
X2552Y1381D01*
X2554Y1381D01*
X2554Y1383D01*
X2556Y1383D01*
X2556Y1385D01*
X2558Y1385D01*
X2558Y1387D01*
X2560Y1387D01*
X2560Y1389D01*
X2562Y1389D01*
X2562Y1391D01*
X2564Y1391D01*
X2564Y1393D01*
X2566Y1393D01*
X2566Y1395D01*
X2570Y1395D01*
X2570Y1397D01*
X2572Y1397D01*
X2572Y1399D01*
X2576Y1399D01*
X2576Y1401D01*
X2580Y1401D01*
X2580Y1403D01*
X2586Y1403D01*
X2586Y1405D01*
X2594Y1405D01*
X2594Y1407D01*
X2352Y1407D01*
G37*
D02*
G36*
X752Y1653D02*
X752Y1453D01*
X754Y1453D01*
X754Y1451D01*
X756Y1451D01*
X756Y1449D01*
X758Y1449D01*
X758Y1447D01*
X760Y1447D01*
X760Y1445D01*
X762Y1445D01*
X762Y1443D01*
X764Y1443D01*
X764Y1441D01*
X766Y1441D01*
X766Y1439D01*
X768Y1439D01*
X768Y1435D01*
X770Y1435D01*
X770Y1433D01*
X772Y1433D01*
X772Y1429D01*
X774Y1429D01*
X774Y1425D01*
X776Y1425D01*
X776Y1419D01*
X778Y1419D01*
X778Y1411D01*
X780Y1411D01*
X780Y1383D01*
X778Y1383D01*
X778Y1375D01*
X776Y1375D01*
X776Y1369D01*
X774Y1369D01*
X774Y1365D01*
X772Y1365D01*
X772Y1361D01*
X770Y1361D01*
X770Y1341D01*
X864Y1341D01*
X864Y1609D01*
X866Y1609D01*
X866Y1617D01*
X868Y1617D01*
X868Y1621D01*
X870Y1621D01*
X870Y1625D01*
X872Y1625D01*
X872Y1627D01*
X874Y1627D01*
X874Y1629D01*
X876Y1629D01*
X876Y1631D01*
X878Y1631D01*
X878Y1633D01*
X880Y1633D01*
X880Y1653D01*
X752Y1653D01*
G37*
D02*
G36*
X1452Y1653D02*
X1452Y1453D01*
X1454Y1453D01*
X1454Y1451D01*
X1456Y1451D01*
X1456Y1449D01*
X1458Y1449D01*
X1458Y1447D01*
X1460Y1447D01*
X1460Y1445D01*
X1462Y1445D01*
X1462Y1443D01*
X1464Y1443D01*
X1464Y1441D01*
X1466Y1441D01*
X1466Y1439D01*
X1468Y1439D01*
X1468Y1435D01*
X1470Y1435D01*
X1470Y1433D01*
X1472Y1433D01*
X1472Y1429D01*
X1474Y1429D01*
X1474Y1425D01*
X1476Y1425D01*
X1476Y1419D01*
X1478Y1419D01*
X1478Y1411D01*
X1480Y1411D01*
X1480Y1383D01*
X1478Y1383D01*
X1478Y1375D01*
X1476Y1375D01*
X1476Y1369D01*
X1474Y1369D01*
X1474Y1365D01*
X1472Y1365D01*
X1472Y1361D01*
X1470Y1361D01*
X1470Y1341D01*
X1564Y1341D01*
X1564Y1609D01*
X1566Y1609D01*
X1566Y1617D01*
X1568Y1617D01*
X1568Y1621D01*
X1570Y1621D01*
X1570Y1625D01*
X1572Y1625D01*
X1572Y1627D01*
X1574Y1627D01*
X1574Y1629D01*
X1576Y1629D01*
X1576Y1631D01*
X1578Y1631D01*
X1578Y1633D01*
X1580Y1633D01*
X1580Y1653D01*
X1452Y1653D01*
G37*
D02*
G36*
X2452Y1153D02*
X2452Y1007D01*
X2624Y1007D01*
X2624Y1005D01*
X2632Y1005D01*
X2632Y1003D01*
X2636Y1003D01*
X2636Y1001D01*
X2640Y1001D01*
X2640Y999D01*
X2644Y999D01*
X2644Y997D01*
X2648Y997D01*
X2648Y995D01*
X2650Y995D01*
X2650Y993D01*
X2652Y993D01*
X2652Y991D01*
X2674Y991D01*
X2674Y1125D01*
X2536Y1125D01*
X2536Y1153D01*
X2452Y1153D01*
G37*
D02*
G36*
X2452Y1007D02*
X2452Y979D01*
X2552Y979D01*
X2552Y981D01*
X2554Y981D01*
X2554Y983D01*
X2556Y983D01*
X2556Y985D01*
X2558Y985D01*
X2558Y987D01*
X2560Y987D01*
X2560Y989D01*
X2562Y989D01*
X2562Y991D01*
X2564Y991D01*
X2564Y993D01*
X2566Y993D01*
X2566Y995D01*
X2570Y995D01*
X2570Y997D01*
X2572Y997D01*
X2572Y999D01*
X2576Y999D01*
X2576Y1001D01*
X2580Y1001D01*
X2580Y1003D01*
X2586Y1003D01*
X2586Y1005D01*
X2594Y1005D01*
X2594Y1007D01*
X2452Y1007D01*
G37*
D02*
G36*
X2170Y753D02*
X2170Y733D01*
X2172Y733D01*
X2172Y729D01*
X2174Y729D01*
X2174Y725D01*
X2176Y725D01*
X2176Y719D01*
X2178Y719D01*
X2178Y711D01*
X2180Y711D01*
X2180Y683D01*
X2178Y683D01*
X2178Y675D01*
X2176Y675D01*
X2176Y669D01*
X2174Y669D01*
X2174Y665D01*
X2172Y665D01*
X2172Y661D01*
X2170Y661D01*
X2170Y659D01*
X2168Y659D01*
X2168Y655D01*
X2166Y655D01*
X2166Y653D01*
X2164Y653D01*
X2164Y651D01*
X2162Y651D01*
X2162Y649D01*
X2160Y649D01*
X2160Y647D01*
X2158Y647D01*
X2158Y645D01*
X2156Y645D01*
X2156Y643D01*
X2154Y643D01*
X2154Y641D01*
X2152Y641D01*
X2152Y607D01*
X2624Y607D01*
X2624Y605D01*
X2632Y605D01*
X2632Y603D01*
X2636Y603D01*
X2636Y601D01*
X2640Y601D01*
X2640Y599D01*
X2644Y599D01*
X2644Y597D01*
X2648Y597D01*
X2648Y595D01*
X2650Y595D01*
X2650Y593D01*
X2652Y593D01*
X2652Y591D01*
X2674Y591D01*
X2674Y725D01*
X2536Y725D01*
X2536Y753D01*
X2170Y753D01*
G37*
D02*
G36*
X2152Y607D02*
X2152Y579D01*
X2552Y579D01*
X2552Y581D01*
X2554Y581D01*
X2554Y583D01*
X2556Y583D01*
X2556Y585D01*
X2558Y585D01*
X2558Y587D01*
X2560Y587D01*
X2560Y589D01*
X2562Y589D01*
X2562Y591D01*
X2564Y591D01*
X2564Y593D01*
X2566Y593D01*
X2566Y595D01*
X2570Y595D01*
X2570Y597D01*
X2572Y597D01*
X2572Y599D01*
X2576Y599D01*
X2576Y601D01*
X2580Y601D01*
X2580Y603D01*
X2586Y603D01*
X2586Y605D01*
X2594Y605D01*
X2594Y607D01*
X2152Y607D01*
G37*
D02*
G36*
X852Y953D02*
X852Y767D01*
X1328Y767D01*
X1328Y765D01*
X1334Y765D01*
X1334Y763D01*
X1338Y763D01*
X1338Y761D01*
X1342Y761D01*
X1342Y759D01*
X1364Y759D01*
X1364Y953D01*
X852Y953D01*
G37*
D02*
G36*
X852Y767D02*
X852Y579D01*
X850Y579D01*
X850Y575D01*
X848Y575D01*
X848Y571D01*
X846Y571D01*
X846Y567D01*
X844Y567D01*
X844Y565D01*
X842Y565D01*
X842Y563D01*
X840Y563D01*
X840Y561D01*
X838Y561D01*
X838Y559D01*
X834Y559D01*
X834Y557D01*
X830Y557D01*
X830Y555D01*
X824Y555D01*
X824Y553D01*
X1164Y553D01*
X1164Y643D01*
X1160Y643D01*
X1160Y645D01*
X1158Y645D01*
X1158Y647D01*
X1156Y647D01*
X1156Y649D01*
X1154Y649D01*
X1154Y653D01*
X1152Y653D01*
X1152Y655D01*
X1150Y655D01*
X1150Y657D01*
X1148Y657D01*
X1148Y661D01*
X1146Y661D01*
X1146Y663D01*
X1144Y663D01*
X1144Y667D01*
X1142Y667D01*
X1142Y673D01*
X1140Y673D01*
X1140Y679D01*
X1138Y679D01*
X1138Y715D01*
X1140Y715D01*
X1140Y721D01*
X1142Y721D01*
X1142Y727D01*
X1144Y727D01*
X1144Y731D01*
X1146Y731D01*
X1146Y733D01*
X1148Y733D01*
X1148Y737D01*
X1150Y737D01*
X1150Y739D01*
X1152Y739D01*
X1152Y741D01*
X1154Y741D01*
X1154Y745D01*
X1156Y745D01*
X1156Y747D01*
X1158Y747D01*
X1158Y749D01*
X1160Y749D01*
X1160Y751D01*
X1164Y751D01*
X1164Y753D01*
X1166Y753D01*
X1166Y755D01*
X1168Y755D01*
X1168Y757D01*
X1172Y757D01*
X1172Y759D01*
X1174Y759D01*
X1174Y761D01*
X1178Y761D01*
X1178Y763D01*
X1182Y763D01*
X1182Y765D01*
X1188Y765D01*
X1188Y767D01*
X852Y767D01*
G37*
D02*
G36*
X1228Y767D02*
X1228Y765D01*
X1234Y765D01*
X1234Y763D01*
X1238Y763D01*
X1238Y761D01*
X1242Y761D01*
X1242Y759D01*
X1246Y759D01*
X1246Y757D01*
X1248Y757D01*
X1248Y755D01*
X1268Y755D01*
X1268Y757D01*
X1272Y757D01*
X1272Y759D01*
X1274Y759D01*
X1274Y761D01*
X1278Y761D01*
X1278Y763D01*
X1282Y763D01*
X1282Y765D01*
X1288Y765D01*
X1288Y767D01*
X1228Y767D01*
G37*
D02*
G36*
X552Y569D02*
X552Y553D01*
X592Y553D01*
X592Y555D01*
X586Y555D01*
X586Y557D01*
X582Y557D01*
X582Y559D01*
X580Y559D01*
X580Y561D01*
X578Y561D01*
X578Y563D01*
X576Y563D01*
X576Y565D01*
X574Y565D01*
X574Y567D01*
X572Y567D01*
X572Y569D01*
X552Y569D01*
G37*
D02*
G36*
X552Y553D02*
X552Y551D01*
X1164Y551D01*
X1164Y553D01*
X552Y553D01*
G37*
D02*
G36*
X552Y553D02*
X552Y551D01*
X1164Y551D01*
X1164Y553D01*
X552Y553D01*
G37*
D02*
G36*
X552Y551D02*
X552Y341D01*
X1164Y341D01*
X1164Y551D01*
X552Y551D01*
G37*
D02*
G36*
X1552Y753D02*
X1552Y579D01*
X1550Y579D01*
X1550Y575D01*
X1548Y575D01*
X1548Y571D01*
X1546Y571D01*
X1546Y567D01*
X1544Y567D01*
X1544Y565D01*
X1542Y565D01*
X1542Y563D01*
X1540Y563D01*
X1540Y561D01*
X1538Y561D01*
X1538Y559D01*
X1534Y559D01*
X1534Y557D01*
X1530Y557D01*
X1530Y555D01*
X1524Y555D01*
X1524Y553D01*
X1864Y553D01*
X1864Y643D01*
X1860Y643D01*
X1860Y645D01*
X1858Y645D01*
X1858Y647D01*
X1856Y647D01*
X1856Y649D01*
X1854Y649D01*
X1854Y653D01*
X1852Y653D01*
X1852Y655D01*
X1850Y655D01*
X1850Y657D01*
X1848Y657D01*
X1848Y661D01*
X1846Y661D01*
X1846Y663D01*
X1844Y663D01*
X1844Y667D01*
X1842Y667D01*
X1842Y673D01*
X1840Y673D01*
X1840Y679D01*
X1838Y679D01*
X1838Y715D01*
X1840Y715D01*
X1840Y721D01*
X1842Y721D01*
X1842Y727D01*
X1844Y727D01*
X1844Y731D01*
X1846Y731D01*
X1846Y733D01*
X1848Y733D01*
X1848Y753D01*
X1552Y753D01*
G37*
D02*
G36*
X1252Y569D02*
X1252Y553D01*
X1292Y553D01*
X1292Y555D01*
X1286Y555D01*
X1286Y557D01*
X1282Y557D01*
X1282Y559D01*
X1280Y559D01*
X1280Y561D01*
X1278Y561D01*
X1278Y563D01*
X1276Y563D01*
X1276Y565D01*
X1274Y565D01*
X1274Y567D01*
X1272Y567D01*
X1272Y569D01*
X1252Y569D01*
G37*
D02*
G36*
X1252Y553D02*
X1252Y551D01*
X1864Y551D01*
X1864Y553D01*
X1252Y553D01*
G37*
D02*
G36*
X1252Y553D02*
X1252Y551D01*
X1864Y551D01*
X1864Y553D01*
X1252Y553D01*
G37*
D02*
G36*
X1252Y551D02*
X1252Y341D01*
X1864Y341D01*
X1864Y551D01*
X1252Y551D01*
G37*
D02*
G36*
X1952Y369D02*
X1952Y279D01*
X1950Y279D01*
X1950Y275D01*
X1948Y275D01*
X1948Y271D01*
X1946Y271D01*
X1946Y267D01*
X1944Y267D01*
X1944Y265D01*
X1942Y265D01*
X1942Y263D01*
X1940Y263D01*
X1940Y261D01*
X1938Y261D01*
X1938Y259D01*
X1934Y259D01*
X1934Y257D01*
X1930Y257D01*
X1930Y255D01*
X1924Y255D01*
X1924Y253D01*
X1452Y253D01*
X1452Y167D01*
X2524Y167D01*
X2524Y165D01*
X2532Y165D01*
X2532Y163D01*
X2536Y163D01*
X2536Y161D01*
X2540Y161D01*
X2540Y159D01*
X2544Y159D01*
X2544Y157D01*
X2546Y157D01*
X2546Y155D01*
X2550Y155D01*
X2550Y153D01*
X2552Y153D01*
X2552Y151D01*
X2554Y151D01*
X2554Y149D01*
X2556Y149D01*
X2556Y147D01*
X2558Y147D01*
X2558Y145D01*
X2560Y145D01*
X2560Y143D01*
X2562Y143D01*
X2562Y141D01*
X2564Y141D01*
X2564Y139D01*
X2566Y139D01*
X2566Y137D01*
X2568Y137D01*
X2568Y133D01*
X2570Y133D01*
X2570Y129D01*
X2572Y129D01*
X2572Y127D01*
X2592Y127D01*
X2592Y129D01*
X2594Y129D01*
X2594Y131D01*
X2596Y131D01*
X2596Y133D01*
X2598Y133D01*
X2598Y135D01*
X2600Y135D01*
X2600Y137D01*
X2602Y137D01*
X2602Y139D01*
X2604Y139D01*
X2604Y141D01*
X2606Y141D01*
X2606Y143D01*
X2608Y143D01*
X2608Y145D01*
X2610Y145D01*
X2610Y147D01*
X2612Y147D01*
X2612Y149D01*
X2614Y149D01*
X2614Y151D01*
X2616Y151D01*
X2616Y153D01*
X2618Y153D01*
X2618Y155D01*
X2620Y155D01*
X2620Y157D01*
X2622Y157D01*
X2622Y159D01*
X2624Y159D01*
X2624Y161D01*
X2626Y161D01*
X2626Y163D01*
X2628Y163D01*
X2628Y165D01*
X2630Y165D01*
X2630Y167D01*
X2632Y167D01*
X2632Y169D01*
X2634Y169D01*
X2634Y171D01*
X2636Y171D01*
X2636Y173D01*
X2638Y173D01*
X2638Y175D01*
X2640Y175D01*
X2640Y177D01*
X2642Y177D01*
X2642Y179D01*
X2644Y179D01*
X2644Y181D01*
X2646Y181D01*
X2646Y183D01*
X2648Y183D01*
X2648Y185D01*
X2650Y185D01*
X2650Y187D01*
X2652Y187D01*
X2652Y189D01*
X2654Y189D01*
X2654Y191D01*
X2656Y191D01*
X2656Y193D01*
X2658Y193D01*
X2658Y195D01*
X2660Y195D01*
X2660Y197D01*
X2662Y197D01*
X2662Y199D01*
X2664Y199D01*
X2664Y201D01*
X2666Y201D01*
X2666Y203D01*
X2668Y203D01*
X2668Y205D01*
X2670Y205D01*
X2670Y207D01*
X2672Y207D01*
X2672Y209D01*
X2674Y209D01*
X2674Y325D01*
X2536Y325D01*
X2536Y353D01*
X1992Y353D01*
X1992Y355D01*
X1986Y355D01*
X1986Y357D01*
X1982Y357D01*
X1982Y359D01*
X1980Y359D01*
X1980Y361D01*
X1978Y361D01*
X1978Y363D01*
X1976Y363D01*
X1976Y365D01*
X1974Y365D01*
X1974Y367D01*
X1972Y367D01*
X1972Y369D01*
X1952Y369D01*
G37*
D02*
G36*
X1452Y167D02*
X1452Y157D01*
X1474Y157D01*
X1474Y159D01*
X1476Y159D01*
X1476Y161D01*
X1480Y161D01*
X1480Y163D01*
X1486Y163D01*
X1486Y165D01*
X1494Y165D01*
X1494Y167D01*
X1452Y167D01*
G37*
D02*
G36*
X1524Y167D02*
X1524Y165D01*
X1532Y165D01*
X1532Y163D01*
X1536Y163D01*
X1536Y161D01*
X1540Y161D01*
X1540Y159D01*
X1544Y159D01*
X1544Y157D01*
X1546Y157D01*
X1546Y155D01*
X1570Y155D01*
X1570Y157D01*
X1574Y157D01*
X1574Y159D01*
X1576Y159D01*
X1576Y161D01*
X1580Y161D01*
X1580Y163D01*
X1586Y163D01*
X1586Y165D01*
X1594Y165D01*
X1594Y167D01*
X1524Y167D01*
G37*
D02*
G36*
X1624Y167D02*
X1624Y165D01*
X1632Y165D01*
X1632Y163D01*
X1636Y163D01*
X1636Y161D01*
X1640Y161D01*
X1640Y159D01*
X1644Y159D01*
X1644Y157D01*
X1646Y157D01*
X1646Y155D01*
X1670Y155D01*
X1670Y157D01*
X1674Y157D01*
X1674Y159D01*
X1676Y159D01*
X1676Y161D01*
X1680Y161D01*
X1680Y163D01*
X1686Y163D01*
X1686Y165D01*
X1694Y165D01*
X1694Y167D01*
X1624Y167D01*
G37*
D02*
G36*
X1724Y167D02*
X1724Y165D01*
X1732Y165D01*
X1732Y163D01*
X1736Y163D01*
X1736Y161D01*
X1740Y161D01*
X1740Y159D01*
X1744Y159D01*
X1744Y157D01*
X1746Y157D01*
X1746Y155D01*
X1770Y155D01*
X1770Y157D01*
X1774Y157D01*
X1774Y159D01*
X1776Y159D01*
X1776Y161D01*
X1780Y161D01*
X1780Y163D01*
X1786Y163D01*
X1786Y165D01*
X1794Y165D01*
X1794Y167D01*
X1724Y167D01*
G37*
D02*
G36*
X1824Y167D02*
X1824Y165D01*
X1832Y165D01*
X1832Y163D01*
X1836Y163D01*
X1836Y161D01*
X1840Y161D01*
X1840Y159D01*
X1844Y159D01*
X1844Y157D01*
X1846Y157D01*
X1846Y155D01*
X1850Y155D01*
X1850Y153D01*
X1852Y153D01*
X1852Y151D01*
X1854Y151D01*
X1854Y149D01*
X1856Y149D01*
X1856Y147D01*
X1858Y147D01*
X1858Y145D01*
X1860Y145D01*
X1860Y143D01*
X1862Y143D01*
X1862Y141D01*
X1864Y141D01*
X1864Y139D01*
X1866Y139D01*
X1866Y137D01*
X1868Y137D01*
X1868Y133D01*
X1870Y133D01*
X1870Y129D01*
X1872Y129D01*
X1872Y127D01*
X1874Y127D01*
X1874Y121D01*
X1876Y121D01*
X1876Y115D01*
X1878Y115D01*
X1878Y79D01*
X1876Y79D01*
X1876Y73D01*
X1874Y73D01*
X1874Y51D01*
X1944Y51D01*
X1944Y71D01*
X1942Y71D01*
X1942Y75D01*
X1940Y75D01*
X1940Y85D01*
X1938Y85D01*
X1938Y109D01*
X1940Y109D01*
X1940Y119D01*
X1942Y119D01*
X1942Y123D01*
X1944Y123D01*
X1944Y127D01*
X1946Y127D01*
X1946Y131D01*
X1948Y131D01*
X1948Y135D01*
X1950Y135D01*
X1950Y137D01*
X1952Y137D01*
X1952Y141D01*
X1954Y141D01*
X1954Y143D01*
X1956Y143D01*
X1956Y145D01*
X1958Y145D01*
X1958Y147D01*
X1960Y147D01*
X1960Y149D01*
X1962Y149D01*
X1962Y151D01*
X1964Y151D01*
X1964Y153D01*
X1968Y153D01*
X1968Y155D01*
X1970Y155D01*
X1970Y157D01*
X1974Y157D01*
X1974Y159D01*
X1976Y159D01*
X1976Y161D01*
X1980Y161D01*
X1980Y163D01*
X1986Y163D01*
X1986Y165D01*
X1994Y165D01*
X1994Y167D01*
X1824Y167D01*
G37*
D02*
G36*
X2024Y167D02*
X2024Y165D01*
X2032Y165D01*
X2032Y163D01*
X2036Y163D01*
X2036Y161D01*
X2040Y161D01*
X2040Y159D01*
X2044Y159D01*
X2044Y157D01*
X2046Y157D01*
X2046Y155D01*
X2070Y155D01*
X2070Y157D01*
X2074Y157D01*
X2074Y159D01*
X2076Y159D01*
X2076Y161D01*
X2080Y161D01*
X2080Y163D01*
X2086Y163D01*
X2086Y165D01*
X2094Y165D01*
X2094Y167D01*
X2024Y167D01*
G37*
D02*
G36*
X2124Y167D02*
X2124Y165D01*
X2132Y165D01*
X2132Y163D01*
X2136Y163D01*
X2136Y161D01*
X2140Y161D01*
X2140Y159D01*
X2144Y159D01*
X2144Y157D01*
X2146Y157D01*
X2146Y155D01*
X2170Y155D01*
X2170Y157D01*
X2174Y157D01*
X2174Y159D01*
X2176Y159D01*
X2176Y161D01*
X2180Y161D01*
X2180Y163D01*
X2186Y163D01*
X2186Y165D01*
X2194Y165D01*
X2194Y167D01*
X2124Y167D01*
G37*
D02*
G36*
X2224Y167D02*
X2224Y165D01*
X2232Y165D01*
X2232Y163D01*
X2236Y163D01*
X2236Y161D01*
X2240Y161D01*
X2240Y159D01*
X2244Y159D01*
X2244Y157D01*
X2246Y157D01*
X2246Y155D01*
X2270Y155D01*
X2270Y157D01*
X2274Y157D01*
X2274Y159D01*
X2276Y159D01*
X2276Y161D01*
X2280Y161D01*
X2280Y163D01*
X2286Y163D01*
X2286Y165D01*
X2294Y165D01*
X2294Y167D01*
X2224Y167D01*
G37*
D02*
G36*
X2324Y167D02*
X2324Y165D01*
X2332Y165D01*
X2332Y163D01*
X2336Y163D01*
X2336Y161D01*
X2340Y161D01*
X2340Y159D01*
X2344Y159D01*
X2344Y157D01*
X2346Y157D01*
X2346Y155D01*
X2370Y155D01*
X2370Y157D01*
X2374Y157D01*
X2374Y159D01*
X2376Y159D01*
X2376Y161D01*
X2380Y161D01*
X2380Y163D01*
X2386Y163D01*
X2386Y165D01*
X2394Y165D01*
X2394Y167D01*
X2324Y167D01*
G37*
D02*
G36*
X2424Y167D02*
X2424Y165D01*
X2432Y165D01*
X2432Y163D01*
X2436Y163D01*
X2436Y161D01*
X2440Y161D01*
X2440Y159D01*
X2444Y159D01*
X2444Y157D01*
X2446Y157D01*
X2446Y155D01*
X2470Y155D01*
X2470Y157D01*
X2474Y157D01*
X2474Y159D01*
X2476Y159D01*
X2476Y161D01*
X2480Y161D01*
X2480Y163D01*
X2486Y163D01*
X2486Y165D01*
X2494Y165D01*
X2494Y167D01*
X2424Y167D01*
G37*
D02*
G36*
X1587Y171D02*
X1624Y171D01*
X1624Y117D01*
X1587Y117D01*
X1587Y171D01*
G37*
D02*
G36*
X1587Y83D02*
X1624Y83D01*
X1624Y1D01*
X1587Y1D01*
X1587Y83D01*
G37*
D02*
G36*
X1687Y171D02*
X1724Y171D01*
X1724Y117D01*
X1687Y117D01*
X1687Y171D01*
G37*
D02*
G36*
X1687Y83D02*
X1724Y83D01*
X1724Y1D01*
X1687Y1D01*
X1687Y83D01*
G37*
D02*
G36*
X1886Y1471D02*
X1925Y1471D01*
X1925Y1419D01*
X1886Y1419D01*
X1886Y1471D01*
G37*
D02*
G36*
X1886Y1381D02*
X1925Y1381D01*
X1925Y1325D01*
X1886Y1325D01*
X1886Y1381D01*
G37*
D02*
G36*
X1188Y1471D02*
X1227Y1471D01*
X1227Y1419D01*
X1188Y1419D01*
X1188Y1471D01*
G37*
D02*
G36*
X1134Y1419D02*
X1188Y1419D01*
X1188Y1380D01*
X1134Y1380D01*
X1134Y1419D01*
G37*
D02*
G36*
X488Y1471D02*
X527Y1471D01*
X527Y1419D01*
X488Y1419D01*
X488Y1471D01*
G37*
D02*
G36*
X434Y1419D02*
X488Y1419D01*
X488Y1380D01*
X434Y1380D01*
X434Y1419D01*
G37*
D02*
G54D17*
X1019Y2101D02*
X1055Y2101D01*
X1019Y2100D02*
X1055Y2100D01*
X1019Y2099D02*
X1055Y2099D01*
X1019Y2098D02*
X1055Y2098D01*
X1019Y2097D02*
X1055Y2097D01*
X1019Y2096D02*
X1055Y2096D01*
X1019Y2095D02*
X1055Y2095D01*
X1019Y2094D02*
X1055Y2094D01*
X1019Y2093D02*
X1055Y2093D01*
X1019Y2092D02*
X1055Y2092D01*
X1019Y2091D02*
X1055Y2091D01*
X1019Y2090D02*
X1055Y2090D01*
X1019Y2089D02*
X1055Y2089D01*
X1019Y2088D02*
X1055Y2088D01*
X1019Y2087D02*
X1055Y2087D01*
X1019Y2086D02*
X1055Y2086D01*
X1019Y2085D02*
X1055Y2085D01*
X1019Y2084D02*
X1055Y2084D01*
X1019Y2083D02*
X1055Y2083D01*
X1019Y2082D02*
X1055Y2082D01*
X1019Y2081D02*
X1055Y2081D01*
X1019Y2080D02*
X1055Y2080D01*
X1019Y2079D02*
X1055Y2079D01*
X1019Y2078D02*
X1055Y2078D01*
X1019Y2077D02*
X1055Y2077D01*
X1019Y2076D02*
X1055Y2076D01*
X1019Y2075D02*
X1055Y2075D01*
X1019Y2074D02*
X1055Y2074D01*
X1019Y2073D02*
X1055Y2073D01*
X1019Y2072D02*
X1055Y2072D01*
X1019Y2071D02*
X1055Y2071D01*
X1019Y2070D02*
X1055Y2070D01*
X1019Y2069D02*
X1055Y2069D01*
X1019Y2068D02*
X1055Y2068D01*
X1019Y2067D02*
X1055Y2067D01*
X1019Y2066D02*
X1055Y2066D01*
X1019Y2065D02*
X1055Y2065D01*
X1019Y2064D02*
X1055Y2064D01*
X1019Y2063D02*
X1055Y2063D01*
X1019Y2062D02*
X1055Y2062D01*
X1019Y2061D02*
X1055Y2061D01*
X1019Y2060D02*
X1055Y2060D01*
X1019Y2059D02*
X1055Y2059D01*
X1019Y2058D02*
X1055Y2058D01*
X1019Y2057D02*
X1055Y2057D01*
X1019Y2056D02*
X1055Y2056D01*
X1019Y2055D02*
X1055Y2055D01*
X1019Y2054D02*
X1055Y2054D01*
X1019Y2053D02*
X1055Y2053D01*
X1019Y2052D02*
X1055Y2052D01*
X1019Y2051D02*
X1055Y2051D01*
X1019Y2050D02*
X1055Y2050D01*
X1019Y2049D02*
X1055Y2049D01*
X1019Y2048D02*
X1055Y2048D01*
X1019Y2047D02*
X1055Y2047D01*
X1019Y2046D02*
X1055Y2046D01*
X1019Y2045D02*
X1055Y2045D01*
X1019Y2044D02*
X1055Y2044D01*
X1019Y2043D02*
X1055Y2043D01*
X1019Y2042D02*
X1055Y2042D01*
X1019Y2041D02*
X1055Y2041D01*
X1019Y2040D02*
X1055Y2040D01*
X1019Y2039D02*
X1055Y2039D01*
X1019Y2038D02*
X1055Y2038D01*
X1019Y2037D02*
X1055Y2037D01*
X1019Y2036D02*
X1055Y2036D01*
X1019Y2035D02*
X1055Y2035D01*
X1019Y2034D02*
X1055Y2034D01*
X1019Y2033D02*
X1055Y2033D01*
X1019Y2032D02*
X1055Y2032D01*
X1019Y2031D02*
X1055Y2031D01*
X1019Y2030D02*
X1055Y2030D01*
X1019Y2029D02*
X1055Y2029D01*
X1019Y2028D02*
X1055Y2028D01*
X1019Y2027D02*
X1055Y2027D01*
X1019Y2026D02*
X1055Y2026D01*
X1019Y2025D02*
X1055Y2025D01*
X1019Y2024D02*
X1055Y2024D01*
X1019Y2023D02*
X1055Y2023D01*
X1019Y2022D02*
X1055Y2022D01*
X1019Y2021D02*
X1055Y2021D01*
X1019Y2020D02*
X1055Y2020D01*
X1019Y2019D02*
X1055Y2019D01*
X1019Y2018D02*
X1055Y2018D01*
X1019Y2017D02*
X1055Y2017D01*
X1019Y2016D02*
X1055Y2016D01*
D02*
G04 End of Copper1*
M02*