G04 MADE WITH FRITZING*
G04 WWW.FRITZING.ORG*
G04 DOUBLE SIDED*
G04 HOLES PLATED*
G04 CONTOUR ON CENTER OF CONTOUR VECTOR*
%ASAXBY*%
%FSLAX23Y23*%
%MOIN*%
%OFA0B0*%
%SFA1.0B1.0*%
%ADD10C,0.075000*%
%ADD11C,0.075833*%
%ADD12C,0.078000*%
%ADD13C,0.080000*%
%ADD14C,0.039370*%
%ADD15R,0.075000X0.075000*%
%ADD16R,0.080000X0.080000*%
%ADD17C,0.024000*%
%ADD18R,0.001000X0.001000*%
%LNCOPPER0*%
G90*
G70*
G54D10*
X1405Y1893D03*
X1864Y842D03*
X1825Y2597D03*
G54D11*
X1994Y1987D03*
X1994Y1887D03*
X1994Y1780D03*
X1994Y1680D03*
X1994Y1580D03*
X1994Y1480D03*
X1994Y1380D03*
X1994Y1280D03*
X1994Y1180D03*
X1994Y1080D03*
X1994Y910D03*
X1994Y810D03*
X1994Y710D03*
X1994Y610D03*
X1994Y510D03*
X1994Y410D03*
X1994Y310D03*
X1994Y210D03*
X94Y1610D03*
X94Y1510D03*
X94Y1410D03*
X94Y1310D03*
X94Y1210D03*
X94Y1110D03*
X94Y1010D03*
X94Y910D03*
X94Y710D03*
X94Y610D03*
X94Y510D03*
X94Y410D03*
X94Y310D03*
X94Y210D03*
G54D10*
X1394Y1210D03*
X1694Y1210D03*
X1394Y1110D03*
X1694Y1110D03*
X1394Y1010D03*
X1694Y1010D03*
X1394Y910D03*
X1694Y910D03*
X1394Y810D03*
X1694Y810D03*
X1394Y710D03*
X1694Y710D03*
X1394Y610D03*
X1694Y610D03*
X1394Y510D03*
X1694Y510D03*
G54D12*
X394Y2310D03*
X394Y2410D03*
X394Y2510D03*
X1094Y2310D03*
X1094Y2410D03*
X1094Y2510D03*
X394Y1710D03*
X394Y1810D03*
X394Y1910D03*
X1094Y1710D03*
X1094Y1810D03*
X1094Y1910D03*
X394Y1110D03*
X394Y1210D03*
X394Y1310D03*
X1094Y1110D03*
X1094Y1210D03*
X1094Y1310D03*
X394Y510D03*
X394Y610D03*
X394Y710D03*
X1094Y510D03*
X1094Y610D03*
X1094Y710D03*
G54D13*
X1411Y169D03*
X1273Y169D03*
X1081Y169D03*
X943Y169D03*
X753Y169D03*
X615Y169D03*
X424Y169D03*
X286Y169D03*
G54D14*
X1494Y1610D03*
X1294Y810D03*
G54D15*
X1394Y1210D03*
G54D16*
X1411Y169D03*
X1081Y169D03*
X753Y169D03*
X424Y169D03*
G54D17*
X1394Y539D02*
X1394Y581D01*
D02*
X1394Y639D02*
X1394Y681D01*
D02*
X794Y710D02*
X1064Y710D01*
D02*
X794Y1310D02*
X794Y710D01*
D02*
X1064Y1310D02*
X794Y1310D01*
D02*
X794Y1310D02*
X794Y1910D01*
D02*
X794Y1910D02*
X1064Y1910D01*
D02*
X1064Y1310D02*
X794Y1310D01*
D02*
X1894Y1810D02*
X1194Y2210D01*
D02*
X1894Y1680D02*
X1894Y1810D01*
D02*
X1194Y2210D02*
X1194Y2410D01*
D02*
X1194Y2410D02*
X1115Y2489D01*
D02*
X1966Y1680D02*
X1894Y1680D01*
D02*
X994Y2310D02*
X1073Y2389D01*
D02*
X1294Y1010D02*
X1294Y2010D01*
D02*
X1294Y2010D02*
X994Y2210D01*
D02*
X994Y2210D02*
X994Y2310D01*
D02*
X1374Y930D02*
X1294Y1010D01*
D02*
X794Y1910D02*
X794Y2210D01*
D02*
X794Y2210D02*
X1073Y2489D01*
D02*
X1064Y1910D02*
X794Y1910D01*
D02*
X1094Y2210D02*
X1094Y2280D01*
D02*
X1594Y710D02*
X1594Y1910D01*
D02*
X1594Y1910D02*
X1094Y2210D01*
D02*
X1665Y710D02*
X1594Y710D01*
D02*
X1194Y1010D02*
X1194Y1110D01*
D02*
X1374Y830D02*
X1194Y1010D01*
D02*
X1194Y1110D02*
X1115Y1189D01*
D02*
X1966Y510D02*
X1723Y510D01*
D02*
X1365Y710D02*
X1124Y710D01*
D02*
X1794Y910D02*
X1723Y910D01*
D02*
X1894Y1180D02*
X1794Y910D01*
D02*
X1966Y1180D02*
X1894Y1180D01*
D02*
X1494Y1591D02*
X1494Y1010D01*
D02*
X1494Y1010D02*
X1423Y1010D01*
D02*
X594Y710D02*
X294Y1010D01*
D02*
X294Y1010D02*
X122Y1010D01*
D02*
X794Y710D02*
X594Y710D01*
D02*
X1281Y824D02*
X1094Y1010D01*
D02*
X1094Y1010D02*
X1094Y1080D01*
G36*
X1338Y1997D02*
X1338Y1661D01*
X1512Y1661D01*
X1512Y1659D01*
X1516Y1659D01*
X1516Y1657D01*
X1520Y1657D01*
X1520Y1655D01*
X1522Y1655D01*
X1522Y1653D01*
X1526Y1653D01*
X1526Y1651D01*
X1528Y1651D01*
X1528Y1649D01*
X1530Y1649D01*
X1530Y1647D01*
X1550Y1647D01*
X1550Y1883D01*
X1546Y1883D01*
X1546Y1885D01*
X1544Y1885D01*
X1544Y1887D01*
X1540Y1887D01*
X1540Y1889D01*
X1536Y1889D01*
X1536Y1891D01*
X1534Y1891D01*
X1534Y1893D01*
X1530Y1893D01*
X1530Y1895D01*
X1526Y1895D01*
X1526Y1897D01*
X1524Y1897D01*
X1524Y1899D01*
X1520Y1899D01*
X1520Y1901D01*
X1516Y1901D01*
X1516Y1903D01*
X1514Y1903D01*
X1514Y1905D01*
X1510Y1905D01*
X1510Y1907D01*
X1506Y1907D01*
X1506Y1909D01*
X1504Y1909D01*
X1504Y1911D01*
X1500Y1911D01*
X1500Y1913D01*
X1496Y1913D01*
X1496Y1915D01*
X1494Y1915D01*
X1494Y1917D01*
X1490Y1917D01*
X1490Y1919D01*
X1486Y1919D01*
X1486Y1921D01*
X1484Y1921D01*
X1484Y1923D01*
X1480Y1923D01*
X1480Y1925D01*
X1476Y1925D01*
X1476Y1927D01*
X1474Y1927D01*
X1474Y1929D01*
X1470Y1929D01*
X1470Y1931D01*
X1466Y1931D01*
X1466Y1933D01*
X1464Y1933D01*
X1464Y1935D01*
X1460Y1935D01*
X1460Y1937D01*
X1456Y1937D01*
X1456Y1939D01*
X1454Y1939D01*
X1454Y1941D01*
X1450Y1941D01*
X1450Y1943D01*
X1446Y1943D01*
X1446Y1945D01*
X1444Y1945D01*
X1444Y1947D01*
X1440Y1947D01*
X1440Y1949D01*
X1436Y1949D01*
X1436Y1951D01*
X1434Y1951D01*
X1434Y1953D01*
X1430Y1953D01*
X1430Y1955D01*
X1426Y1955D01*
X1426Y1957D01*
X1424Y1957D01*
X1424Y1959D01*
X1420Y1959D01*
X1420Y1961D01*
X1416Y1961D01*
X1416Y1963D01*
X1414Y1963D01*
X1414Y1965D01*
X1410Y1965D01*
X1410Y1967D01*
X1406Y1967D01*
X1406Y1969D01*
X1404Y1969D01*
X1404Y1971D01*
X1400Y1971D01*
X1400Y1973D01*
X1396Y1973D01*
X1396Y1975D01*
X1394Y1975D01*
X1394Y1977D01*
X1390Y1977D01*
X1390Y1979D01*
X1386Y1979D01*
X1386Y1981D01*
X1384Y1981D01*
X1384Y1983D01*
X1380Y1983D01*
X1380Y1985D01*
X1376Y1985D01*
X1376Y1987D01*
X1374Y1987D01*
X1374Y1989D01*
X1370Y1989D01*
X1370Y1991D01*
X1366Y1991D01*
X1366Y1993D01*
X1364Y1993D01*
X1364Y1995D01*
X1360Y1995D01*
X1360Y1997D01*
X1338Y1997D01*
G37*
D02*
G36*
X1338Y1661D02*
X1338Y1279D01*
X1450Y1279D01*
X1450Y1583D01*
X1448Y1583D01*
X1448Y1587D01*
X1446Y1587D01*
X1446Y1591D01*
X1444Y1591D01*
X1444Y1597D01*
X1442Y1597D01*
X1442Y1623D01*
X1444Y1623D01*
X1444Y1629D01*
X1446Y1629D01*
X1446Y1633D01*
X1448Y1633D01*
X1448Y1637D01*
X1450Y1637D01*
X1450Y1641D01*
X1452Y1641D01*
X1452Y1643D01*
X1454Y1643D01*
X1454Y1645D01*
X1456Y1645D01*
X1456Y1647D01*
X1458Y1647D01*
X1458Y1649D01*
X1460Y1649D01*
X1460Y1651D01*
X1462Y1651D01*
X1462Y1653D01*
X1466Y1653D01*
X1466Y1655D01*
X1468Y1655D01*
X1468Y1657D01*
X1472Y1657D01*
X1472Y1659D01*
X1476Y1659D01*
X1476Y1661D01*
X1338Y1661D01*
G37*
D02*
G36*
X1904Y1077D02*
X1904Y1071D01*
X1902Y1071D01*
X1902Y1067D01*
X1900Y1067D01*
X1900Y1061D01*
X1898Y1061D01*
X1898Y1055D01*
X1896Y1055D01*
X1896Y1051D01*
X1894Y1051D01*
X1894Y1045D01*
X1892Y1045D01*
X1892Y1039D01*
X1890Y1039D01*
X1890Y1035D01*
X1888Y1035D01*
X1888Y1029D01*
X1886Y1029D01*
X1886Y1023D01*
X1884Y1023D01*
X1884Y1017D01*
X1882Y1017D01*
X1882Y1013D01*
X1880Y1013D01*
X1880Y1011D01*
X1974Y1011D01*
X1974Y1013D01*
X1968Y1013D01*
X1968Y1015D01*
X1964Y1015D01*
X1964Y1017D01*
X1960Y1017D01*
X1960Y1019D01*
X1958Y1019D01*
X1958Y1021D01*
X1954Y1021D01*
X1954Y1023D01*
X1952Y1023D01*
X1952Y1025D01*
X1950Y1025D01*
X1950Y1027D01*
X1946Y1027D01*
X1946Y1029D01*
X1944Y1029D01*
X1944Y1031D01*
X1942Y1031D01*
X1942Y1035D01*
X1940Y1035D01*
X1940Y1037D01*
X1938Y1037D01*
X1938Y1039D01*
X1936Y1039D01*
X1936Y1041D01*
X1934Y1041D01*
X1934Y1045D01*
X1932Y1045D01*
X1932Y1049D01*
X1930Y1049D01*
X1930Y1053D01*
X1928Y1053D01*
X1928Y1057D01*
X1926Y1057D01*
X1926Y1065D01*
X1924Y1065D01*
X1924Y1077D01*
X1904Y1077D01*
G37*
D02*
G36*
X2030Y1021D02*
X2030Y1019D01*
X2028Y1019D01*
X2028Y1017D01*
X2024Y1017D01*
X2024Y1015D01*
X2020Y1015D01*
X2020Y1013D01*
X2014Y1013D01*
X2014Y1011D01*
X2050Y1011D01*
X2050Y1021D01*
X2030Y1021D01*
G37*
D02*
G36*
X1880Y1011D02*
X1880Y1009D01*
X2050Y1009D01*
X2050Y1011D01*
X1880Y1011D01*
G37*
D02*
G36*
X1880Y1011D02*
X1880Y1009D01*
X2050Y1009D01*
X2050Y1011D01*
X1880Y1011D01*
G37*
D02*
G36*
X1880Y1009D02*
X1880Y1007D01*
X1878Y1007D01*
X1878Y1001D01*
X1876Y1001D01*
X1876Y997D01*
X1874Y997D01*
X1874Y991D01*
X1872Y991D01*
X1872Y985D01*
X1870Y985D01*
X1870Y981D01*
X1868Y981D01*
X1868Y979D01*
X2014Y979D01*
X2014Y977D01*
X2020Y977D01*
X2020Y975D01*
X2024Y975D01*
X2024Y973D01*
X2028Y973D01*
X2028Y971D01*
X2050Y971D01*
X2050Y1009D01*
X1880Y1009D01*
G37*
D02*
G36*
X1868Y979D02*
X1868Y975D01*
X1866Y975D01*
X1866Y969D01*
X1864Y969D01*
X1864Y963D01*
X1862Y963D01*
X1862Y959D01*
X1860Y959D01*
X1860Y953D01*
X1858Y953D01*
X1858Y947D01*
X1856Y947D01*
X1856Y943D01*
X1854Y943D01*
X1854Y937D01*
X1852Y937D01*
X1852Y931D01*
X1850Y931D01*
X1850Y927D01*
X1848Y927D01*
X1848Y921D01*
X1846Y921D01*
X1846Y915D01*
X1844Y915D01*
X1844Y909D01*
X1842Y909D01*
X1842Y905D01*
X1840Y905D01*
X1840Y899D01*
X1838Y899D01*
X1838Y893D01*
X1836Y893D01*
X1836Y889D01*
X1834Y889D01*
X1834Y885D01*
X1832Y885D01*
X1832Y881D01*
X1830Y881D01*
X1830Y879D01*
X1828Y879D01*
X1828Y877D01*
X1826Y877D01*
X1826Y875D01*
X1824Y875D01*
X1824Y873D01*
X1822Y873D01*
X1822Y871D01*
X1818Y871D01*
X1818Y869D01*
X1812Y869D01*
X1812Y867D01*
X1752Y867D01*
X1752Y847D01*
X1754Y847D01*
X1754Y845D01*
X1756Y845D01*
X1756Y841D01*
X1758Y841D01*
X1758Y837D01*
X1760Y837D01*
X1760Y831D01*
X1762Y831D01*
X1762Y823D01*
X1764Y823D01*
X1764Y797D01*
X1762Y797D01*
X1762Y789D01*
X1760Y789D01*
X1760Y783D01*
X1758Y783D01*
X1758Y779D01*
X1756Y779D01*
X1756Y775D01*
X1754Y775D01*
X1754Y773D01*
X1752Y773D01*
X1752Y747D01*
X1754Y747D01*
X1754Y745D01*
X1756Y745D01*
X1756Y741D01*
X1758Y741D01*
X1758Y737D01*
X1760Y737D01*
X1760Y731D01*
X1762Y731D01*
X1762Y723D01*
X1764Y723D01*
X1764Y697D01*
X1762Y697D01*
X1762Y689D01*
X1760Y689D01*
X1760Y683D01*
X1758Y683D01*
X1758Y679D01*
X1756Y679D01*
X1756Y675D01*
X1754Y675D01*
X1754Y673D01*
X1752Y673D01*
X1752Y647D01*
X1754Y647D01*
X1754Y645D01*
X1756Y645D01*
X1756Y641D01*
X1758Y641D01*
X1758Y637D01*
X1760Y637D01*
X1760Y631D01*
X1762Y631D01*
X1762Y623D01*
X1764Y623D01*
X1764Y597D01*
X1762Y597D01*
X1762Y589D01*
X1760Y589D01*
X1760Y583D01*
X1758Y583D01*
X1758Y579D01*
X1756Y579D01*
X1756Y575D01*
X1754Y575D01*
X1754Y555D01*
X1934Y555D01*
X1934Y575D01*
X1932Y575D01*
X1932Y579D01*
X1930Y579D01*
X1930Y583D01*
X1928Y583D01*
X1928Y587D01*
X1926Y587D01*
X1926Y595D01*
X1924Y595D01*
X1924Y625D01*
X1926Y625D01*
X1926Y633D01*
X1928Y633D01*
X1928Y639D01*
X1930Y639D01*
X1930Y643D01*
X1932Y643D01*
X1932Y645D01*
X1934Y645D01*
X1934Y649D01*
X1936Y649D01*
X1936Y671D01*
X1934Y671D01*
X1934Y675D01*
X1932Y675D01*
X1932Y679D01*
X1930Y679D01*
X1930Y683D01*
X1928Y683D01*
X1928Y687D01*
X1926Y687D01*
X1926Y695D01*
X1924Y695D01*
X1924Y725D01*
X1926Y725D01*
X1926Y733D01*
X1928Y733D01*
X1928Y737D01*
X1930Y737D01*
X1930Y743D01*
X1932Y743D01*
X1932Y745D01*
X1934Y745D01*
X1934Y749D01*
X1936Y749D01*
X1936Y771D01*
X1934Y771D01*
X1934Y775D01*
X1932Y775D01*
X1932Y779D01*
X1930Y779D01*
X1930Y783D01*
X1928Y783D01*
X1928Y787D01*
X1926Y787D01*
X1926Y795D01*
X1924Y795D01*
X1924Y825D01*
X1926Y825D01*
X1926Y833D01*
X1928Y833D01*
X1928Y837D01*
X1930Y837D01*
X1930Y843D01*
X1932Y843D01*
X1932Y845D01*
X1934Y845D01*
X1934Y849D01*
X1936Y849D01*
X1936Y871D01*
X1934Y871D01*
X1934Y875D01*
X1932Y875D01*
X1932Y879D01*
X1930Y879D01*
X1930Y883D01*
X1928Y883D01*
X1928Y887D01*
X1926Y887D01*
X1926Y895D01*
X1924Y895D01*
X1924Y925D01*
X1926Y925D01*
X1926Y933D01*
X1928Y933D01*
X1928Y937D01*
X1930Y937D01*
X1930Y943D01*
X1932Y943D01*
X1932Y945D01*
X1934Y945D01*
X1934Y949D01*
X1936Y949D01*
X1936Y951D01*
X1938Y951D01*
X1938Y953D01*
X1940Y953D01*
X1940Y957D01*
X1942Y957D01*
X1942Y959D01*
X1944Y959D01*
X1944Y961D01*
X1946Y961D01*
X1946Y963D01*
X1948Y963D01*
X1948Y965D01*
X1952Y965D01*
X1952Y967D01*
X1954Y967D01*
X1954Y969D01*
X1956Y969D01*
X1956Y971D01*
X1960Y971D01*
X1960Y973D01*
X1964Y973D01*
X1964Y975D01*
X1968Y975D01*
X1968Y977D01*
X1974Y977D01*
X1974Y979D01*
X1868Y979D01*
G37*
D02*
G36*
X52Y2673D02*
X52Y2581D01*
X1110Y2581D01*
X1110Y2579D01*
X1118Y2579D01*
X1118Y2577D01*
X1122Y2577D01*
X1122Y2575D01*
X1126Y2575D01*
X1126Y2573D01*
X1130Y2573D01*
X1130Y2571D01*
X1134Y2571D01*
X1134Y2569D01*
X1136Y2569D01*
X1136Y2567D01*
X1138Y2567D01*
X1138Y2565D01*
X1140Y2565D01*
X1140Y2563D01*
X1142Y2563D01*
X1142Y2561D01*
X1144Y2561D01*
X1144Y2559D01*
X1146Y2559D01*
X1146Y2557D01*
X1148Y2557D01*
X1148Y2555D01*
X1150Y2555D01*
X1150Y2553D01*
X1152Y2553D01*
X1152Y2551D01*
X1154Y2551D01*
X1154Y2547D01*
X1156Y2547D01*
X1156Y2545D01*
X1158Y2545D01*
X1158Y2541D01*
X1160Y2541D01*
X1160Y2537D01*
X1162Y2537D01*
X1162Y2531D01*
X1164Y2531D01*
X1164Y2489D01*
X1162Y2489D01*
X1162Y2485D01*
X1160Y2485D01*
X1160Y2479D01*
X1158Y2479D01*
X1158Y2475D01*
X1156Y2475D01*
X1156Y2473D01*
X1154Y2473D01*
X1154Y2447D01*
X1156Y2447D01*
X1156Y2445D01*
X1158Y2445D01*
X1158Y2441D01*
X1160Y2441D01*
X1160Y2437D01*
X1162Y2437D01*
X1162Y2431D01*
X1164Y2431D01*
X1164Y2389D01*
X1162Y2389D01*
X1162Y2385D01*
X1160Y2385D01*
X1160Y2379D01*
X1158Y2379D01*
X1158Y2375D01*
X1156Y2375D01*
X1156Y2373D01*
X1154Y2373D01*
X1154Y2347D01*
X1156Y2347D01*
X1156Y2345D01*
X1158Y2345D01*
X1158Y2341D01*
X1160Y2341D01*
X1160Y2337D01*
X1162Y2337D01*
X1162Y2331D01*
X1164Y2331D01*
X1164Y2293D01*
X1232Y2293D01*
X1232Y2673D01*
X52Y2673D01*
G37*
D02*
G36*
X1752Y2673D02*
X1752Y2293D01*
X2050Y2293D01*
X2050Y2673D01*
X1752Y2673D01*
G37*
D02*
G36*
X52Y2581D02*
X52Y2239D01*
X378Y2239D01*
X378Y2241D01*
X370Y2241D01*
X370Y2243D01*
X366Y2243D01*
X366Y2245D01*
X362Y2245D01*
X362Y2247D01*
X358Y2247D01*
X358Y2249D01*
X356Y2249D01*
X356Y2251D01*
X352Y2251D01*
X352Y2253D01*
X350Y2253D01*
X350Y2255D01*
X348Y2255D01*
X348Y2257D01*
X346Y2257D01*
X346Y2259D01*
X344Y2259D01*
X344Y2261D01*
X342Y2261D01*
X342Y2263D01*
X340Y2263D01*
X340Y2265D01*
X338Y2265D01*
X338Y2267D01*
X336Y2267D01*
X336Y2269D01*
X334Y2269D01*
X334Y2273D01*
X332Y2273D01*
X332Y2275D01*
X330Y2275D01*
X330Y2279D01*
X328Y2279D01*
X328Y2285D01*
X326Y2285D01*
X326Y2289D01*
X324Y2289D01*
X324Y2331D01*
X326Y2331D01*
X326Y2337D01*
X328Y2337D01*
X328Y2341D01*
X330Y2341D01*
X330Y2345D01*
X332Y2345D01*
X332Y2347D01*
X334Y2347D01*
X334Y2373D01*
X332Y2373D01*
X332Y2375D01*
X330Y2375D01*
X330Y2379D01*
X328Y2379D01*
X328Y2385D01*
X326Y2385D01*
X326Y2389D01*
X324Y2389D01*
X324Y2431D01*
X326Y2431D01*
X326Y2437D01*
X328Y2437D01*
X328Y2441D01*
X330Y2441D01*
X330Y2445D01*
X332Y2445D01*
X332Y2447D01*
X334Y2447D01*
X334Y2473D01*
X332Y2473D01*
X332Y2475D01*
X330Y2475D01*
X330Y2479D01*
X328Y2479D01*
X328Y2485D01*
X326Y2485D01*
X326Y2489D01*
X324Y2489D01*
X324Y2531D01*
X326Y2531D01*
X326Y2537D01*
X328Y2537D01*
X328Y2541D01*
X330Y2541D01*
X330Y2545D01*
X332Y2545D01*
X332Y2547D01*
X334Y2547D01*
X334Y2551D01*
X336Y2551D01*
X336Y2553D01*
X338Y2553D01*
X338Y2555D01*
X340Y2555D01*
X340Y2557D01*
X342Y2557D01*
X342Y2559D01*
X344Y2559D01*
X344Y2561D01*
X346Y2561D01*
X346Y2563D01*
X348Y2563D01*
X348Y2565D01*
X350Y2565D01*
X350Y2567D01*
X352Y2567D01*
X352Y2569D01*
X354Y2569D01*
X354Y2571D01*
X358Y2571D01*
X358Y2573D01*
X362Y2573D01*
X362Y2575D01*
X366Y2575D01*
X366Y2577D01*
X370Y2577D01*
X370Y2579D01*
X378Y2579D01*
X378Y2581D01*
X52Y2581D01*
G37*
D02*
G36*
X410Y2581D02*
X410Y2579D01*
X418Y2579D01*
X418Y2577D01*
X422Y2577D01*
X422Y2575D01*
X426Y2575D01*
X426Y2573D01*
X430Y2573D01*
X430Y2571D01*
X434Y2571D01*
X434Y2569D01*
X436Y2569D01*
X436Y2567D01*
X438Y2567D01*
X438Y2565D01*
X440Y2565D01*
X440Y2563D01*
X442Y2563D01*
X442Y2561D01*
X444Y2561D01*
X444Y2559D01*
X446Y2559D01*
X446Y2557D01*
X448Y2557D01*
X448Y2555D01*
X450Y2555D01*
X450Y2553D01*
X452Y2553D01*
X452Y2551D01*
X454Y2551D01*
X454Y2547D01*
X456Y2547D01*
X456Y2545D01*
X458Y2545D01*
X458Y2541D01*
X460Y2541D01*
X460Y2537D01*
X462Y2537D01*
X462Y2531D01*
X464Y2531D01*
X464Y2519D01*
X466Y2519D01*
X466Y2503D01*
X464Y2503D01*
X464Y2489D01*
X462Y2489D01*
X462Y2485D01*
X460Y2485D01*
X460Y2479D01*
X458Y2479D01*
X458Y2475D01*
X456Y2475D01*
X456Y2473D01*
X454Y2473D01*
X454Y2447D01*
X456Y2447D01*
X456Y2445D01*
X458Y2445D01*
X458Y2441D01*
X460Y2441D01*
X460Y2437D01*
X462Y2437D01*
X462Y2431D01*
X464Y2431D01*
X464Y2419D01*
X466Y2419D01*
X466Y2403D01*
X464Y2403D01*
X464Y2389D01*
X462Y2389D01*
X462Y2385D01*
X460Y2385D01*
X460Y2379D01*
X458Y2379D01*
X458Y2375D01*
X456Y2375D01*
X456Y2373D01*
X454Y2373D01*
X454Y2347D01*
X456Y2347D01*
X456Y2345D01*
X458Y2345D01*
X458Y2341D01*
X460Y2341D01*
X460Y2337D01*
X462Y2337D01*
X462Y2331D01*
X464Y2331D01*
X464Y2319D01*
X466Y2319D01*
X466Y2303D01*
X464Y2303D01*
X464Y2289D01*
X462Y2289D01*
X462Y2285D01*
X460Y2285D01*
X460Y2279D01*
X458Y2279D01*
X458Y2275D01*
X456Y2275D01*
X456Y2273D01*
X454Y2273D01*
X454Y2269D01*
X452Y2269D01*
X452Y2267D01*
X450Y2267D01*
X450Y2265D01*
X448Y2265D01*
X448Y2263D01*
X446Y2263D01*
X446Y2261D01*
X444Y2261D01*
X444Y2259D01*
X442Y2259D01*
X442Y2257D01*
X440Y2257D01*
X440Y2255D01*
X438Y2255D01*
X438Y2253D01*
X436Y2253D01*
X436Y2251D01*
X432Y2251D01*
X432Y2249D01*
X430Y2249D01*
X430Y2247D01*
X426Y2247D01*
X426Y2245D01*
X422Y2245D01*
X422Y2243D01*
X418Y2243D01*
X418Y2241D01*
X410Y2241D01*
X410Y2239D01*
X950Y2239D01*
X950Y2325D01*
X952Y2325D01*
X952Y2331D01*
X954Y2331D01*
X954Y2335D01*
X956Y2335D01*
X956Y2339D01*
X958Y2339D01*
X958Y2341D01*
X960Y2341D01*
X960Y2343D01*
X962Y2343D01*
X962Y2345D01*
X964Y2345D01*
X964Y2347D01*
X966Y2347D01*
X966Y2349D01*
X968Y2349D01*
X968Y2351D01*
X970Y2351D01*
X970Y2353D01*
X972Y2353D01*
X972Y2355D01*
X974Y2355D01*
X974Y2357D01*
X976Y2357D01*
X976Y2359D01*
X978Y2359D01*
X978Y2361D01*
X980Y2361D01*
X980Y2363D01*
X982Y2363D01*
X982Y2365D01*
X984Y2365D01*
X984Y2367D01*
X986Y2367D01*
X986Y2369D01*
X988Y2369D01*
X988Y2371D01*
X990Y2371D01*
X990Y2373D01*
X992Y2373D01*
X992Y2375D01*
X994Y2375D01*
X994Y2377D01*
X996Y2377D01*
X996Y2379D01*
X998Y2379D01*
X998Y2381D01*
X1000Y2381D01*
X1000Y2383D01*
X1002Y2383D01*
X1002Y2385D01*
X1004Y2385D01*
X1004Y2387D01*
X1006Y2387D01*
X1006Y2389D01*
X1008Y2389D01*
X1008Y2391D01*
X1010Y2391D01*
X1010Y2393D01*
X1012Y2393D01*
X1012Y2395D01*
X1014Y2395D01*
X1014Y2397D01*
X1016Y2397D01*
X1016Y2399D01*
X1018Y2399D01*
X1018Y2401D01*
X1020Y2401D01*
X1020Y2403D01*
X1022Y2403D01*
X1022Y2405D01*
X1024Y2405D01*
X1024Y2431D01*
X1026Y2431D01*
X1026Y2437D01*
X1028Y2437D01*
X1028Y2441D01*
X1030Y2441D01*
X1030Y2445D01*
X1032Y2445D01*
X1032Y2447D01*
X1034Y2447D01*
X1034Y2473D01*
X1032Y2473D01*
X1032Y2475D01*
X1030Y2475D01*
X1030Y2479D01*
X1028Y2479D01*
X1028Y2485D01*
X1026Y2485D01*
X1026Y2489D01*
X1024Y2489D01*
X1024Y2531D01*
X1026Y2531D01*
X1026Y2537D01*
X1028Y2537D01*
X1028Y2541D01*
X1030Y2541D01*
X1030Y2545D01*
X1032Y2545D01*
X1032Y2547D01*
X1034Y2547D01*
X1034Y2551D01*
X1036Y2551D01*
X1036Y2553D01*
X1038Y2553D01*
X1038Y2555D01*
X1040Y2555D01*
X1040Y2557D01*
X1042Y2557D01*
X1042Y2559D01*
X1044Y2559D01*
X1044Y2561D01*
X1046Y2561D01*
X1046Y2563D01*
X1048Y2563D01*
X1048Y2565D01*
X1050Y2565D01*
X1050Y2567D01*
X1052Y2567D01*
X1052Y2569D01*
X1054Y2569D01*
X1054Y2571D01*
X1058Y2571D01*
X1058Y2573D01*
X1062Y2573D01*
X1062Y2575D01*
X1066Y2575D01*
X1066Y2577D01*
X1070Y2577D01*
X1070Y2579D01*
X1078Y2579D01*
X1078Y2581D01*
X410Y2581D01*
G37*
D02*
G36*
X1164Y2293D02*
X1164Y2291D01*
X2050Y2291D01*
X2050Y2293D01*
X1164Y2293D01*
G37*
D02*
G36*
X1164Y2293D02*
X1164Y2291D01*
X2050Y2291D01*
X2050Y2293D01*
X1164Y2293D01*
G37*
D02*
G36*
X1164Y2291D02*
X1164Y2289D01*
X1162Y2289D01*
X1162Y2285D01*
X1160Y2285D01*
X1160Y2279D01*
X1158Y2279D01*
X1158Y2275D01*
X1156Y2275D01*
X1156Y2273D01*
X1154Y2273D01*
X1154Y2269D01*
X1152Y2269D01*
X1152Y2267D01*
X1150Y2267D01*
X1150Y2265D01*
X1148Y2265D01*
X1148Y2263D01*
X1146Y2263D01*
X1146Y2261D01*
X1144Y2261D01*
X1144Y2259D01*
X1142Y2259D01*
X1142Y2257D01*
X1140Y2257D01*
X1140Y2237D01*
X1142Y2237D01*
X1142Y2235D01*
X1144Y2235D01*
X1144Y2233D01*
X1148Y2233D01*
X1148Y2231D01*
X1152Y2231D01*
X1152Y2229D01*
X1154Y2229D01*
X1154Y2227D01*
X1158Y2227D01*
X1158Y2225D01*
X1162Y2225D01*
X1162Y2223D01*
X1164Y2223D01*
X1164Y2221D01*
X1168Y2221D01*
X1168Y2219D01*
X1172Y2219D01*
X1172Y2217D01*
X1174Y2217D01*
X1174Y2215D01*
X1178Y2215D01*
X1178Y2213D01*
X1182Y2213D01*
X1182Y2211D01*
X1184Y2211D01*
X1184Y2209D01*
X1188Y2209D01*
X1188Y2207D01*
X1192Y2207D01*
X1192Y2205D01*
X1194Y2205D01*
X1194Y2203D01*
X1198Y2203D01*
X1198Y2201D01*
X1202Y2201D01*
X1202Y2199D01*
X1204Y2199D01*
X1204Y2197D01*
X1208Y2197D01*
X1208Y2195D01*
X1212Y2195D01*
X1212Y2193D01*
X1214Y2193D01*
X1214Y2191D01*
X1218Y2191D01*
X1218Y2189D01*
X1222Y2189D01*
X1222Y2187D01*
X1224Y2187D01*
X1224Y2185D01*
X1228Y2185D01*
X1228Y2183D01*
X1232Y2183D01*
X1232Y2181D01*
X1234Y2181D01*
X1234Y2179D01*
X1238Y2179D01*
X1238Y2177D01*
X1242Y2177D01*
X1242Y2175D01*
X1244Y2175D01*
X1244Y2173D01*
X1248Y2173D01*
X1248Y2171D01*
X1252Y2171D01*
X1252Y2169D01*
X1254Y2169D01*
X1254Y2167D01*
X1258Y2167D01*
X1258Y2165D01*
X1262Y2165D01*
X1262Y2163D01*
X1264Y2163D01*
X1264Y2161D01*
X1268Y2161D01*
X1268Y2159D01*
X1272Y2159D01*
X1272Y2157D01*
X1274Y2157D01*
X1274Y2155D01*
X1278Y2155D01*
X1278Y2153D01*
X1282Y2153D01*
X1282Y2151D01*
X1284Y2151D01*
X1284Y2149D01*
X1288Y2149D01*
X1288Y2147D01*
X1292Y2147D01*
X1292Y2145D01*
X1294Y2145D01*
X1294Y2143D01*
X1298Y2143D01*
X1298Y2141D01*
X1302Y2141D01*
X1302Y2139D01*
X1304Y2139D01*
X1304Y2137D01*
X1308Y2137D01*
X1308Y2135D01*
X1312Y2135D01*
X1312Y2133D01*
X1314Y2133D01*
X1314Y2131D01*
X1318Y2131D01*
X1318Y2129D01*
X1322Y2129D01*
X1322Y2127D01*
X1324Y2127D01*
X1324Y2125D01*
X1328Y2125D01*
X1328Y2123D01*
X1332Y2123D01*
X1332Y2121D01*
X1334Y2121D01*
X1334Y2119D01*
X1338Y2119D01*
X1338Y2117D01*
X1342Y2117D01*
X1342Y2115D01*
X1344Y2115D01*
X1344Y2113D01*
X1348Y2113D01*
X1348Y2111D01*
X1352Y2111D01*
X1352Y2109D01*
X1354Y2109D01*
X1354Y2107D01*
X1358Y2107D01*
X1358Y2105D01*
X1362Y2105D01*
X1362Y2103D01*
X1364Y2103D01*
X1364Y2101D01*
X1368Y2101D01*
X1368Y2099D01*
X1372Y2099D01*
X1372Y2097D01*
X1374Y2097D01*
X1374Y2095D01*
X1378Y2095D01*
X1378Y2093D01*
X1382Y2093D01*
X1382Y2091D01*
X1384Y2091D01*
X1384Y2089D01*
X1388Y2089D01*
X1388Y2087D01*
X1392Y2087D01*
X1392Y2085D01*
X1394Y2085D01*
X1394Y2083D01*
X1398Y2083D01*
X1398Y2081D01*
X1402Y2081D01*
X1402Y2079D01*
X1404Y2079D01*
X1404Y2077D01*
X1408Y2077D01*
X1408Y2075D01*
X1412Y2075D01*
X1412Y2073D01*
X1414Y2073D01*
X1414Y2071D01*
X1418Y2071D01*
X1418Y2069D01*
X1422Y2069D01*
X1422Y2067D01*
X1424Y2067D01*
X1424Y2065D01*
X1428Y2065D01*
X1428Y2063D01*
X1432Y2063D01*
X1432Y2061D01*
X1434Y2061D01*
X1434Y2059D01*
X1438Y2059D01*
X1438Y2057D01*
X2010Y2057D01*
X2010Y2055D01*
X2018Y2055D01*
X2018Y2053D01*
X2022Y2053D01*
X2022Y2051D01*
X2026Y2051D01*
X2026Y2049D01*
X2030Y2049D01*
X2030Y2047D01*
X2050Y2047D01*
X2050Y2291D01*
X1164Y2291D01*
G37*
D02*
G36*
X52Y2239D02*
X52Y2237D01*
X950Y2237D01*
X950Y2239D01*
X52Y2239D01*
G37*
D02*
G36*
X52Y2239D02*
X52Y2237D01*
X950Y2237D01*
X950Y2239D01*
X52Y2239D01*
G37*
D02*
G36*
X52Y2237D02*
X52Y1981D01*
X1110Y1981D01*
X1110Y1979D01*
X1118Y1979D01*
X1118Y1977D01*
X1122Y1977D01*
X1122Y1975D01*
X1126Y1975D01*
X1126Y1973D01*
X1130Y1973D01*
X1130Y1971D01*
X1134Y1971D01*
X1134Y1969D01*
X1136Y1969D01*
X1136Y1967D01*
X1138Y1967D01*
X1138Y1965D01*
X1140Y1965D01*
X1140Y1963D01*
X1142Y1963D01*
X1142Y1961D01*
X1144Y1961D01*
X1144Y1959D01*
X1146Y1959D01*
X1146Y1957D01*
X1148Y1957D01*
X1148Y1955D01*
X1150Y1955D01*
X1150Y1953D01*
X1152Y1953D01*
X1152Y1951D01*
X1154Y1951D01*
X1154Y1947D01*
X1156Y1947D01*
X1156Y1945D01*
X1158Y1945D01*
X1158Y1941D01*
X1160Y1941D01*
X1160Y1937D01*
X1162Y1937D01*
X1162Y1931D01*
X1164Y1931D01*
X1164Y1889D01*
X1162Y1889D01*
X1162Y1885D01*
X1160Y1885D01*
X1160Y1879D01*
X1158Y1879D01*
X1158Y1875D01*
X1156Y1875D01*
X1156Y1873D01*
X1154Y1873D01*
X1154Y1847D01*
X1156Y1847D01*
X1156Y1845D01*
X1158Y1845D01*
X1158Y1841D01*
X1160Y1841D01*
X1160Y1837D01*
X1162Y1837D01*
X1162Y1831D01*
X1164Y1831D01*
X1164Y1789D01*
X1162Y1789D01*
X1162Y1785D01*
X1160Y1785D01*
X1160Y1779D01*
X1158Y1779D01*
X1158Y1775D01*
X1156Y1775D01*
X1156Y1773D01*
X1154Y1773D01*
X1154Y1747D01*
X1156Y1747D01*
X1156Y1745D01*
X1158Y1745D01*
X1158Y1741D01*
X1160Y1741D01*
X1160Y1737D01*
X1162Y1737D01*
X1162Y1731D01*
X1164Y1731D01*
X1164Y1689D01*
X1162Y1689D01*
X1162Y1685D01*
X1160Y1685D01*
X1160Y1679D01*
X1158Y1679D01*
X1158Y1675D01*
X1156Y1675D01*
X1156Y1673D01*
X1154Y1673D01*
X1154Y1669D01*
X1152Y1669D01*
X1152Y1667D01*
X1150Y1667D01*
X1150Y1665D01*
X1148Y1665D01*
X1148Y1663D01*
X1146Y1663D01*
X1146Y1661D01*
X1144Y1661D01*
X1144Y1659D01*
X1142Y1659D01*
X1142Y1657D01*
X1140Y1657D01*
X1140Y1655D01*
X1138Y1655D01*
X1138Y1653D01*
X1136Y1653D01*
X1136Y1651D01*
X1132Y1651D01*
X1132Y1649D01*
X1130Y1649D01*
X1130Y1647D01*
X1126Y1647D01*
X1126Y1645D01*
X1122Y1645D01*
X1122Y1643D01*
X1118Y1643D01*
X1118Y1641D01*
X1110Y1641D01*
X1110Y1639D01*
X1250Y1639D01*
X1250Y1983D01*
X1248Y1983D01*
X1248Y1985D01*
X1246Y1985D01*
X1246Y1987D01*
X1242Y1987D01*
X1242Y1989D01*
X1240Y1989D01*
X1240Y1991D01*
X1236Y1991D01*
X1236Y1993D01*
X1234Y1993D01*
X1234Y1995D01*
X1230Y1995D01*
X1230Y1997D01*
X1228Y1997D01*
X1228Y1999D01*
X1224Y1999D01*
X1224Y2001D01*
X1222Y2001D01*
X1222Y2003D01*
X1218Y2003D01*
X1218Y2005D01*
X1216Y2005D01*
X1216Y2007D01*
X1212Y2007D01*
X1212Y2009D01*
X1210Y2009D01*
X1210Y2011D01*
X1206Y2011D01*
X1206Y2013D01*
X1204Y2013D01*
X1204Y2015D01*
X1200Y2015D01*
X1200Y2017D01*
X1198Y2017D01*
X1198Y2019D01*
X1194Y2019D01*
X1194Y2021D01*
X1192Y2021D01*
X1192Y2023D01*
X1188Y2023D01*
X1188Y2025D01*
X1186Y2025D01*
X1186Y2027D01*
X1182Y2027D01*
X1182Y2029D01*
X1180Y2029D01*
X1180Y2031D01*
X1176Y2031D01*
X1176Y2033D01*
X1174Y2033D01*
X1174Y2035D01*
X1170Y2035D01*
X1170Y2037D01*
X1168Y2037D01*
X1168Y2039D01*
X1164Y2039D01*
X1164Y2041D01*
X1162Y2041D01*
X1162Y2043D01*
X1158Y2043D01*
X1158Y2045D01*
X1156Y2045D01*
X1156Y2047D01*
X1152Y2047D01*
X1152Y2049D01*
X1150Y2049D01*
X1150Y2051D01*
X1146Y2051D01*
X1146Y2053D01*
X1144Y2053D01*
X1144Y2055D01*
X1140Y2055D01*
X1140Y2057D01*
X1138Y2057D01*
X1138Y2059D01*
X1134Y2059D01*
X1134Y2061D01*
X1132Y2061D01*
X1132Y2063D01*
X1128Y2063D01*
X1128Y2065D01*
X1126Y2065D01*
X1126Y2067D01*
X1122Y2067D01*
X1122Y2069D01*
X1120Y2069D01*
X1120Y2071D01*
X1116Y2071D01*
X1116Y2073D01*
X1114Y2073D01*
X1114Y2075D01*
X1110Y2075D01*
X1110Y2077D01*
X1108Y2077D01*
X1108Y2079D01*
X1104Y2079D01*
X1104Y2081D01*
X1102Y2081D01*
X1102Y2083D01*
X1098Y2083D01*
X1098Y2085D01*
X1096Y2085D01*
X1096Y2087D01*
X1092Y2087D01*
X1092Y2089D01*
X1090Y2089D01*
X1090Y2091D01*
X1086Y2091D01*
X1086Y2093D01*
X1084Y2093D01*
X1084Y2095D01*
X1080Y2095D01*
X1080Y2097D01*
X1078Y2097D01*
X1078Y2099D01*
X1074Y2099D01*
X1074Y2101D01*
X1072Y2101D01*
X1072Y2103D01*
X1068Y2103D01*
X1068Y2105D01*
X1066Y2105D01*
X1066Y2107D01*
X1062Y2107D01*
X1062Y2109D01*
X1060Y2109D01*
X1060Y2111D01*
X1056Y2111D01*
X1056Y2113D01*
X1054Y2113D01*
X1054Y2115D01*
X1050Y2115D01*
X1050Y2117D01*
X1048Y2117D01*
X1048Y2119D01*
X1044Y2119D01*
X1044Y2121D01*
X1042Y2121D01*
X1042Y2123D01*
X1038Y2123D01*
X1038Y2125D01*
X1036Y2125D01*
X1036Y2127D01*
X1032Y2127D01*
X1032Y2129D01*
X1030Y2129D01*
X1030Y2131D01*
X1026Y2131D01*
X1026Y2133D01*
X1024Y2133D01*
X1024Y2135D01*
X1020Y2135D01*
X1020Y2137D01*
X1018Y2137D01*
X1018Y2139D01*
X1014Y2139D01*
X1014Y2141D01*
X1012Y2141D01*
X1012Y2143D01*
X1008Y2143D01*
X1008Y2145D01*
X1006Y2145D01*
X1006Y2147D01*
X1002Y2147D01*
X1002Y2149D01*
X1000Y2149D01*
X1000Y2151D01*
X996Y2151D01*
X996Y2153D01*
X994Y2153D01*
X994Y2155D01*
X990Y2155D01*
X990Y2157D01*
X988Y2157D01*
X988Y2159D01*
X984Y2159D01*
X984Y2161D01*
X982Y2161D01*
X982Y2163D01*
X978Y2163D01*
X978Y2165D01*
X976Y2165D01*
X976Y2167D01*
X972Y2167D01*
X972Y2169D01*
X970Y2169D01*
X970Y2171D01*
X966Y2171D01*
X966Y2173D01*
X964Y2173D01*
X964Y2175D01*
X962Y2175D01*
X962Y2177D01*
X960Y2177D01*
X960Y2179D01*
X958Y2179D01*
X958Y2181D01*
X956Y2181D01*
X956Y2185D01*
X954Y2185D01*
X954Y2189D01*
X952Y2189D01*
X952Y2195D01*
X950Y2195D01*
X950Y2237D01*
X52Y2237D01*
G37*
D02*
G36*
X1442Y2057D02*
X1442Y2055D01*
X1444Y2055D01*
X1444Y2053D01*
X1448Y2053D01*
X1448Y2051D01*
X1452Y2051D01*
X1452Y2049D01*
X1454Y2049D01*
X1454Y2047D01*
X1458Y2047D01*
X1458Y2045D01*
X1462Y2045D01*
X1462Y2043D01*
X1464Y2043D01*
X1464Y2041D01*
X1468Y2041D01*
X1468Y2039D01*
X1472Y2039D01*
X1472Y2037D01*
X1474Y2037D01*
X1474Y2035D01*
X1478Y2035D01*
X1478Y2033D01*
X1482Y2033D01*
X1482Y2031D01*
X1484Y2031D01*
X1484Y2029D01*
X1488Y2029D01*
X1488Y2027D01*
X1492Y2027D01*
X1492Y2025D01*
X1494Y2025D01*
X1494Y2023D01*
X1498Y2023D01*
X1498Y2021D01*
X1502Y2021D01*
X1502Y2019D01*
X1504Y2019D01*
X1504Y2017D01*
X1508Y2017D01*
X1508Y2015D01*
X1512Y2015D01*
X1512Y2013D01*
X1514Y2013D01*
X1514Y2011D01*
X1518Y2011D01*
X1518Y2009D01*
X1522Y2009D01*
X1522Y2007D01*
X1524Y2007D01*
X1524Y2005D01*
X1528Y2005D01*
X1528Y2003D01*
X1532Y2003D01*
X1532Y2001D01*
X1534Y2001D01*
X1534Y1999D01*
X1538Y1999D01*
X1538Y1997D01*
X1542Y1997D01*
X1542Y1995D01*
X1544Y1995D01*
X1544Y1993D01*
X1548Y1993D01*
X1548Y1991D01*
X1552Y1991D01*
X1552Y1989D01*
X1554Y1989D01*
X1554Y1987D01*
X1558Y1987D01*
X1558Y1985D01*
X1562Y1985D01*
X1562Y1983D01*
X1564Y1983D01*
X1564Y1981D01*
X1568Y1981D01*
X1568Y1979D01*
X1572Y1979D01*
X1572Y1977D01*
X1574Y1977D01*
X1574Y1975D01*
X1578Y1975D01*
X1578Y1973D01*
X1582Y1973D01*
X1582Y1971D01*
X1584Y1971D01*
X1584Y1969D01*
X1588Y1969D01*
X1588Y1967D01*
X1592Y1967D01*
X1592Y1965D01*
X1594Y1965D01*
X1594Y1963D01*
X1598Y1963D01*
X1598Y1961D01*
X1602Y1961D01*
X1602Y1959D01*
X1604Y1959D01*
X1604Y1957D01*
X1608Y1957D01*
X1608Y1955D01*
X1612Y1955D01*
X1612Y1953D01*
X1614Y1953D01*
X1614Y1951D01*
X1618Y1951D01*
X1618Y1949D01*
X1622Y1949D01*
X1622Y1947D01*
X1624Y1947D01*
X1624Y1945D01*
X1626Y1945D01*
X1626Y1943D01*
X1628Y1943D01*
X1628Y1941D01*
X1630Y1941D01*
X1630Y1939D01*
X1632Y1939D01*
X1632Y1935D01*
X1634Y1935D01*
X1634Y1931D01*
X1636Y1931D01*
X1636Y1925D01*
X1638Y1925D01*
X1638Y1279D01*
X1712Y1279D01*
X1712Y1277D01*
X1718Y1277D01*
X1718Y1275D01*
X1724Y1275D01*
X1724Y1273D01*
X1728Y1273D01*
X1728Y1271D01*
X1730Y1271D01*
X1730Y1269D01*
X1734Y1269D01*
X1734Y1267D01*
X1736Y1267D01*
X1736Y1265D01*
X1738Y1265D01*
X1738Y1263D01*
X1740Y1263D01*
X1740Y1261D01*
X1742Y1261D01*
X1742Y1259D01*
X1744Y1259D01*
X1744Y1257D01*
X1746Y1257D01*
X1746Y1255D01*
X1748Y1255D01*
X1748Y1253D01*
X1750Y1253D01*
X1750Y1251D01*
X1752Y1251D01*
X1752Y1247D01*
X1754Y1247D01*
X1754Y1245D01*
X1756Y1245D01*
X1756Y1241D01*
X1758Y1241D01*
X1758Y1237D01*
X1760Y1237D01*
X1760Y1231D01*
X1762Y1231D01*
X1762Y1223D01*
X1764Y1223D01*
X1764Y1197D01*
X1762Y1197D01*
X1762Y1189D01*
X1760Y1189D01*
X1760Y1183D01*
X1758Y1183D01*
X1758Y1179D01*
X1756Y1179D01*
X1756Y1175D01*
X1754Y1175D01*
X1754Y1173D01*
X1752Y1173D01*
X1752Y1147D01*
X1754Y1147D01*
X1754Y1145D01*
X1756Y1145D01*
X1756Y1141D01*
X1758Y1141D01*
X1758Y1137D01*
X1760Y1137D01*
X1760Y1131D01*
X1762Y1131D01*
X1762Y1123D01*
X1764Y1123D01*
X1764Y1097D01*
X1762Y1097D01*
X1762Y1089D01*
X1760Y1089D01*
X1760Y1083D01*
X1758Y1083D01*
X1758Y1079D01*
X1756Y1079D01*
X1756Y1075D01*
X1754Y1075D01*
X1754Y1073D01*
X1752Y1073D01*
X1752Y1047D01*
X1754Y1047D01*
X1754Y1045D01*
X1756Y1045D01*
X1756Y1041D01*
X1758Y1041D01*
X1758Y1037D01*
X1760Y1037D01*
X1760Y1031D01*
X1762Y1031D01*
X1762Y1023D01*
X1764Y1023D01*
X1764Y1013D01*
X1784Y1013D01*
X1784Y1019D01*
X1786Y1019D01*
X1786Y1023D01*
X1788Y1023D01*
X1788Y1029D01*
X1790Y1029D01*
X1790Y1035D01*
X1792Y1035D01*
X1792Y1039D01*
X1794Y1039D01*
X1794Y1045D01*
X1796Y1045D01*
X1796Y1051D01*
X1798Y1051D01*
X1798Y1057D01*
X1800Y1057D01*
X1800Y1061D01*
X1802Y1061D01*
X1802Y1067D01*
X1804Y1067D01*
X1804Y1073D01*
X1806Y1073D01*
X1806Y1077D01*
X1808Y1077D01*
X1808Y1083D01*
X1810Y1083D01*
X1810Y1089D01*
X1812Y1089D01*
X1812Y1093D01*
X1814Y1093D01*
X1814Y1099D01*
X1816Y1099D01*
X1816Y1105D01*
X1818Y1105D01*
X1818Y1111D01*
X1820Y1111D01*
X1820Y1115D01*
X1822Y1115D01*
X1822Y1121D01*
X1824Y1121D01*
X1824Y1127D01*
X1826Y1127D01*
X1826Y1131D01*
X1828Y1131D01*
X1828Y1137D01*
X1830Y1137D01*
X1830Y1143D01*
X1832Y1143D01*
X1832Y1147D01*
X1834Y1147D01*
X1834Y1153D01*
X1836Y1153D01*
X1836Y1159D01*
X1838Y1159D01*
X1838Y1165D01*
X1840Y1165D01*
X1840Y1169D01*
X1842Y1169D01*
X1842Y1175D01*
X1844Y1175D01*
X1844Y1181D01*
X1846Y1181D01*
X1846Y1185D01*
X1848Y1185D01*
X1848Y1191D01*
X1850Y1191D01*
X1850Y1197D01*
X1852Y1197D01*
X1852Y1201D01*
X1854Y1201D01*
X1854Y1205D01*
X1856Y1205D01*
X1856Y1209D01*
X1858Y1209D01*
X1858Y1211D01*
X1860Y1211D01*
X1860Y1213D01*
X1862Y1213D01*
X1862Y1215D01*
X1864Y1215D01*
X1864Y1217D01*
X1866Y1217D01*
X1866Y1219D01*
X1870Y1219D01*
X1870Y1221D01*
X1874Y1221D01*
X1874Y1223D01*
X1884Y1223D01*
X1884Y1225D01*
X1934Y1225D01*
X1934Y1245D01*
X1932Y1245D01*
X1932Y1249D01*
X1930Y1249D01*
X1930Y1253D01*
X1928Y1253D01*
X1928Y1257D01*
X1926Y1257D01*
X1926Y1265D01*
X1924Y1265D01*
X1924Y1295D01*
X1926Y1295D01*
X1926Y1303D01*
X1928Y1303D01*
X1928Y1307D01*
X1930Y1307D01*
X1930Y1313D01*
X1932Y1313D01*
X1932Y1315D01*
X1934Y1315D01*
X1934Y1319D01*
X1936Y1319D01*
X1936Y1341D01*
X1934Y1341D01*
X1934Y1345D01*
X1932Y1345D01*
X1932Y1349D01*
X1930Y1349D01*
X1930Y1353D01*
X1928Y1353D01*
X1928Y1357D01*
X1926Y1357D01*
X1926Y1365D01*
X1924Y1365D01*
X1924Y1395D01*
X1926Y1395D01*
X1926Y1403D01*
X1928Y1403D01*
X1928Y1407D01*
X1930Y1407D01*
X1930Y1413D01*
X1932Y1413D01*
X1932Y1415D01*
X1934Y1415D01*
X1934Y1419D01*
X1936Y1419D01*
X1936Y1441D01*
X1934Y1441D01*
X1934Y1445D01*
X1932Y1445D01*
X1932Y1449D01*
X1930Y1449D01*
X1930Y1453D01*
X1928Y1453D01*
X1928Y1457D01*
X1926Y1457D01*
X1926Y1465D01*
X1924Y1465D01*
X1924Y1495D01*
X1926Y1495D01*
X1926Y1503D01*
X1928Y1503D01*
X1928Y1507D01*
X1930Y1507D01*
X1930Y1513D01*
X1932Y1513D01*
X1932Y1515D01*
X1934Y1515D01*
X1934Y1519D01*
X1936Y1519D01*
X1936Y1541D01*
X1934Y1541D01*
X1934Y1545D01*
X1932Y1545D01*
X1932Y1549D01*
X1930Y1549D01*
X1930Y1553D01*
X1928Y1553D01*
X1928Y1557D01*
X1926Y1557D01*
X1926Y1565D01*
X1924Y1565D01*
X1924Y1595D01*
X1926Y1595D01*
X1926Y1603D01*
X1928Y1603D01*
X1928Y1607D01*
X1930Y1607D01*
X1930Y1613D01*
X1932Y1613D01*
X1932Y1615D01*
X1934Y1615D01*
X1934Y1619D01*
X1936Y1619D01*
X1936Y1641D01*
X1934Y1641D01*
X1934Y1645D01*
X1932Y1645D01*
X1932Y1649D01*
X1930Y1649D01*
X1930Y1653D01*
X1928Y1653D01*
X1928Y1657D01*
X1926Y1657D01*
X1926Y1665D01*
X1924Y1665D01*
X1924Y1695D01*
X1926Y1695D01*
X1926Y1703D01*
X1928Y1703D01*
X1928Y1707D01*
X1930Y1707D01*
X1930Y1713D01*
X1932Y1713D01*
X1932Y1715D01*
X1934Y1715D01*
X1934Y1719D01*
X1936Y1719D01*
X1936Y1741D01*
X1934Y1741D01*
X1934Y1745D01*
X1932Y1745D01*
X1932Y1749D01*
X1930Y1749D01*
X1930Y1753D01*
X1928Y1753D01*
X1928Y1757D01*
X1926Y1757D01*
X1926Y1765D01*
X1924Y1765D01*
X1924Y1795D01*
X1926Y1795D01*
X1926Y1803D01*
X1928Y1803D01*
X1928Y1807D01*
X1930Y1807D01*
X1930Y1813D01*
X1932Y1813D01*
X1932Y1815D01*
X1934Y1815D01*
X1934Y1819D01*
X1936Y1819D01*
X1936Y1821D01*
X1938Y1821D01*
X1938Y1823D01*
X1940Y1823D01*
X1940Y1843D01*
X1938Y1843D01*
X1938Y1845D01*
X1936Y1845D01*
X1936Y1849D01*
X1934Y1849D01*
X1934Y1851D01*
X1932Y1851D01*
X1932Y1855D01*
X1930Y1855D01*
X1930Y1859D01*
X1928Y1859D01*
X1928Y1865D01*
X1926Y1865D01*
X1926Y1871D01*
X1924Y1871D01*
X1924Y1903D01*
X1926Y1903D01*
X1926Y1911D01*
X1928Y1911D01*
X1928Y1915D01*
X1930Y1915D01*
X1930Y1919D01*
X1932Y1919D01*
X1932Y1923D01*
X1934Y1923D01*
X1934Y1925D01*
X1936Y1925D01*
X1936Y1949D01*
X1934Y1949D01*
X1934Y1951D01*
X1932Y1951D01*
X1932Y1955D01*
X1930Y1955D01*
X1930Y1959D01*
X1928Y1959D01*
X1928Y1965D01*
X1926Y1965D01*
X1926Y1971D01*
X1924Y1971D01*
X1924Y2003D01*
X1926Y2003D01*
X1926Y2011D01*
X1928Y2011D01*
X1928Y2015D01*
X1930Y2015D01*
X1930Y2019D01*
X1932Y2019D01*
X1932Y2023D01*
X1934Y2023D01*
X1934Y2025D01*
X1936Y2025D01*
X1936Y2029D01*
X1938Y2029D01*
X1938Y2031D01*
X1940Y2031D01*
X1940Y2033D01*
X1942Y2033D01*
X1942Y2035D01*
X1944Y2035D01*
X1944Y2037D01*
X1946Y2037D01*
X1946Y2039D01*
X1948Y2039D01*
X1948Y2041D01*
X1950Y2041D01*
X1950Y2043D01*
X1952Y2043D01*
X1952Y2045D01*
X1956Y2045D01*
X1956Y2047D01*
X1958Y2047D01*
X1958Y2049D01*
X1962Y2049D01*
X1962Y2051D01*
X1966Y2051D01*
X1966Y2053D01*
X1970Y2053D01*
X1970Y2055D01*
X1978Y2055D01*
X1978Y2057D01*
X1442Y2057D01*
G37*
D02*
G36*
X52Y1981D02*
X52Y1681D01*
X102Y1681D01*
X102Y1679D01*
X114Y1679D01*
X114Y1677D01*
X120Y1677D01*
X120Y1675D01*
X124Y1675D01*
X124Y1673D01*
X128Y1673D01*
X128Y1671D01*
X132Y1671D01*
X132Y1669D01*
X134Y1669D01*
X134Y1667D01*
X136Y1667D01*
X136Y1665D01*
X140Y1665D01*
X140Y1663D01*
X142Y1663D01*
X142Y1661D01*
X144Y1661D01*
X144Y1659D01*
X146Y1659D01*
X146Y1657D01*
X148Y1657D01*
X148Y1653D01*
X150Y1653D01*
X150Y1651D01*
X152Y1651D01*
X152Y1649D01*
X154Y1649D01*
X154Y1645D01*
X156Y1645D01*
X156Y1643D01*
X158Y1643D01*
X158Y1639D01*
X378Y1639D01*
X378Y1641D01*
X370Y1641D01*
X370Y1643D01*
X366Y1643D01*
X366Y1645D01*
X362Y1645D01*
X362Y1647D01*
X358Y1647D01*
X358Y1649D01*
X356Y1649D01*
X356Y1651D01*
X352Y1651D01*
X352Y1653D01*
X350Y1653D01*
X350Y1655D01*
X348Y1655D01*
X348Y1657D01*
X346Y1657D01*
X346Y1659D01*
X344Y1659D01*
X344Y1661D01*
X342Y1661D01*
X342Y1663D01*
X340Y1663D01*
X340Y1665D01*
X338Y1665D01*
X338Y1667D01*
X336Y1667D01*
X336Y1669D01*
X334Y1669D01*
X334Y1673D01*
X332Y1673D01*
X332Y1675D01*
X330Y1675D01*
X330Y1679D01*
X328Y1679D01*
X328Y1685D01*
X326Y1685D01*
X326Y1689D01*
X324Y1689D01*
X324Y1731D01*
X326Y1731D01*
X326Y1737D01*
X328Y1737D01*
X328Y1741D01*
X330Y1741D01*
X330Y1745D01*
X332Y1745D01*
X332Y1747D01*
X334Y1747D01*
X334Y1773D01*
X332Y1773D01*
X332Y1775D01*
X330Y1775D01*
X330Y1779D01*
X328Y1779D01*
X328Y1785D01*
X326Y1785D01*
X326Y1789D01*
X324Y1789D01*
X324Y1831D01*
X326Y1831D01*
X326Y1837D01*
X328Y1837D01*
X328Y1841D01*
X330Y1841D01*
X330Y1845D01*
X332Y1845D01*
X332Y1847D01*
X334Y1847D01*
X334Y1873D01*
X332Y1873D01*
X332Y1875D01*
X330Y1875D01*
X330Y1879D01*
X328Y1879D01*
X328Y1885D01*
X326Y1885D01*
X326Y1889D01*
X324Y1889D01*
X324Y1931D01*
X326Y1931D01*
X326Y1937D01*
X328Y1937D01*
X328Y1941D01*
X330Y1941D01*
X330Y1945D01*
X332Y1945D01*
X332Y1947D01*
X334Y1947D01*
X334Y1951D01*
X336Y1951D01*
X336Y1953D01*
X338Y1953D01*
X338Y1955D01*
X340Y1955D01*
X340Y1957D01*
X342Y1957D01*
X342Y1959D01*
X344Y1959D01*
X344Y1961D01*
X346Y1961D01*
X346Y1963D01*
X348Y1963D01*
X348Y1965D01*
X350Y1965D01*
X350Y1967D01*
X352Y1967D01*
X352Y1969D01*
X354Y1969D01*
X354Y1971D01*
X358Y1971D01*
X358Y1973D01*
X362Y1973D01*
X362Y1975D01*
X366Y1975D01*
X366Y1977D01*
X370Y1977D01*
X370Y1979D01*
X378Y1979D01*
X378Y1981D01*
X52Y1981D01*
G37*
D02*
G36*
X410Y1981D02*
X410Y1979D01*
X418Y1979D01*
X418Y1977D01*
X422Y1977D01*
X422Y1975D01*
X426Y1975D01*
X426Y1973D01*
X430Y1973D01*
X430Y1971D01*
X434Y1971D01*
X434Y1969D01*
X436Y1969D01*
X436Y1967D01*
X438Y1967D01*
X438Y1965D01*
X440Y1965D01*
X440Y1963D01*
X442Y1963D01*
X442Y1961D01*
X444Y1961D01*
X444Y1959D01*
X446Y1959D01*
X446Y1957D01*
X448Y1957D01*
X448Y1955D01*
X450Y1955D01*
X450Y1953D01*
X452Y1953D01*
X452Y1951D01*
X454Y1951D01*
X454Y1947D01*
X456Y1947D01*
X456Y1945D01*
X458Y1945D01*
X458Y1941D01*
X460Y1941D01*
X460Y1937D01*
X462Y1937D01*
X462Y1931D01*
X464Y1931D01*
X464Y1919D01*
X466Y1919D01*
X466Y1903D01*
X464Y1903D01*
X464Y1889D01*
X462Y1889D01*
X462Y1885D01*
X460Y1885D01*
X460Y1879D01*
X458Y1879D01*
X458Y1875D01*
X456Y1875D01*
X456Y1873D01*
X454Y1873D01*
X454Y1847D01*
X456Y1847D01*
X456Y1845D01*
X458Y1845D01*
X458Y1841D01*
X460Y1841D01*
X460Y1837D01*
X462Y1837D01*
X462Y1831D01*
X464Y1831D01*
X464Y1819D01*
X466Y1819D01*
X466Y1803D01*
X464Y1803D01*
X464Y1789D01*
X462Y1789D01*
X462Y1785D01*
X460Y1785D01*
X460Y1779D01*
X458Y1779D01*
X458Y1775D01*
X456Y1775D01*
X456Y1773D01*
X454Y1773D01*
X454Y1747D01*
X456Y1747D01*
X456Y1745D01*
X458Y1745D01*
X458Y1741D01*
X460Y1741D01*
X460Y1737D01*
X462Y1737D01*
X462Y1731D01*
X464Y1731D01*
X464Y1719D01*
X466Y1719D01*
X466Y1703D01*
X464Y1703D01*
X464Y1689D01*
X462Y1689D01*
X462Y1685D01*
X460Y1685D01*
X460Y1679D01*
X458Y1679D01*
X458Y1675D01*
X456Y1675D01*
X456Y1673D01*
X454Y1673D01*
X454Y1669D01*
X452Y1669D01*
X452Y1667D01*
X450Y1667D01*
X450Y1665D01*
X448Y1665D01*
X448Y1663D01*
X446Y1663D01*
X446Y1661D01*
X444Y1661D01*
X444Y1659D01*
X442Y1659D01*
X442Y1657D01*
X440Y1657D01*
X440Y1655D01*
X438Y1655D01*
X438Y1653D01*
X436Y1653D01*
X436Y1651D01*
X432Y1651D01*
X432Y1649D01*
X430Y1649D01*
X430Y1647D01*
X426Y1647D01*
X426Y1645D01*
X422Y1645D01*
X422Y1643D01*
X418Y1643D01*
X418Y1641D01*
X410Y1641D01*
X410Y1639D01*
X1078Y1639D01*
X1078Y1641D01*
X1070Y1641D01*
X1070Y1643D01*
X1066Y1643D01*
X1066Y1645D01*
X1062Y1645D01*
X1062Y1647D01*
X1058Y1647D01*
X1058Y1649D01*
X1056Y1649D01*
X1056Y1651D01*
X1052Y1651D01*
X1052Y1653D01*
X1050Y1653D01*
X1050Y1655D01*
X1048Y1655D01*
X1048Y1657D01*
X1046Y1657D01*
X1046Y1659D01*
X1044Y1659D01*
X1044Y1661D01*
X1042Y1661D01*
X1042Y1663D01*
X1040Y1663D01*
X1040Y1665D01*
X1038Y1665D01*
X1038Y1667D01*
X1036Y1667D01*
X1036Y1669D01*
X1034Y1669D01*
X1034Y1673D01*
X1032Y1673D01*
X1032Y1675D01*
X1030Y1675D01*
X1030Y1679D01*
X1028Y1679D01*
X1028Y1685D01*
X1026Y1685D01*
X1026Y1689D01*
X1024Y1689D01*
X1024Y1731D01*
X1026Y1731D01*
X1026Y1737D01*
X1028Y1737D01*
X1028Y1741D01*
X1030Y1741D01*
X1030Y1745D01*
X1032Y1745D01*
X1032Y1747D01*
X1034Y1747D01*
X1034Y1773D01*
X1032Y1773D01*
X1032Y1775D01*
X1030Y1775D01*
X1030Y1779D01*
X1028Y1779D01*
X1028Y1785D01*
X1026Y1785D01*
X1026Y1789D01*
X1024Y1789D01*
X1024Y1831D01*
X1026Y1831D01*
X1026Y1837D01*
X1028Y1837D01*
X1028Y1841D01*
X1030Y1841D01*
X1030Y1845D01*
X1032Y1845D01*
X1032Y1847D01*
X1034Y1847D01*
X1034Y1873D01*
X1032Y1873D01*
X1032Y1875D01*
X1030Y1875D01*
X1030Y1879D01*
X1028Y1879D01*
X1028Y1885D01*
X1026Y1885D01*
X1026Y1889D01*
X1024Y1889D01*
X1024Y1931D01*
X1026Y1931D01*
X1026Y1937D01*
X1028Y1937D01*
X1028Y1941D01*
X1030Y1941D01*
X1030Y1945D01*
X1032Y1945D01*
X1032Y1947D01*
X1034Y1947D01*
X1034Y1951D01*
X1036Y1951D01*
X1036Y1953D01*
X1038Y1953D01*
X1038Y1955D01*
X1040Y1955D01*
X1040Y1957D01*
X1042Y1957D01*
X1042Y1959D01*
X1044Y1959D01*
X1044Y1961D01*
X1046Y1961D01*
X1046Y1963D01*
X1048Y1963D01*
X1048Y1965D01*
X1050Y1965D01*
X1050Y1967D01*
X1052Y1967D01*
X1052Y1969D01*
X1054Y1969D01*
X1054Y1971D01*
X1058Y1971D01*
X1058Y1973D01*
X1062Y1973D01*
X1062Y1975D01*
X1066Y1975D01*
X1066Y1977D01*
X1070Y1977D01*
X1070Y1979D01*
X1078Y1979D01*
X1078Y1981D01*
X410Y1981D01*
G37*
D02*
G36*
X52Y1681D02*
X52Y1677D01*
X74Y1677D01*
X74Y1679D01*
X86Y1679D01*
X86Y1681D01*
X52Y1681D01*
G37*
D02*
G36*
X160Y1639D02*
X160Y1637D01*
X1250Y1637D01*
X1250Y1639D01*
X160Y1639D01*
G37*
D02*
G36*
X160Y1639D02*
X160Y1637D01*
X1250Y1637D01*
X1250Y1639D01*
X160Y1639D01*
G37*
D02*
G36*
X160Y1639D02*
X160Y1637D01*
X1250Y1637D01*
X1250Y1639D01*
X160Y1639D01*
G37*
D02*
G36*
X160Y1637D02*
X160Y1633D01*
X162Y1633D01*
X162Y1625D01*
X164Y1625D01*
X164Y1595D01*
X162Y1595D01*
X162Y1587D01*
X160Y1587D01*
X160Y1583D01*
X158Y1583D01*
X158Y1579D01*
X156Y1579D01*
X156Y1575D01*
X154Y1575D01*
X154Y1571D01*
X152Y1571D01*
X152Y1549D01*
X154Y1549D01*
X154Y1545D01*
X156Y1545D01*
X156Y1543D01*
X158Y1543D01*
X158Y1539D01*
X160Y1539D01*
X160Y1533D01*
X162Y1533D01*
X162Y1525D01*
X164Y1525D01*
X164Y1495D01*
X162Y1495D01*
X162Y1487D01*
X160Y1487D01*
X160Y1483D01*
X158Y1483D01*
X158Y1479D01*
X156Y1479D01*
X156Y1475D01*
X154Y1475D01*
X154Y1471D01*
X152Y1471D01*
X152Y1449D01*
X154Y1449D01*
X154Y1445D01*
X156Y1445D01*
X156Y1443D01*
X158Y1443D01*
X158Y1437D01*
X160Y1437D01*
X160Y1433D01*
X162Y1433D01*
X162Y1425D01*
X164Y1425D01*
X164Y1395D01*
X162Y1395D01*
X162Y1387D01*
X160Y1387D01*
X160Y1383D01*
X158Y1383D01*
X158Y1381D01*
X1110Y1381D01*
X1110Y1379D01*
X1118Y1379D01*
X1118Y1377D01*
X1122Y1377D01*
X1122Y1375D01*
X1126Y1375D01*
X1126Y1373D01*
X1130Y1373D01*
X1130Y1371D01*
X1134Y1371D01*
X1134Y1369D01*
X1136Y1369D01*
X1136Y1367D01*
X1138Y1367D01*
X1138Y1365D01*
X1140Y1365D01*
X1140Y1363D01*
X1142Y1363D01*
X1142Y1361D01*
X1144Y1361D01*
X1144Y1359D01*
X1146Y1359D01*
X1146Y1357D01*
X1148Y1357D01*
X1148Y1355D01*
X1150Y1355D01*
X1150Y1353D01*
X1152Y1353D01*
X1152Y1351D01*
X1154Y1351D01*
X1154Y1347D01*
X1156Y1347D01*
X1156Y1345D01*
X1158Y1345D01*
X1158Y1341D01*
X1160Y1341D01*
X1160Y1337D01*
X1162Y1337D01*
X1162Y1331D01*
X1164Y1331D01*
X1164Y1289D01*
X1162Y1289D01*
X1162Y1285D01*
X1160Y1285D01*
X1160Y1279D01*
X1158Y1279D01*
X1158Y1275D01*
X1156Y1275D01*
X1156Y1273D01*
X1154Y1273D01*
X1154Y1247D01*
X1156Y1247D01*
X1156Y1245D01*
X1158Y1245D01*
X1158Y1241D01*
X1160Y1241D01*
X1160Y1237D01*
X1162Y1237D01*
X1162Y1231D01*
X1164Y1231D01*
X1164Y1205D01*
X1166Y1205D01*
X1166Y1203D01*
X1168Y1203D01*
X1168Y1201D01*
X1170Y1201D01*
X1170Y1199D01*
X1172Y1199D01*
X1172Y1197D01*
X1174Y1197D01*
X1174Y1195D01*
X1176Y1195D01*
X1176Y1193D01*
X1178Y1193D01*
X1178Y1191D01*
X1180Y1191D01*
X1180Y1189D01*
X1182Y1189D01*
X1182Y1187D01*
X1184Y1187D01*
X1184Y1185D01*
X1186Y1185D01*
X1186Y1183D01*
X1188Y1183D01*
X1188Y1181D01*
X1190Y1181D01*
X1190Y1179D01*
X1192Y1179D01*
X1192Y1177D01*
X1194Y1177D01*
X1194Y1175D01*
X1196Y1175D01*
X1196Y1173D01*
X1198Y1173D01*
X1198Y1171D01*
X1200Y1171D01*
X1200Y1169D01*
X1202Y1169D01*
X1202Y1167D01*
X1204Y1167D01*
X1204Y1165D01*
X1206Y1165D01*
X1206Y1163D01*
X1208Y1163D01*
X1208Y1161D01*
X1210Y1161D01*
X1210Y1159D01*
X1212Y1159D01*
X1212Y1157D01*
X1214Y1157D01*
X1214Y1155D01*
X1216Y1155D01*
X1216Y1153D01*
X1218Y1153D01*
X1218Y1151D01*
X1220Y1151D01*
X1220Y1149D01*
X1222Y1149D01*
X1222Y1147D01*
X1224Y1147D01*
X1224Y1145D01*
X1226Y1145D01*
X1226Y1143D01*
X1228Y1143D01*
X1228Y1141D01*
X1230Y1141D01*
X1230Y1139D01*
X1250Y1139D01*
X1250Y1637D01*
X160Y1637D01*
G37*
D02*
G36*
X158Y1381D02*
X158Y1379D01*
X156Y1379D01*
X156Y1375D01*
X154Y1375D01*
X154Y1371D01*
X152Y1371D01*
X152Y1349D01*
X154Y1349D01*
X154Y1345D01*
X156Y1345D01*
X156Y1343D01*
X158Y1343D01*
X158Y1337D01*
X160Y1337D01*
X160Y1333D01*
X162Y1333D01*
X162Y1325D01*
X164Y1325D01*
X164Y1295D01*
X162Y1295D01*
X162Y1287D01*
X160Y1287D01*
X160Y1283D01*
X158Y1283D01*
X158Y1279D01*
X156Y1279D01*
X156Y1275D01*
X154Y1275D01*
X154Y1271D01*
X152Y1271D01*
X152Y1249D01*
X154Y1249D01*
X154Y1245D01*
X156Y1245D01*
X156Y1243D01*
X158Y1243D01*
X158Y1239D01*
X160Y1239D01*
X160Y1233D01*
X162Y1233D01*
X162Y1225D01*
X164Y1225D01*
X164Y1195D01*
X162Y1195D01*
X162Y1187D01*
X160Y1187D01*
X160Y1183D01*
X158Y1183D01*
X158Y1179D01*
X156Y1179D01*
X156Y1175D01*
X154Y1175D01*
X154Y1171D01*
X152Y1171D01*
X152Y1149D01*
X154Y1149D01*
X154Y1145D01*
X156Y1145D01*
X156Y1143D01*
X158Y1143D01*
X158Y1139D01*
X160Y1139D01*
X160Y1133D01*
X162Y1133D01*
X162Y1125D01*
X164Y1125D01*
X164Y1095D01*
X162Y1095D01*
X162Y1087D01*
X160Y1087D01*
X160Y1083D01*
X158Y1083D01*
X158Y1079D01*
X156Y1079D01*
X156Y1075D01*
X154Y1075D01*
X154Y1071D01*
X152Y1071D01*
X152Y1049D01*
X154Y1049D01*
X154Y1045D01*
X156Y1045D01*
X156Y1043D01*
X158Y1043D01*
X158Y1039D01*
X378Y1039D01*
X378Y1041D01*
X370Y1041D01*
X370Y1043D01*
X366Y1043D01*
X366Y1045D01*
X362Y1045D01*
X362Y1047D01*
X358Y1047D01*
X358Y1049D01*
X356Y1049D01*
X356Y1051D01*
X352Y1051D01*
X352Y1053D01*
X350Y1053D01*
X350Y1055D01*
X348Y1055D01*
X348Y1057D01*
X346Y1057D01*
X346Y1059D01*
X344Y1059D01*
X344Y1061D01*
X342Y1061D01*
X342Y1063D01*
X340Y1063D01*
X340Y1065D01*
X338Y1065D01*
X338Y1067D01*
X336Y1067D01*
X336Y1069D01*
X334Y1069D01*
X334Y1073D01*
X332Y1073D01*
X332Y1075D01*
X330Y1075D01*
X330Y1079D01*
X328Y1079D01*
X328Y1085D01*
X326Y1085D01*
X326Y1089D01*
X324Y1089D01*
X324Y1131D01*
X326Y1131D01*
X326Y1137D01*
X328Y1137D01*
X328Y1141D01*
X330Y1141D01*
X330Y1145D01*
X332Y1145D01*
X332Y1147D01*
X334Y1147D01*
X334Y1173D01*
X332Y1173D01*
X332Y1175D01*
X330Y1175D01*
X330Y1179D01*
X328Y1179D01*
X328Y1185D01*
X326Y1185D01*
X326Y1189D01*
X324Y1189D01*
X324Y1231D01*
X326Y1231D01*
X326Y1237D01*
X328Y1237D01*
X328Y1241D01*
X330Y1241D01*
X330Y1245D01*
X332Y1245D01*
X332Y1247D01*
X334Y1247D01*
X334Y1273D01*
X332Y1273D01*
X332Y1275D01*
X330Y1275D01*
X330Y1279D01*
X328Y1279D01*
X328Y1285D01*
X326Y1285D01*
X326Y1289D01*
X324Y1289D01*
X324Y1331D01*
X326Y1331D01*
X326Y1337D01*
X328Y1337D01*
X328Y1341D01*
X330Y1341D01*
X330Y1345D01*
X332Y1345D01*
X332Y1347D01*
X334Y1347D01*
X334Y1351D01*
X336Y1351D01*
X336Y1353D01*
X338Y1353D01*
X338Y1355D01*
X340Y1355D01*
X340Y1357D01*
X342Y1357D01*
X342Y1359D01*
X344Y1359D01*
X344Y1361D01*
X346Y1361D01*
X346Y1363D01*
X348Y1363D01*
X348Y1365D01*
X350Y1365D01*
X350Y1367D01*
X352Y1367D01*
X352Y1369D01*
X354Y1369D01*
X354Y1371D01*
X358Y1371D01*
X358Y1373D01*
X362Y1373D01*
X362Y1375D01*
X366Y1375D01*
X366Y1377D01*
X370Y1377D01*
X370Y1379D01*
X378Y1379D01*
X378Y1381D01*
X158Y1381D01*
G37*
D02*
G36*
X410Y1381D02*
X410Y1379D01*
X418Y1379D01*
X418Y1377D01*
X422Y1377D01*
X422Y1375D01*
X426Y1375D01*
X426Y1373D01*
X430Y1373D01*
X430Y1371D01*
X434Y1371D01*
X434Y1369D01*
X436Y1369D01*
X436Y1367D01*
X438Y1367D01*
X438Y1365D01*
X440Y1365D01*
X440Y1363D01*
X442Y1363D01*
X442Y1361D01*
X444Y1361D01*
X444Y1359D01*
X446Y1359D01*
X446Y1357D01*
X448Y1357D01*
X448Y1355D01*
X450Y1355D01*
X450Y1353D01*
X452Y1353D01*
X452Y1351D01*
X454Y1351D01*
X454Y1347D01*
X456Y1347D01*
X456Y1345D01*
X458Y1345D01*
X458Y1341D01*
X460Y1341D01*
X460Y1337D01*
X462Y1337D01*
X462Y1331D01*
X464Y1331D01*
X464Y1319D01*
X466Y1319D01*
X466Y1303D01*
X464Y1303D01*
X464Y1289D01*
X462Y1289D01*
X462Y1285D01*
X460Y1285D01*
X460Y1279D01*
X458Y1279D01*
X458Y1275D01*
X456Y1275D01*
X456Y1273D01*
X454Y1273D01*
X454Y1247D01*
X456Y1247D01*
X456Y1245D01*
X458Y1245D01*
X458Y1241D01*
X460Y1241D01*
X460Y1237D01*
X462Y1237D01*
X462Y1231D01*
X464Y1231D01*
X464Y1219D01*
X466Y1219D01*
X466Y1203D01*
X464Y1203D01*
X464Y1189D01*
X462Y1189D01*
X462Y1185D01*
X460Y1185D01*
X460Y1179D01*
X458Y1179D01*
X458Y1175D01*
X456Y1175D01*
X456Y1173D01*
X454Y1173D01*
X454Y1147D01*
X456Y1147D01*
X456Y1145D01*
X458Y1145D01*
X458Y1141D01*
X460Y1141D01*
X460Y1137D01*
X462Y1137D01*
X462Y1131D01*
X464Y1131D01*
X464Y1119D01*
X466Y1119D01*
X466Y1103D01*
X464Y1103D01*
X464Y1089D01*
X462Y1089D01*
X462Y1085D01*
X460Y1085D01*
X460Y1079D01*
X458Y1079D01*
X458Y1075D01*
X456Y1075D01*
X456Y1073D01*
X454Y1073D01*
X454Y1069D01*
X452Y1069D01*
X452Y1067D01*
X450Y1067D01*
X450Y1065D01*
X448Y1065D01*
X448Y1063D01*
X446Y1063D01*
X446Y1061D01*
X444Y1061D01*
X444Y1059D01*
X442Y1059D01*
X442Y1057D01*
X440Y1057D01*
X440Y1055D01*
X438Y1055D01*
X438Y1053D01*
X436Y1053D01*
X436Y1051D01*
X432Y1051D01*
X432Y1049D01*
X430Y1049D01*
X430Y1047D01*
X426Y1047D01*
X426Y1045D01*
X422Y1045D01*
X422Y1043D01*
X418Y1043D01*
X418Y1041D01*
X410Y1041D01*
X410Y1039D01*
X1050Y1039D01*
X1050Y1055D01*
X1048Y1055D01*
X1048Y1057D01*
X1046Y1057D01*
X1046Y1059D01*
X1044Y1059D01*
X1044Y1061D01*
X1042Y1061D01*
X1042Y1063D01*
X1040Y1063D01*
X1040Y1065D01*
X1038Y1065D01*
X1038Y1067D01*
X1036Y1067D01*
X1036Y1069D01*
X1034Y1069D01*
X1034Y1073D01*
X1032Y1073D01*
X1032Y1075D01*
X1030Y1075D01*
X1030Y1079D01*
X1028Y1079D01*
X1028Y1085D01*
X1026Y1085D01*
X1026Y1089D01*
X1024Y1089D01*
X1024Y1131D01*
X1026Y1131D01*
X1026Y1137D01*
X1028Y1137D01*
X1028Y1141D01*
X1030Y1141D01*
X1030Y1145D01*
X1032Y1145D01*
X1032Y1147D01*
X1034Y1147D01*
X1034Y1173D01*
X1032Y1173D01*
X1032Y1175D01*
X1030Y1175D01*
X1030Y1179D01*
X1028Y1179D01*
X1028Y1185D01*
X1026Y1185D01*
X1026Y1189D01*
X1024Y1189D01*
X1024Y1231D01*
X1026Y1231D01*
X1026Y1237D01*
X1028Y1237D01*
X1028Y1241D01*
X1030Y1241D01*
X1030Y1245D01*
X1032Y1245D01*
X1032Y1247D01*
X1034Y1247D01*
X1034Y1273D01*
X1032Y1273D01*
X1032Y1275D01*
X1030Y1275D01*
X1030Y1279D01*
X1028Y1279D01*
X1028Y1285D01*
X1026Y1285D01*
X1026Y1289D01*
X1024Y1289D01*
X1024Y1331D01*
X1026Y1331D01*
X1026Y1337D01*
X1028Y1337D01*
X1028Y1341D01*
X1030Y1341D01*
X1030Y1345D01*
X1032Y1345D01*
X1032Y1347D01*
X1034Y1347D01*
X1034Y1351D01*
X1036Y1351D01*
X1036Y1353D01*
X1038Y1353D01*
X1038Y1355D01*
X1040Y1355D01*
X1040Y1357D01*
X1042Y1357D01*
X1042Y1359D01*
X1044Y1359D01*
X1044Y1361D01*
X1046Y1361D01*
X1046Y1363D01*
X1048Y1363D01*
X1048Y1365D01*
X1050Y1365D01*
X1050Y1367D01*
X1052Y1367D01*
X1052Y1369D01*
X1054Y1369D01*
X1054Y1371D01*
X1058Y1371D01*
X1058Y1373D01*
X1062Y1373D01*
X1062Y1375D01*
X1066Y1375D01*
X1066Y1377D01*
X1070Y1377D01*
X1070Y1379D01*
X1078Y1379D01*
X1078Y1381D01*
X410Y1381D01*
G37*
D02*
G36*
X1638Y1279D02*
X1638Y1269D01*
X1658Y1269D01*
X1658Y1271D01*
X1660Y1271D01*
X1660Y1273D01*
X1664Y1273D01*
X1664Y1275D01*
X1670Y1275D01*
X1670Y1277D01*
X1676Y1277D01*
X1676Y1279D01*
X1638Y1279D01*
G37*
D02*
G36*
X160Y1039D02*
X160Y1037D01*
X1050Y1037D01*
X1050Y1039D01*
X160Y1039D01*
G37*
D02*
G36*
X160Y1039D02*
X160Y1037D01*
X1050Y1037D01*
X1050Y1039D01*
X160Y1039D01*
G37*
D02*
G36*
X160Y1037D02*
X160Y1033D01*
X162Y1033D01*
X162Y1025D01*
X164Y1025D01*
X164Y995D01*
X162Y995D01*
X162Y987D01*
X160Y987D01*
X160Y983D01*
X158Y983D01*
X158Y979D01*
X156Y979D01*
X156Y975D01*
X154Y975D01*
X154Y971D01*
X152Y971D01*
X152Y949D01*
X154Y949D01*
X154Y945D01*
X156Y945D01*
X156Y943D01*
X158Y943D01*
X158Y939D01*
X160Y939D01*
X160Y933D01*
X162Y933D01*
X162Y925D01*
X164Y925D01*
X164Y895D01*
X162Y895D01*
X162Y887D01*
X160Y887D01*
X160Y883D01*
X158Y883D01*
X158Y879D01*
X156Y879D01*
X156Y875D01*
X154Y875D01*
X154Y871D01*
X152Y871D01*
X152Y869D01*
X150Y869D01*
X150Y867D01*
X148Y867D01*
X148Y865D01*
X146Y865D01*
X146Y861D01*
X144Y861D01*
X144Y859D01*
X142Y859D01*
X142Y857D01*
X138Y857D01*
X138Y855D01*
X136Y855D01*
X136Y853D01*
X134Y853D01*
X134Y851D01*
X130Y851D01*
X130Y849D01*
X128Y849D01*
X128Y847D01*
X124Y847D01*
X124Y845D01*
X120Y845D01*
X120Y843D01*
X114Y843D01*
X114Y841D01*
X1196Y841D01*
X1196Y843D01*
X1194Y843D01*
X1194Y845D01*
X1192Y845D01*
X1192Y847D01*
X1190Y847D01*
X1190Y849D01*
X1188Y849D01*
X1188Y851D01*
X1186Y851D01*
X1186Y853D01*
X1184Y853D01*
X1184Y855D01*
X1182Y855D01*
X1182Y857D01*
X1180Y857D01*
X1180Y859D01*
X1178Y859D01*
X1178Y861D01*
X1176Y861D01*
X1176Y863D01*
X1174Y863D01*
X1174Y865D01*
X1172Y865D01*
X1172Y867D01*
X1170Y867D01*
X1170Y869D01*
X1168Y869D01*
X1168Y871D01*
X1166Y871D01*
X1166Y873D01*
X1164Y873D01*
X1164Y875D01*
X1162Y875D01*
X1162Y877D01*
X1160Y877D01*
X1160Y879D01*
X1158Y879D01*
X1158Y881D01*
X1156Y881D01*
X1156Y883D01*
X1154Y883D01*
X1154Y885D01*
X1152Y885D01*
X1152Y887D01*
X1150Y887D01*
X1150Y889D01*
X1148Y889D01*
X1148Y891D01*
X1146Y891D01*
X1146Y893D01*
X1144Y893D01*
X1144Y895D01*
X1142Y895D01*
X1142Y897D01*
X1140Y897D01*
X1140Y899D01*
X1138Y899D01*
X1138Y901D01*
X1136Y901D01*
X1136Y903D01*
X1134Y903D01*
X1134Y905D01*
X1132Y905D01*
X1132Y907D01*
X1130Y907D01*
X1130Y909D01*
X1128Y909D01*
X1128Y911D01*
X1126Y911D01*
X1126Y913D01*
X1124Y913D01*
X1124Y915D01*
X1122Y915D01*
X1122Y917D01*
X1120Y917D01*
X1120Y919D01*
X1118Y919D01*
X1118Y921D01*
X1116Y921D01*
X1116Y923D01*
X1114Y923D01*
X1114Y925D01*
X1112Y925D01*
X1112Y927D01*
X1110Y927D01*
X1110Y929D01*
X1108Y929D01*
X1108Y931D01*
X1106Y931D01*
X1106Y933D01*
X1104Y933D01*
X1104Y935D01*
X1102Y935D01*
X1102Y937D01*
X1100Y937D01*
X1100Y939D01*
X1098Y939D01*
X1098Y941D01*
X1096Y941D01*
X1096Y943D01*
X1094Y943D01*
X1094Y945D01*
X1092Y945D01*
X1092Y947D01*
X1090Y947D01*
X1090Y949D01*
X1088Y949D01*
X1088Y951D01*
X1086Y951D01*
X1086Y953D01*
X1084Y953D01*
X1084Y955D01*
X1082Y955D01*
X1082Y957D01*
X1080Y957D01*
X1080Y959D01*
X1078Y959D01*
X1078Y961D01*
X1076Y961D01*
X1076Y963D01*
X1074Y963D01*
X1074Y965D01*
X1072Y965D01*
X1072Y967D01*
X1070Y967D01*
X1070Y969D01*
X1068Y969D01*
X1068Y971D01*
X1066Y971D01*
X1066Y973D01*
X1064Y973D01*
X1064Y975D01*
X1062Y975D01*
X1062Y977D01*
X1060Y977D01*
X1060Y979D01*
X1058Y979D01*
X1058Y981D01*
X1056Y981D01*
X1056Y985D01*
X1054Y985D01*
X1054Y989D01*
X1052Y989D01*
X1052Y995D01*
X1050Y995D01*
X1050Y1037D01*
X160Y1037D01*
G37*
D02*
G36*
X1530Y981D02*
X1530Y979D01*
X1528Y979D01*
X1528Y977D01*
X1526Y977D01*
X1526Y975D01*
X1524Y975D01*
X1524Y973D01*
X1522Y973D01*
X1522Y971D01*
X1518Y971D01*
X1518Y969D01*
X1512Y969D01*
X1512Y967D01*
X1452Y967D01*
X1452Y947D01*
X1454Y947D01*
X1454Y945D01*
X1456Y945D01*
X1456Y941D01*
X1458Y941D01*
X1458Y937D01*
X1460Y937D01*
X1460Y931D01*
X1462Y931D01*
X1462Y923D01*
X1464Y923D01*
X1464Y897D01*
X1462Y897D01*
X1462Y889D01*
X1460Y889D01*
X1460Y883D01*
X1458Y883D01*
X1458Y879D01*
X1456Y879D01*
X1456Y875D01*
X1454Y875D01*
X1454Y873D01*
X1452Y873D01*
X1452Y847D01*
X1454Y847D01*
X1454Y845D01*
X1456Y845D01*
X1456Y841D01*
X1458Y841D01*
X1458Y837D01*
X1460Y837D01*
X1460Y831D01*
X1462Y831D01*
X1462Y823D01*
X1464Y823D01*
X1464Y797D01*
X1462Y797D01*
X1462Y789D01*
X1460Y789D01*
X1460Y783D01*
X1458Y783D01*
X1458Y779D01*
X1456Y779D01*
X1456Y775D01*
X1454Y775D01*
X1454Y773D01*
X1452Y773D01*
X1452Y747D01*
X1454Y747D01*
X1454Y745D01*
X1456Y745D01*
X1456Y741D01*
X1458Y741D01*
X1458Y737D01*
X1460Y737D01*
X1460Y731D01*
X1462Y731D01*
X1462Y723D01*
X1464Y723D01*
X1464Y697D01*
X1462Y697D01*
X1462Y689D01*
X1460Y689D01*
X1460Y683D01*
X1458Y683D01*
X1458Y679D01*
X1456Y679D01*
X1456Y675D01*
X1454Y675D01*
X1454Y673D01*
X1452Y673D01*
X1452Y647D01*
X1454Y647D01*
X1454Y645D01*
X1456Y645D01*
X1456Y641D01*
X1458Y641D01*
X1458Y637D01*
X1460Y637D01*
X1460Y631D01*
X1462Y631D01*
X1462Y623D01*
X1464Y623D01*
X1464Y597D01*
X1462Y597D01*
X1462Y589D01*
X1460Y589D01*
X1460Y583D01*
X1458Y583D01*
X1458Y579D01*
X1456Y579D01*
X1456Y575D01*
X1454Y575D01*
X1454Y573D01*
X1452Y573D01*
X1452Y547D01*
X1454Y547D01*
X1454Y545D01*
X1456Y545D01*
X1456Y541D01*
X1458Y541D01*
X1458Y537D01*
X1460Y537D01*
X1460Y531D01*
X1462Y531D01*
X1462Y523D01*
X1464Y523D01*
X1464Y497D01*
X1462Y497D01*
X1462Y489D01*
X1460Y489D01*
X1460Y483D01*
X1458Y483D01*
X1458Y479D01*
X1456Y479D01*
X1456Y475D01*
X1454Y475D01*
X1454Y473D01*
X1452Y473D01*
X1452Y469D01*
X1450Y469D01*
X1450Y467D01*
X1448Y467D01*
X1448Y465D01*
X1446Y465D01*
X1446Y463D01*
X1444Y463D01*
X1444Y461D01*
X1442Y461D01*
X1442Y459D01*
X1440Y459D01*
X1440Y457D01*
X1438Y457D01*
X1438Y455D01*
X1436Y455D01*
X1436Y453D01*
X1434Y453D01*
X1434Y451D01*
X1430Y451D01*
X1430Y449D01*
X1426Y449D01*
X1426Y447D01*
X1422Y447D01*
X1422Y445D01*
X1418Y445D01*
X1418Y443D01*
X1412Y443D01*
X1412Y441D01*
X1676Y441D01*
X1676Y443D01*
X1670Y443D01*
X1670Y445D01*
X1666Y445D01*
X1666Y447D01*
X1662Y447D01*
X1662Y449D01*
X1658Y449D01*
X1658Y451D01*
X1654Y451D01*
X1654Y453D01*
X1652Y453D01*
X1652Y455D01*
X1650Y455D01*
X1650Y457D01*
X1648Y457D01*
X1648Y459D01*
X1646Y459D01*
X1646Y461D01*
X1644Y461D01*
X1644Y463D01*
X1642Y463D01*
X1642Y465D01*
X1640Y465D01*
X1640Y467D01*
X1638Y467D01*
X1638Y469D01*
X1636Y469D01*
X1636Y473D01*
X1634Y473D01*
X1634Y475D01*
X1632Y475D01*
X1632Y479D01*
X1630Y479D01*
X1630Y483D01*
X1628Y483D01*
X1628Y489D01*
X1626Y489D01*
X1626Y497D01*
X1624Y497D01*
X1624Y523D01*
X1626Y523D01*
X1626Y531D01*
X1628Y531D01*
X1628Y537D01*
X1630Y537D01*
X1630Y541D01*
X1632Y541D01*
X1632Y545D01*
X1634Y545D01*
X1634Y547D01*
X1636Y547D01*
X1636Y573D01*
X1634Y573D01*
X1634Y575D01*
X1632Y575D01*
X1632Y579D01*
X1630Y579D01*
X1630Y583D01*
X1628Y583D01*
X1628Y589D01*
X1626Y589D01*
X1626Y597D01*
X1624Y597D01*
X1624Y623D01*
X1626Y623D01*
X1626Y631D01*
X1628Y631D01*
X1628Y637D01*
X1630Y637D01*
X1630Y641D01*
X1632Y641D01*
X1632Y645D01*
X1634Y645D01*
X1634Y647D01*
X1636Y647D01*
X1636Y667D01*
X1576Y667D01*
X1576Y669D01*
X1570Y669D01*
X1570Y671D01*
X1566Y671D01*
X1566Y673D01*
X1564Y673D01*
X1564Y675D01*
X1562Y675D01*
X1562Y677D01*
X1560Y677D01*
X1560Y679D01*
X1558Y679D01*
X1558Y681D01*
X1556Y681D01*
X1556Y685D01*
X1554Y685D01*
X1554Y689D01*
X1552Y689D01*
X1552Y695D01*
X1550Y695D01*
X1550Y981D01*
X1530Y981D01*
G37*
D02*
G36*
X52Y843D02*
X52Y841D01*
X74Y841D01*
X74Y843D01*
X52Y843D01*
G37*
D02*
G36*
X52Y841D02*
X52Y839D01*
X1198Y839D01*
X1198Y841D01*
X52Y841D01*
G37*
D02*
G36*
X52Y841D02*
X52Y839D01*
X1198Y839D01*
X1198Y841D01*
X52Y841D01*
G37*
D02*
G36*
X52Y839D02*
X52Y781D01*
X1110Y781D01*
X1110Y779D01*
X1118Y779D01*
X1118Y777D01*
X1122Y777D01*
X1122Y775D01*
X1126Y775D01*
X1126Y773D01*
X1130Y773D01*
X1130Y771D01*
X1134Y771D01*
X1134Y769D01*
X1136Y769D01*
X1136Y767D01*
X1138Y767D01*
X1138Y765D01*
X1140Y765D01*
X1140Y763D01*
X1142Y763D01*
X1142Y761D01*
X1144Y761D01*
X1144Y759D01*
X1278Y759D01*
X1278Y761D01*
X1272Y761D01*
X1272Y763D01*
X1268Y763D01*
X1268Y765D01*
X1266Y765D01*
X1266Y767D01*
X1262Y767D01*
X1262Y769D01*
X1260Y769D01*
X1260Y771D01*
X1258Y771D01*
X1258Y773D01*
X1256Y773D01*
X1256Y775D01*
X1254Y775D01*
X1254Y777D01*
X1252Y777D01*
X1252Y781D01*
X1250Y781D01*
X1250Y783D01*
X1248Y783D01*
X1248Y787D01*
X1246Y787D01*
X1246Y791D01*
X1244Y791D01*
X1244Y795D01*
X1242Y795D01*
X1242Y797D01*
X1240Y797D01*
X1240Y799D01*
X1238Y799D01*
X1238Y801D01*
X1236Y801D01*
X1236Y803D01*
X1234Y803D01*
X1234Y805D01*
X1232Y805D01*
X1232Y807D01*
X1230Y807D01*
X1230Y809D01*
X1228Y809D01*
X1228Y811D01*
X1226Y811D01*
X1226Y813D01*
X1224Y813D01*
X1224Y815D01*
X1222Y815D01*
X1222Y817D01*
X1220Y817D01*
X1220Y819D01*
X1218Y819D01*
X1218Y821D01*
X1216Y821D01*
X1216Y823D01*
X1214Y823D01*
X1214Y825D01*
X1212Y825D01*
X1212Y827D01*
X1210Y827D01*
X1210Y829D01*
X1208Y829D01*
X1208Y831D01*
X1206Y831D01*
X1206Y833D01*
X1204Y833D01*
X1204Y835D01*
X1202Y835D01*
X1202Y837D01*
X1200Y837D01*
X1200Y839D01*
X52Y839D01*
G37*
D02*
G36*
X52Y781D02*
X52Y777D01*
X74Y777D01*
X74Y779D01*
X86Y779D01*
X86Y781D01*
X52Y781D01*
G37*
D02*
G36*
X102Y781D02*
X102Y779D01*
X114Y779D01*
X114Y777D01*
X120Y777D01*
X120Y775D01*
X124Y775D01*
X124Y773D01*
X128Y773D01*
X128Y771D01*
X132Y771D01*
X132Y769D01*
X134Y769D01*
X134Y767D01*
X136Y767D01*
X136Y765D01*
X140Y765D01*
X140Y763D01*
X142Y763D01*
X142Y761D01*
X144Y761D01*
X144Y759D01*
X146Y759D01*
X146Y757D01*
X148Y757D01*
X148Y753D01*
X150Y753D01*
X150Y751D01*
X152Y751D01*
X152Y749D01*
X154Y749D01*
X154Y745D01*
X156Y745D01*
X156Y743D01*
X158Y743D01*
X158Y739D01*
X160Y739D01*
X160Y733D01*
X162Y733D01*
X162Y725D01*
X164Y725D01*
X164Y695D01*
X162Y695D01*
X162Y687D01*
X160Y687D01*
X160Y683D01*
X158Y683D01*
X158Y679D01*
X156Y679D01*
X156Y675D01*
X154Y675D01*
X154Y671D01*
X152Y671D01*
X152Y649D01*
X154Y649D01*
X154Y645D01*
X156Y645D01*
X156Y643D01*
X158Y643D01*
X158Y639D01*
X160Y639D01*
X160Y633D01*
X162Y633D01*
X162Y625D01*
X164Y625D01*
X164Y595D01*
X162Y595D01*
X162Y587D01*
X160Y587D01*
X160Y583D01*
X158Y583D01*
X158Y579D01*
X156Y579D01*
X156Y575D01*
X154Y575D01*
X154Y571D01*
X152Y571D01*
X152Y549D01*
X154Y549D01*
X154Y545D01*
X156Y545D01*
X156Y543D01*
X158Y543D01*
X158Y539D01*
X160Y539D01*
X160Y533D01*
X162Y533D01*
X162Y525D01*
X164Y525D01*
X164Y495D01*
X162Y495D01*
X162Y487D01*
X160Y487D01*
X160Y483D01*
X158Y483D01*
X158Y479D01*
X156Y479D01*
X156Y475D01*
X154Y475D01*
X154Y471D01*
X152Y471D01*
X152Y449D01*
X154Y449D01*
X154Y445D01*
X156Y445D01*
X156Y443D01*
X158Y443D01*
X158Y439D01*
X378Y439D01*
X378Y441D01*
X370Y441D01*
X370Y443D01*
X366Y443D01*
X366Y445D01*
X362Y445D01*
X362Y447D01*
X358Y447D01*
X358Y449D01*
X356Y449D01*
X356Y451D01*
X352Y451D01*
X352Y453D01*
X350Y453D01*
X350Y455D01*
X348Y455D01*
X348Y457D01*
X346Y457D01*
X346Y459D01*
X344Y459D01*
X344Y461D01*
X342Y461D01*
X342Y463D01*
X340Y463D01*
X340Y465D01*
X338Y465D01*
X338Y467D01*
X336Y467D01*
X336Y469D01*
X334Y469D01*
X334Y473D01*
X332Y473D01*
X332Y475D01*
X330Y475D01*
X330Y479D01*
X328Y479D01*
X328Y485D01*
X326Y485D01*
X326Y489D01*
X324Y489D01*
X324Y531D01*
X326Y531D01*
X326Y537D01*
X328Y537D01*
X328Y541D01*
X330Y541D01*
X330Y545D01*
X332Y545D01*
X332Y547D01*
X334Y547D01*
X334Y573D01*
X332Y573D01*
X332Y575D01*
X330Y575D01*
X330Y579D01*
X328Y579D01*
X328Y585D01*
X326Y585D01*
X326Y589D01*
X324Y589D01*
X324Y631D01*
X326Y631D01*
X326Y637D01*
X328Y637D01*
X328Y641D01*
X330Y641D01*
X330Y645D01*
X332Y645D01*
X332Y647D01*
X334Y647D01*
X334Y673D01*
X332Y673D01*
X332Y675D01*
X330Y675D01*
X330Y679D01*
X328Y679D01*
X328Y685D01*
X326Y685D01*
X326Y689D01*
X324Y689D01*
X324Y731D01*
X326Y731D01*
X326Y737D01*
X328Y737D01*
X328Y741D01*
X330Y741D01*
X330Y745D01*
X332Y745D01*
X332Y747D01*
X334Y747D01*
X334Y751D01*
X336Y751D01*
X336Y753D01*
X338Y753D01*
X338Y755D01*
X340Y755D01*
X340Y757D01*
X342Y757D01*
X342Y759D01*
X344Y759D01*
X344Y761D01*
X346Y761D01*
X346Y763D01*
X348Y763D01*
X348Y765D01*
X350Y765D01*
X350Y767D01*
X352Y767D01*
X352Y769D01*
X354Y769D01*
X354Y771D01*
X358Y771D01*
X358Y773D01*
X362Y773D01*
X362Y775D01*
X366Y775D01*
X366Y777D01*
X370Y777D01*
X370Y779D01*
X378Y779D01*
X378Y781D01*
X102Y781D01*
G37*
D02*
G36*
X410Y781D02*
X410Y779D01*
X418Y779D01*
X418Y777D01*
X422Y777D01*
X422Y775D01*
X426Y775D01*
X426Y773D01*
X430Y773D01*
X430Y771D01*
X434Y771D01*
X434Y769D01*
X436Y769D01*
X436Y767D01*
X438Y767D01*
X438Y765D01*
X440Y765D01*
X440Y763D01*
X442Y763D01*
X442Y761D01*
X444Y761D01*
X444Y759D01*
X446Y759D01*
X446Y757D01*
X448Y757D01*
X448Y755D01*
X450Y755D01*
X450Y753D01*
X452Y753D01*
X452Y751D01*
X454Y751D01*
X454Y747D01*
X456Y747D01*
X456Y745D01*
X458Y745D01*
X458Y741D01*
X460Y741D01*
X460Y737D01*
X462Y737D01*
X462Y731D01*
X464Y731D01*
X464Y719D01*
X466Y719D01*
X466Y701D01*
X464Y701D01*
X464Y689D01*
X462Y689D01*
X462Y685D01*
X460Y685D01*
X460Y679D01*
X458Y679D01*
X458Y675D01*
X456Y675D01*
X456Y673D01*
X454Y673D01*
X454Y647D01*
X456Y647D01*
X456Y645D01*
X458Y645D01*
X458Y641D01*
X460Y641D01*
X460Y637D01*
X462Y637D01*
X462Y631D01*
X464Y631D01*
X464Y619D01*
X466Y619D01*
X466Y601D01*
X464Y601D01*
X464Y589D01*
X462Y589D01*
X462Y585D01*
X460Y585D01*
X460Y579D01*
X458Y579D01*
X458Y575D01*
X456Y575D01*
X456Y573D01*
X454Y573D01*
X454Y547D01*
X456Y547D01*
X456Y545D01*
X458Y545D01*
X458Y541D01*
X460Y541D01*
X460Y537D01*
X462Y537D01*
X462Y531D01*
X464Y531D01*
X464Y519D01*
X466Y519D01*
X466Y501D01*
X464Y501D01*
X464Y489D01*
X462Y489D01*
X462Y485D01*
X460Y485D01*
X460Y479D01*
X458Y479D01*
X458Y475D01*
X456Y475D01*
X456Y473D01*
X454Y473D01*
X454Y469D01*
X452Y469D01*
X452Y467D01*
X450Y467D01*
X450Y465D01*
X448Y465D01*
X448Y463D01*
X446Y463D01*
X446Y461D01*
X444Y461D01*
X444Y459D01*
X442Y459D01*
X442Y457D01*
X440Y457D01*
X440Y455D01*
X438Y455D01*
X438Y453D01*
X436Y453D01*
X436Y451D01*
X432Y451D01*
X432Y449D01*
X430Y449D01*
X430Y447D01*
X426Y447D01*
X426Y445D01*
X422Y445D01*
X422Y443D01*
X418Y443D01*
X418Y441D01*
X410Y441D01*
X410Y439D01*
X1078Y439D01*
X1078Y441D01*
X1070Y441D01*
X1070Y443D01*
X1066Y443D01*
X1066Y445D01*
X1062Y445D01*
X1062Y447D01*
X1058Y447D01*
X1058Y449D01*
X1056Y449D01*
X1056Y451D01*
X1052Y451D01*
X1052Y453D01*
X1050Y453D01*
X1050Y455D01*
X1048Y455D01*
X1048Y457D01*
X1046Y457D01*
X1046Y459D01*
X1044Y459D01*
X1044Y461D01*
X1042Y461D01*
X1042Y463D01*
X1040Y463D01*
X1040Y465D01*
X1038Y465D01*
X1038Y467D01*
X1036Y467D01*
X1036Y469D01*
X1034Y469D01*
X1034Y473D01*
X1032Y473D01*
X1032Y475D01*
X1030Y475D01*
X1030Y479D01*
X1028Y479D01*
X1028Y485D01*
X1026Y485D01*
X1026Y489D01*
X1024Y489D01*
X1024Y509D01*
X1022Y509D01*
X1022Y511D01*
X1024Y511D01*
X1024Y531D01*
X1026Y531D01*
X1026Y537D01*
X1028Y537D01*
X1028Y541D01*
X1030Y541D01*
X1030Y545D01*
X1032Y545D01*
X1032Y547D01*
X1034Y547D01*
X1034Y573D01*
X1032Y573D01*
X1032Y575D01*
X1030Y575D01*
X1030Y579D01*
X1028Y579D01*
X1028Y585D01*
X1026Y585D01*
X1026Y589D01*
X1024Y589D01*
X1024Y609D01*
X1022Y609D01*
X1022Y611D01*
X1024Y611D01*
X1024Y631D01*
X1026Y631D01*
X1026Y637D01*
X1028Y637D01*
X1028Y641D01*
X1030Y641D01*
X1030Y645D01*
X1032Y645D01*
X1032Y647D01*
X1034Y647D01*
X1034Y673D01*
X1032Y673D01*
X1032Y675D01*
X1030Y675D01*
X1030Y679D01*
X1028Y679D01*
X1028Y685D01*
X1026Y685D01*
X1026Y689D01*
X1024Y689D01*
X1024Y731D01*
X1026Y731D01*
X1026Y737D01*
X1028Y737D01*
X1028Y741D01*
X1030Y741D01*
X1030Y745D01*
X1032Y745D01*
X1032Y747D01*
X1034Y747D01*
X1034Y751D01*
X1036Y751D01*
X1036Y753D01*
X1038Y753D01*
X1038Y755D01*
X1040Y755D01*
X1040Y757D01*
X1042Y757D01*
X1042Y759D01*
X1044Y759D01*
X1044Y761D01*
X1046Y761D01*
X1046Y763D01*
X1048Y763D01*
X1048Y765D01*
X1050Y765D01*
X1050Y767D01*
X1052Y767D01*
X1052Y769D01*
X1054Y769D01*
X1054Y771D01*
X1058Y771D01*
X1058Y773D01*
X1062Y773D01*
X1062Y775D01*
X1066Y775D01*
X1066Y777D01*
X1070Y777D01*
X1070Y779D01*
X1078Y779D01*
X1078Y781D01*
X410Y781D01*
G37*
D02*
G36*
X1316Y763D02*
X1316Y761D01*
X1310Y761D01*
X1310Y759D01*
X1336Y759D01*
X1336Y763D01*
X1316Y763D01*
G37*
D02*
G36*
X1146Y759D02*
X1146Y757D01*
X1336Y757D01*
X1336Y759D01*
X1146Y759D01*
G37*
D02*
G36*
X1146Y759D02*
X1146Y757D01*
X1336Y757D01*
X1336Y759D01*
X1146Y759D01*
G37*
D02*
G36*
X1148Y757D02*
X1148Y755D01*
X1150Y755D01*
X1150Y753D01*
X1152Y753D01*
X1152Y751D01*
X1154Y751D01*
X1154Y747D01*
X1156Y747D01*
X1156Y745D01*
X1158Y745D01*
X1158Y741D01*
X1160Y741D01*
X1160Y737D01*
X1162Y737D01*
X1162Y731D01*
X1164Y731D01*
X1164Y689D01*
X1162Y689D01*
X1162Y685D01*
X1160Y685D01*
X1160Y679D01*
X1158Y679D01*
X1158Y675D01*
X1156Y675D01*
X1156Y673D01*
X1154Y673D01*
X1154Y647D01*
X1156Y647D01*
X1156Y645D01*
X1158Y645D01*
X1158Y641D01*
X1160Y641D01*
X1160Y637D01*
X1162Y637D01*
X1162Y631D01*
X1164Y631D01*
X1164Y589D01*
X1162Y589D01*
X1162Y585D01*
X1160Y585D01*
X1160Y579D01*
X1158Y579D01*
X1158Y575D01*
X1156Y575D01*
X1156Y573D01*
X1154Y573D01*
X1154Y547D01*
X1156Y547D01*
X1156Y545D01*
X1158Y545D01*
X1158Y541D01*
X1160Y541D01*
X1160Y537D01*
X1162Y537D01*
X1162Y531D01*
X1164Y531D01*
X1164Y489D01*
X1162Y489D01*
X1162Y485D01*
X1160Y485D01*
X1160Y479D01*
X1158Y479D01*
X1158Y475D01*
X1156Y475D01*
X1156Y473D01*
X1154Y473D01*
X1154Y469D01*
X1152Y469D01*
X1152Y467D01*
X1150Y467D01*
X1150Y465D01*
X1148Y465D01*
X1148Y463D01*
X1146Y463D01*
X1146Y461D01*
X1144Y461D01*
X1144Y459D01*
X1142Y459D01*
X1142Y457D01*
X1140Y457D01*
X1140Y455D01*
X1138Y455D01*
X1138Y453D01*
X1136Y453D01*
X1136Y451D01*
X1132Y451D01*
X1132Y449D01*
X1130Y449D01*
X1130Y447D01*
X1126Y447D01*
X1126Y445D01*
X1122Y445D01*
X1122Y443D01*
X1118Y443D01*
X1118Y441D01*
X1376Y441D01*
X1376Y443D01*
X1370Y443D01*
X1370Y445D01*
X1366Y445D01*
X1366Y447D01*
X1362Y447D01*
X1362Y449D01*
X1358Y449D01*
X1358Y451D01*
X1354Y451D01*
X1354Y453D01*
X1352Y453D01*
X1352Y455D01*
X1350Y455D01*
X1350Y457D01*
X1348Y457D01*
X1348Y459D01*
X1346Y459D01*
X1346Y461D01*
X1344Y461D01*
X1344Y463D01*
X1342Y463D01*
X1342Y465D01*
X1340Y465D01*
X1340Y467D01*
X1338Y467D01*
X1338Y469D01*
X1336Y469D01*
X1336Y473D01*
X1334Y473D01*
X1334Y475D01*
X1332Y475D01*
X1332Y479D01*
X1330Y479D01*
X1330Y483D01*
X1328Y483D01*
X1328Y489D01*
X1326Y489D01*
X1326Y497D01*
X1324Y497D01*
X1324Y523D01*
X1326Y523D01*
X1326Y531D01*
X1328Y531D01*
X1328Y537D01*
X1330Y537D01*
X1330Y541D01*
X1332Y541D01*
X1332Y545D01*
X1334Y545D01*
X1334Y547D01*
X1336Y547D01*
X1336Y573D01*
X1334Y573D01*
X1334Y575D01*
X1332Y575D01*
X1332Y579D01*
X1330Y579D01*
X1330Y583D01*
X1328Y583D01*
X1328Y589D01*
X1326Y589D01*
X1326Y597D01*
X1324Y597D01*
X1324Y623D01*
X1326Y623D01*
X1326Y631D01*
X1328Y631D01*
X1328Y637D01*
X1330Y637D01*
X1330Y641D01*
X1332Y641D01*
X1332Y645D01*
X1334Y645D01*
X1334Y647D01*
X1336Y647D01*
X1336Y673D01*
X1334Y673D01*
X1334Y675D01*
X1332Y675D01*
X1332Y679D01*
X1330Y679D01*
X1330Y683D01*
X1328Y683D01*
X1328Y689D01*
X1326Y689D01*
X1326Y697D01*
X1324Y697D01*
X1324Y723D01*
X1326Y723D01*
X1326Y731D01*
X1328Y731D01*
X1328Y737D01*
X1330Y737D01*
X1330Y741D01*
X1332Y741D01*
X1332Y745D01*
X1334Y745D01*
X1334Y747D01*
X1336Y747D01*
X1336Y757D01*
X1148Y757D01*
G37*
D02*
G36*
X1748Y467D02*
X1748Y465D01*
X1746Y465D01*
X1746Y463D01*
X1744Y463D01*
X1744Y461D01*
X1742Y461D01*
X1742Y459D01*
X1740Y459D01*
X1740Y457D01*
X1738Y457D01*
X1738Y455D01*
X1736Y455D01*
X1736Y453D01*
X1734Y453D01*
X1734Y451D01*
X1730Y451D01*
X1730Y449D01*
X1726Y449D01*
X1726Y447D01*
X1722Y447D01*
X1722Y445D01*
X1718Y445D01*
X1718Y443D01*
X1712Y443D01*
X1712Y441D01*
X1930Y441D01*
X1930Y443D01*
X1932Y443D01*
X1932Y445D01*
X1934Y445D01*
X1934Y467D01*
X1748Y467D01*
G37*
D02*
G36*
X1110Y441D02*
X1110Y439D01*
X1930Y439D01*
X1930Y441D01*
X1110Y441D01*
G37*
D02*
G36*
X1110Y441D02*
X1110Y439D01*
X1930Y439D01*
X1930Y441D01*
X1110Y441D01*
G37*
D02*
G36*
X1110Y441D02*
X1110Y439D01*
X1930Y439D01*
X1930Y441D01*
X1110Y441D01*
G37*
D02*
G36*
X160Y439D02*
X160Y437D01*
X1928Y437D01*
X1928Y439D01*
X160Y439D01*
G37*
D02*
G36*
X160Y439D02*
X160Y437D01*
X1928Y437D01*
X1928Y439D01*
X160Y439D01*
G37*
D02*
G36*
X160Y439D02*
X160Y437D01*
X1928Y437D01*
X1928Y439D01*
X160Y439D01*
G37*
D02*
G36*
X160Y437D02*
X160Y433D01*
X162Y433D01*
X162Y425D01*
X164Y425D01*
X164Y395D01*
X162Y395D01*
X162Y387D01*
X160Y387D01*
X160Y383D01*
X158Y383D01*
X158Y379D01*
X156Y379D01*
X156Y375D01*
X154Y375D01*
X154Y371D01*
X152Y371D01*
X152Y349D01*
X154Y349D01*
X154Y345D01*
X156Y345D01*
X156Y343D01*
X158Y343D01*
X158Y339D01*
X160Y339D01*
X160Y333D01*
X162Y333D01*
X162Y325D01*
X164Y325D01*
X164Y295D01*
X162Y295D01*
X162Y287D01*
X160Y287D01*
X160Y283D01*
X158Y283D01*
X158Y279D01*
X156Y279D01*
X156Y275D01*
X154Y275D01*
X154Y271D01*
X152Y271D01*
X152Y249D01*
X154Y249D01*
X154Y245D01*
X156Y245D01*
X156Y243D01*
X158Y243D01*
X158Y241D01*
X1482Y241D01*
X1482Y97D01*
X1530Y97D01*
X1530Y99D01*
X1532Y99D01*
X1532Y101D01*
X1534Y101D01*
X1534Y103D01*
X1536Y103D01*
X1536Y107D01*
X1538Y107D01*
X1538Y109D01*
X1540Y109D01*
X1540Y111D01*
X1542Y111D01*
X1542Y113D01*
X1544Y113D01*
X1544Y115D01*
X1546Y115D01*
X1546Y119D01*
X1548Y119D01*
X1548Y121D01*
X1550Y121D01*
X1550Y123D01*
X1552Y123D01*
X1552Y125D01*
X1554Y125D01*
X1554Y127D01*
X1556Y127D01*
X1556Y129D01*
X1558Y129D01*
X1558Y131D01*
X1560Y131D01*
X1560Y133D01*
X1562Y133D01*
X1562Y135D01*
X1564Y135D01*
X1564Y137D01*
X1566Y137D01*
X1566Y139D01*
X1568Y139D01*
X1568Y141D01*
X1570Y141D01*
X1570Y143D01*
X1572Y143D01*
X1572Y145D01*
X1574Y145D01*
X1574Y147D01*
X1576Y147D01*
X1576Y149D01*
X1578Y149D01*
X1578Y151D01*
X1580Y151D01*
X1580Y153D01*
X1582Y153D01*
X1582Y155D01*
X1584Y155D01*
X1584Y157D01*
X1586Y157D01*
X1586Y159D01*
X1588Y159D01*
X1588Y161D01*
X1590Y161D01*
X1590Y163D01*
X1592Y163D01*
X1592Y165D01*
X1594Y165D01*
X1594Y167D01*
X1596Y167D01*
X1596Y169D01*
X1926Y169D01*
X1926Y195D01*
X1924Y195D01*
X1924Y225D01*
X1926Y225D01*
X1926Y233D01*
X1928Y233D01*
X1928Y239D01*
X1930Y239D01*
X1930Y243D01*
X1932Y243D01*
X1932Y245D01*
X1934Y245D01*
X1934Y249D01*
X1936Y249D01*
X1936Y271D01*
X1934Y271D01*
X1934Y275D01*
X1932Y275D01*
X1932Y279D01*
X1930Y279D01*
X1930Y283D01*
X1928Y283D01*
X1928Y287D01*
X1926Y287D01*
X1926Y295D01*
X1924Y295D01*
X1924Y325D01*
X1926Y325D01*
X1926Y333D01*
X1928Y333D01*
X1928Y339D01*
X1930Y339D01*
X1930Y343D01*
X1932Y343D01*
X1932Y345D01*
X1934Y345D01*
X1934Y349D01*
X1936Y349D01*
X1936Y371D01*
X1934Y371D01*
X1934Y375D01*
X1932Y375D01*
X1932Y379D01*
X1930Y379D01*
X1930Y383D01*
X1928Y383D01*
X1928Y387D01*
X1926Y387D01*
X1926Y395D01*
X1924Y395D01*
X1924Y425D01*
X1926Y425D01*
X1926Y433D01*
X1928Y433D01*
X1928Y437D01*
X160Y437D01*
G37*
D02*
G36*
X158Y241D02*
X158Y239D01*
X160Y239D01*
X160Y233D01*
X162Y233D01*
X162Y225D01*
X164Y225D01*
X164Y195D01*
X162Y195D01*
X162Y187D01*
X160Y187D01*
X160Y183D01*
X158Y183D01*
X158Y179D01*
X156Y179D01*
X156Y175D01*
X154Y175D01*
X154Y171D01*
X152Y171D01*
X152Y169D01*
X150Y169D01*
X150Y167D01*
X148Y167D01*
X148Y165D01*
X146Y165D01*
X146Y161D01*
X144Y161D01*
X144Y159D01*
X142Y159D01*
X142Y157D01*
X138Y157D01*
X138Y155D01*
X136Y155D01*
X136Y153D01*
X134Y153D01*
X134Y151D01*
X130Y151D01*
X130Y129D01*
X132Y129D01*
X132Y127D01*
X134Y127D01*
X134Y125D01*
X136Y125D01*
X136Y123D01*
X138Y123D01*
X138Y121D01*
X140Y121D01*
X140Y119D01*
X142Y119D01*
X142Y117D01*
X144Y117D01*
X144Y115D01*
X146Y115D01*
X146Y113D01*
X148Y113D01*
X148Y111D01*
X150Y111D01*
X150Y109D01*
X152Y109D01*
X152Y107D01*
X154Y107D01*
X154Y105D01*
X156Y105D01*
X156Y103D01*
X158Y103D01*
X158Y101D01*
X160Y101D01*
X160Y99D01*
X162Y99D01*
X162Y97D01*
X272Y97D01*
X272Y99D01*
X264Y99D01*
X264Y101D01*
X258Y101D01*
X258Y103D01*
X254Y103D01*
X254Y105D01*
X250Y105D01*
X250Y107D01*
X248Y107D01*
X248Y109D01*
X244Y109D01*
X244Y111D01*
X242Y111D01*
X242Y113D01*
X240Y113D01*
X240Y115D01*
X238Y115D01*
X238Y117D01*
X234Y117D01*
X234Y119D01*
X232Y119D01*
X232Y123D01*
X230Y123D01*
X230Y125D01*
X228Y125D01*
X228Y127D01*
X226Y127D01*
X226Y129D01*
X224Y129D01*
X224Y133D01*
X222Y133D01*
X222Y137D01*
X220Y137D01*
X220Y141D01*
X218Y141D01*
X218Y145D01*
X216Y145D01*
X216Y153D01*
X214Y153D01*
X214Y187D01*
X216Y187D01*
X216Y193D01*
X218Y193D01*
X218Y199D01*
X220Y199D01*
X220Y203D01*
X222Y203D01*
X222Y205D01*
X224Y205D01*
X224Y209D01*
X226Y209D01*
X226Y211D01*
X228Y211D01*
X228Y215D01*
X230Y215D01*
X230Y217D01*
X232Y217D01*
X232Y219D01*
X234Y219D01*
X234Y221D01*
X236Y221D01*
X236Y223D01*
X238Y223D01*
X238Y225D01*
X240Y225D01*
X240Y227D01*
X244Y227D01*
X244Y229D01*
X246Y229D01*
X246Y231D01*
X250Y231D01*
X250Y233D01*
X252Y233D01*
X252Y235D01*
X256Y235D01*
X256Y237D01*
X262Y237D01*
X262Y239D01*
X268Y239D01*
X268Y241D01*
X158Y241D01*
G37*
D02*
G36*
X304Y241D02*
X304Y239D01*
X310Y239D01*
X310Y237D01*
X316Y237D01*
X316Y235D01*
X320Y235D01*
X320Y233D01*
X322Y233D01*
X322Y231D01*
X326Y231D01*
X326Y229D01*
X328Y229D01*
X328Y227D01*
X330Y227D01*
X330Y225D01*
X352Y225D01*
X352Y241D01*
X304Y241D01*
G37*
D02*
G36*
X496Y241D02*
X496Y97D01*
X598Y97D01*
X598Y99D01*
X590Y99D01*
X590Y101D01*
X586Y101D01*
X586Y103D01*
X582Y103D01*
X582Y105D01*
X578Y105D01*
X578Y107D01*
X576Y107D01*
X576Y109D01*
X572Y109D01*
X572Y111D01*
X570Y111D01*
X570Y113D01*
X568Y113D01*
X568Y115D01*
X566Y115D01*
X566Y117D01*
X564Y117D01*
X564Y119D01*
X562Y119D01*
X562Y121D01*
X560Y121D01*
X560Y123D01*
X558Y123D01*
X558Y125D01*
X556Y125D01*
X556Y127D01*
X554Y127D01*
X554Y131D01*
X552Y131D01*
X552Y135D01*
X550Y135D01*
X550Y137D01*
X548Y137D01*
X548Y143D01*
X546Y143D01*
X546Y147D01*
X544Y147D01*
X544Y159D01*
X542Y159D01*
X542Y179D01*
X544Y179D01*
X544Y189D01*
X546Y189D01*
X546Y195D01*
X548Y195D01*
X548Y199D01*
X550Y199D01*
X550Y203D01*
X552Y203D01*
X552Y207D01*
X554Y207D01*
X554Y209D01*
X556Y209D01*
X556Y213D01*
X558Y213D01*
X558Y215D01*
X560Y215D01*
X560Y217D01*
X562Y217D01*
X562Y219D01*
X564Y219D01*
X564Y221D01*
X566Y221D01*
X566Y223D01*
X568Y223D01*
X568Y225D01*
X570Y225D01*
X570Y227D01*
X574Y227D01*
X574Y229D01*
X576Y229D01*
X576Y231D01*
X580Y231D01*
X580Y233D01*
X582Y233D01*
X582Y235D01*
X586Y235D01*
X586Y237D01*
X592Y237D01*
X592Y239D01*
X600Y239D01*
X600Y241D01*
X496Y241D01*
G37*
D02*
G36*
X630Y241D02*
X630Y239D01*
X638Y239D01*
X638Y237D01*
X642Y237D01*
X642Y235D01*
X648Y235D01*
X648Y233D01*
X650Y233D01*
X650Y231D01*
X654Y231D01*
X654Y229D01*
X656Y229D01*
X656Y227D01*
X660Y227D01*
X660Y225D01*
X680Y225D01*
X680Y241D01*
X630Y241D01*
G37*
D02*
G36*
X824Y241D02*
X824Y97D01*
X928Y97D01*
X928Y99D01*
X920Y99D01*
X920Y101D01*
X916Y101D01*
X916Y103D01*
X912Y103D01*
X912Y105D01*
X908Y105D01*
X908Y107D01*
X904Y107D01*
X904Y109D01*
X902Y109D01*
X902Y111D01*
X900Y111D01*
X900Y113D01*
X896Y113D01*
X896Y115D01*
X894Y115D01*
X894Y117D01*
X892Y117D01*
X892Y119D01*
X890Y119D01*
X890Y121D01*
X888Y121D01*
X888Y123D01*
X886Y123D01*
X886Y127D01*
X884Y127D01*
X884Y129D01*
X882Y129D01*
X882Y133D01*
X880Y133D01*
X880Y135D01*
X878Y135D01*
X878Y139D01*
X876Y139D01*
X876Y143D01*
X874Y143D01*
X874Y149D01*
X872Y149D01*
X872Y189D01*
X874Y189D01*
X874Y195D01*
X876Y195D01*
X876Y199D01*
X878Y199D01*
X878Y203D01*
X880Y203D01*
X880Y207D01*
X882Y207D01*
X882Y209D01*
X884Y209D01*
X884Y213D01*
X886Y213D01*
X886Y215D01*
X888Y215D01*
X888Y217D01*
X890Y217D01*
X890Y219D01*
X892Y219D01*
X892Y221D01*
X894Y221D01*
X894Y223D01*
X896Y223D01*
X896Y225D01*
X898Y225D01*
X898Y227D01*
X900Y227D01*
X900Y229D01*
X904Y229D01*
X904Y231D01*
X906Y231D01*
X906Y233D01*
X910Y233D01*
X910Y235D01*
X914Y235D01*
X914Y237D01*
X918Y237D01*
X918Y239D01*
X926Y239D01*
X926Y241D01*
X824Y241D01*
G37*
D02*
G36*
X962Y241D02*
X962Y239D01*
X968Y239D01*
X968Y237D01*
X972Y237D01*
X972Y235D01*
X976Y235D01*
X976Y233D01*
X980Y233D01*
X980Y231D01*
X984Y231D01*
X984Y229D01*
X986Y229D01*
X986Y227D01*
X988Y227D01*
X988Y225D01*
X990Y225D01*
X990Y223D01*
X1010Y223D01*
X1010Y241D01*
X962Y241D01*
G37*
D02*
G36*
X1154Y241D02*
X1154Y99D01*
X1152Y99D01*
X1152Y97D01*
X1258Y97D01*
X1258Y99D01*
X1250Y99D01*
X1250Y101D01*
X1246Y101D01*
X1246Y103D01*
X1240Y103D01*
X1240Y105D01*
X1238Y105D01*
X1238Y107D01*
X1234Y107D01*
X1234Y109D01*
X1232Y109D01*
X1232Y111D01*
X1228Y111D01*
X1228Y113D01*
X1226Y113D01*
X1226Y115D01*
X1224Y115D01*
X1224Y117D01*
X1222Y117D01*
X1222Y119D01*
X1220Y119D01*
X1220Y121D01*
X1218Y121D01*
X1218Y123D01*
X1216Y123D01*
X1216Y125D01*
X1214Y125D01*
X1214Y129D01*
X1212Y129D01*
X1212Y131D01*
X1210Y131D01*
X1210Y135D01*
X1208Y135D01*
X1208Y139D01*
X1206Y139D01*
X1206Y143D01*
X1204Y143D01*
X1204Y149D01*
X1202Y149D01*
X1202Y159D01*
X1200Y159D01*
X1200Y179D01*
X1202Y179D01*
X1202Y191D01*
X1204Y191D01*
X1204Y195D01*
X1206Y195D01*
X1206Y201D01*
X1208Y201D01*
X1208Y205D01*
X1210Y205D01*
X1210Y207D01*
X1212Y207D01*
X1212Y211D01*
X1214Y211D01*
X1214Y213D01*
X1216Y213D01*
X1216Y215D01*
X1218Y215D01*
X1218Y217D01*
X1220Y217D01*
X1220Y219D01*
X1222Y219D01*
X1222Y221D01*
X1224Y221D01*
X1224Y223D01*
X1226Y223D01*
X1226Y225D01*
X1228Y225D01*
X1228Y227D01*
X1230Y227D01*
X1230Y229D01*
X1234Y229D01*
X1234Y231D01*
X1236Y231D01*
X1236Y233D01*
X1240Y233D01*
X1240Y235D01*
X1244Y235D01*
X1244Y237D01*
X1248Y237D01*
X1248Y239D01*
X1254Y239D01*
X1254Y241D01*
X1154Y241D01*
G37*
D02*
G36*
X1292Y241D02*
X1292Y239D01*
X1298Y239D01*
X1298Y237D01*
X1302Y237D01*
X1302Y235D01*
X1306Y235D01*
X1306Y233D01*
X1310Y233D01*
X1310Y231D01*
X1312Y231D01*
X1312Y229D01*
X1316Y229D01*
X1316Y227D01*
X1318Y227D01*
X1318Y225D01*
X1338Y225D01*
X1338Y241D01*
X1292Y241D01*
G37*
D02*
G36*
X332Y115D02*
X332Y113D01*
X330Y113D01*
X330Y111D01*
X328Y111D01*
X328Y109D01*
X324Y109D01*
X324Y107D01*
X322Y107D01*
X322Y105D01*
X318Y105D01*
X318Y103D01*
X314Y103D01*
X314Y101D01*
X308Y101D01*
X308Y99D01*
X300Y99D01*
X300Y97D01*
X352Y97D01*
X352Y115D01*
X332Y115D01*
G37*
D02*
G36*
X990Y115D02*
X990Y113D01*
X988Y113D01*
X988Y111D01*
X984Y111D01*
X984Y109D01*
X982Y109D01*
X982Y107D01*
X978Y107D01*
X978Y105D01*
X976Y105D01*
X976Y103D01*
X970Y103D01*
X970Y101D01*
X966Y101D01*
X966Y99D01*
X958Y99D01*
X958Y97D01*
X1010Y97D01*
X1010Y115D01*
X990Y115D01*
G37*
D02*
G36*
X660Y113D02*
X660Y111D01*
X658Y111D01*
X658Y109D01*
X654Y109D01*
X654Y107D01*
X652Y107D01*
X652Y105D01*
X648Y105D01*
X648Y103D01*
X644Y103D01*
X644Y101D01*
X640Y101D01*
X640Y99D01*
X632Y99D01*
X632Y97D01*
X680Y97D01*
X680Y113D01*
X660Y113D01*
G37*
D02*
G36*
X1318Y113D02*
X1318Y111D01*
X1314Y111D01*
X1314Y109D01*
X1312Y109D01*
X1312Y107D01*
X1308Y107D01*
X1308Y105D01*
X1304Y105D01*
X1304Y103D01*
X1300Y103D01*
X1300Y101D01*
X1296Y101D01*
X1296Y99D01*
X1288Y99D01*
X1288Y97D01*
X1338Y97D01*
X1338Y113D01*
X1318Y113D01*
G37*
D02*
G36*
X164Y97D02*
X164Y95D01*
X1528Y95D01*
X1528Y97D01*
X164Y97D01*
G37*
D02*
G36*
X164Y97D02*
X164Y95D01*
X1528Y95D01*
X1528Y97D01*
X164Y97D01*
G37*
D02*
G36*
X164Y97D02*
X164Y95D01*
X1528Y95D01*
X1528Y97D01*
X164Y97D01*
G37*
D02*
G36*
X164Y97D02*
X164Y95D01*
X1528Y95D01*
X1528Y97D01*
X164Y97D01*
G37*
D02*
G36*
X164Y97D02*
X164Y95D01*
X1528Y95D01*
X1528Y97D01*
X164Y97D01*
G37*
D02*
G36*
X164Y97D02*
X164Y95D01*
X1528Y95D01*
X1528Y97D01*
X164Y97D01*
G37*
D02*
G36*
X164Y97D02*
X164Y95D01*
X1528Y95D01*
X1528Y97D01*
X164Y97D01*
G37*
D02*
G36*
X164Y97D02*
X164Y95D01*
X1528Y95D01*
X1528Y97D01*
X164Y97D01*
G37*
D02*
G36*
X164Y97D02*
X164Y95D01*
X1528Y95D01*
X1528Y97D01*
X164Y97D01*
G37*
D02*
G36*
X166Y95D02*
X166Y93D01*
X168Y93D01*
X168Y91D01*
X170Y91D01*
X170Y89D01*
X172Y89D01*
X172Y87D01*
X174Y87D01*
X174Y85D01*
X176Y85D01*
X176Y83D01*
X178Y83D01*
X178Y81D01*
X180Y81D01*
X180Y79D01*
X182Y79D01*
X182Y77D01*
X184Y77D01*
X184Y75D01*
X186Y75D01*
X186Y73D01*
X188Y73D01*
X188Y71D01*
X190Y71D01*
X190Y69D01*
X192Y69D01*
X192Y67D01*
X194Y67D01*
X194Y65D01*
X196Y65D01*
X196Y63D01*
X198Y63D01*
X198Y61D01*
X200Y61D01*
X200Y59D01*
X202Y59D01*
X202Y57D01*
X204Y57D01*
X204Y55D01*
X206Y55D01*
X206Y53D01*
X208Y53D01*
X208Y51D01*
X1492Y51D01*
X1492Y55D01*
X1494Y55D01*
X1494Y57D01*
X1496Y57D01*
X1496Y59D01*
X1498Y59D01*
X1498Y61D01*
X1500Y61D01*
X1500Y63D01*
X1502Y63D01*
X1502Y67D01*
X1504Y67D01*
X1504Y69D01*
X1506Y69D01*
X1506Y71D01*
X1508Y71D01*
X1508Y73D01*
X1510Y73D01*
X1510Y75D01*
X1512Y75D01*
X1512Y77D01*
X1514Y77D01*
X1514Y81D01*
X1516Y81D01*
X1516Y83D01*
X1518Y83D01*
X1518Y85D01*
X1520Y85D01*
X1520Y87D01*
X1522Y87D01*
X1522Y89D01*
X1524Y89D01*
X1524Y93D01*
X1526Y93D01*
X1526Y95D01*
X166Y95D01*
G37*
D02*
G36*
X1373Y495D02*
X1410Y495D01*
X1410Y441D01*
X1373Y441D01*
X1373Y495D01*
G37*
D02*
G36*
X1320Y530D02*
X1374Y530D01*
X1374Y493D01*
X1320Y493D01*
X1320Y530D01*
G37*
D02*
G36*
X1408Y530D02*
X1464Y530D01*
X1464Y493D01*
X1408Y493D01*
X1408Y530D01*
G37*
D02*
G36*
X1320Y630D02*
X1374Y630D01*
X1374Y593D01*
X1320Y593D01*
X1320Y630D01*
G37*
D02*
G36*
X1408Y630D02*
X1464Y630D01*
X1464Y593D01*
X1408Y593D01*
X1408Y630D01*
G37*
D02*
G36*
X1408Y730D02*
X1464Y730D01*
X1464Y693D01*
X1408Y693D01*
X1408Y730D01*
G37*
D02*
G36*
X2008Y1700D02*
X2100Y1700D01*
X2100Y1663D01*
X2008Y1663D01*
X2008Y1700D01*
G37*
D02*
G36*
X108Y1130D02*
X164Y1130D01*
X164Y1093D01*
X108Y1093D01*
X108Y1130D01*
G37*
D02*
G36*
X1072Y785D02*
X1111Y785D01*
X1111Y731D01*
X1072Y731D01*
X1072Y785D01*
G37*
D02*
G36*
X1072Y1385D02*
X1111Y1385D01*
X1111Y1331D01*
X1072Y1331D01*
X1072Y1385D01*
G37*
D02*
G36*
X1110Y1331D02*
X1164Y1331D01*
X1164Y1292D01*
X1110Y1292D01*
X1110Y1331D01*
G37*
D02*
G36*
X1072Y1985D02*
X1111Y1985D01*
X1111Y1931D01*
X1072Y1931D01*
X1072Y1985D01*
G37*
D02*
G36*
X1110Y1931D02*
X1164Y1931D01*
X1164Y1892D01*
X1110Y1892D01*
X1110Y1931D01*
G37*
D02*
G36*
X1072Y2585D02*
X1111Y2585D01*
X1111Y2531D01*
X1072Y2531D01*
X1072Y2585D01*
G37*
D02*
G54D18*
X0Y1130D02*
X73Y1130D01*
X0Y1129D02*
X73Y1129D01*
X0Y1128D02*
X73Y1128D01*
X0Y1127D02*
X73Y1127D01*
X0Y1126D02*
X73Y1126D01*
X0Y1125D02*
X73Y1125D01*
X0Y1124D02*
X73Y1124D01*
X0Y1123D02*
X73Y1123D01*
X0Y1122D02*
X73Y1122D01*
X0Y1121D02*
X73Y1121D01*
X0Y1120D02*
X73Y1120D01*
X0Y1119D02*
X73Y1119D01*
X0Y1118D02*
X73Y1118D01*
X0Y1117D02*
X73Y1117D01*
X0Y1116D02*
X73Y1116D01*
X0Y1115D02*
X73Y1115D01*
X0Y1114D02*
X73Y1114D01*
X0Y1113D02*
X73Y1113D01*
X0Y1112D02*
X73Y1112D01*
X0Y1111D02*
X73Y1111D01*
X0Y1110D02*
X73Y1110D01*
X0Y1109D02*
X73Y1109D01*
X0Y1108D02*
X73Y1108D01*
X0Y1107D02*
X73Y1107D01*
X0Y1106D02*
X73Y1106D01*
X0Y1105D02*
X73Y1105D01*
X0Y1104D02*
X73Y1104D01*
X0Y1103D02*
X73Y1103D01*
X0Y1102D02*
X73Y1102D01*
X0Y1101D02*
X73Y1101D01*
X0Y1100D02*
X73Y1100D01*
X0Y1099D02*
X73Y1099D01*
X0Y1098D02*
X73Y1098D01*
X0Y1097D02*
X73Y1097D01*
X0Y1096D02*
X73Y1096D01*
X0Y1095D02*
X73Y1095D01*
X0Y1094D02*
X73Y1094D01*
X0Y1030D02*
X73Y1030D01*
X0Y1029D02*
X73Y1029D01*
X0Y1028D02*
X73Y1028D01*
X0Y1027D02*
X73Y1027D01*
X0Y1026D02*
X73Y1026D01*
X0Y1025D02*
X73Y1025D01*
X0Y1024D02*
X73Y1024D01*
X0Y1023D02*
X73Y1023D01*
X0Y1022D02*
X73Y1022D01*
X0Y1021D02*
X73Y1021D01*
X0Y1020D02*
X73Y1020D01*
X0Y1019D02*
X73Y1019D01*
X0Y1018D02*
X73Y1018D01*
X0Y1017D02*
X73Y1017D01*
X0Y1016D02*
X73Y1016D01*
X0Y1015D02*
X73Y1015D01*
X0Y1014D02*
X73Y1014D01*
X0Y1013D02*
X73Y1013D01*
X0Y1012D02*
X73Y1012D01*
X0Y1011D02*
X73Y1011D01*
X0Y1010D02*
X73Y1010D01*
X0Y1009D02*
X73Y1009D01*
X0Y1008D02*
X73Y1008D01*
X0Y1007D02*
X73Y1007D01*
X0Y1006D02*
X73Y1006D01*
X0Y1005D02*
X73Y1005D01*
X0Y1004D02*
X73Y1004D01*
X0Y1003D02*
X73Y1003D01*
X0Y1002D02*
X73Y1002D01*
X0Y1001D02*
X73Y1001D01*
X0Y1000D02*
X73Y1000D01*
X0Y999D02*
X73Y999D01*
X0Y998D02*
X73Y998D01*
X0Y997D02*
X73Y997D01*
X0Y996D02*
X73Y996D01*
X0Y995D02*
X73Y995D01*
X0Y994D02*
X73Y994D01*
D02*
G04 End of Copper0*
M02*