M48
INCH
T10C0.034167
T11C0.035000
T12C0.038000
T13C0.040000
T14C0.015748
%
T10
X000940Y002100
X000940Y003100
X000940Y004100
X000940Y005100
X000940Y006100
X000940Y007100
X000940Y009100
X000940Y010100
X000940Y011100
X000940Y012100
X000940Y013100
X000940Y014100
X000940Y015100
X000940Y016100
X019940Y002100
X019940Y003100
X019940Y004100
X019940Y005100
X019940Y006100
X019940Y007100
X019940Y008100
X019940Y009100
X019940Y010800
X019940Y011800
X019940Y012800
X019940Y013800
X019940Y014800
X019940Y015800
X019940Y016800
X019940Y017800
X019940Y018870
X019940Y019870
T11
X016940Y011100
X013940Y011100
X016940Y012100
X013940Y012100
X016940Y013100
X013940Y013100
X016940Y014100
X013940Y014100
X016940Y015100
X013940Y015100
X016940Y016100
X013940Y016100
X016940Y017100
X013940Y017100
X016940Y018100
X013940Y018100
T12
X009940Y011100
X009940Y010100
X009940Y009100
X002940Y011100
X002940Y010100
X002940Y009100
X009940Y018100
X009940Y017100
X009940Y016100
X002940Y018100
X002940Y017100
X002940Y016100
X009940Y025100
X009940Y024100
X009940Y023100
X002940Y025100
X002940Y024100
X002940Y023100
X018940Y025100
X018940Y024100
X018940Y023100
X011940Y025100
X011940Y024100
X011940Y023100
T13
X002971Y004100
X004940Y004100
X006971Y004100
X008940Y004100
X010971Y004100
X012940Y004100
X014971Y004100
X016940Y004100
T14
X010940Y019100
X015940Y021100
X015940Y019100
T00
M30
