<?xml version='1.0' encoding='UTF-8' standalone='no'?>
<!-- Created with Fritzing (http://www.fritzing.org/) -->
<svg xmlns="http://www.w3.org/2000/svg" width="2.1014in" x="0in" version="1.2" y="0in"  height="2.725in" viewBox="0 0 151.301 196.2" baseProfile="tiny" xmlns:svg="http://www.w3.org/2000/svg">
 <g partID="6393830">
  <g transform="translate(151.301,0)">
   <g transform="matrix(0,1,-1,0,0,0)">
    <g id="board">
     <path fill="none" stroke="black" fill-opacity="0.5" id="boardoutline" stroke-width="0.5" d="M186.956,36.4096L186.956,4.3672L183.389,0.8008L0.800042,0.8L0.801642,150.501L186.958,150.501L186.958,144.674L195.4,136.232L195.4,43.5456L186.956,36.4096z"/>
    </g>
   </g>
  </g>
 </g>
 <g partID="12581">
  <g transform="translate(96.0504,61.5536)">
   <g  id="copper1">
    <g  id="copper0">
     <rect width="3.96" x="2.34" y="2.34" fill="black"  height="3.96" stroke="black" id="square" stroke-width="2.16"/>
     <circle fill="black" cx="4.32"  cy="4.32" stroke="black" id="connector0pin" r="1.98" stroke-width="2.16"/>
     <circle fill="black" cx="25.92"  cy="4.32" stroke="black" id="connector15pin" r="1.98" stroke-width="2.16"/>
     <circle fill="black" cx="4.32"  cy="11.52" stroke="black" id="connector1pin" r="1.98" stroke-width="2.16"/>
     <circle fill="black" cx="25.92"  cy="11.52" stroke="black" id="connector14pin" r="1.98" stroke-width="2.16"/>
     <circle fill="black" cx="4.32"  cy="18.72" stroke="black" id="connector2pin" r="1.98" stroke-width="2.16"/>
     <circle fill="black" cx="25.92"  cy="18.72" stroke="black" id="connector13pin" r="1.98" stroke-width="2.16"/>
     <circle fill="black" cx="4.32"  cy="25.92" stroke="black" id="connector3pin" r="1.98" stroke-width="2.16"/>
     <circle fill="black" cx="25.92"  cy="25.92" stroke="black" id="connector12pin" r="1.98" stroke-width="2.16"/>
     <circle fill="black" cx="4.32"  cy="33.12" stroke="black" id="connector4pin" r="1.98" stroke-width="2.16"/>
     <circle fill="black" cx="25.92"  cy="33.12" stroke="black" id="connector11pin" r="1.98" stroke-width="2.16"/>
     <circle fill="black" cx="4.32"  cy="40.32" stroke="black" id="connector5pin" r="1.98" stroke-width="2.16"/>
     <circle fill="black" cx="25.92"  cy="40.32" stroke="black" id="connector10pin" r="1.98" stroke-width="2.16"/>
     <circle fill="black" cx="4.32"  cy="47.52" stroke="black" id="connector6pin" r="1.98" stroke-width="2.16"/>
     <circle fill="black" cx="25.92"  cy="47.52" stroke="black" id="connector9pin" r="1.98" stroke-width="2.16"/>
     <circle fill="black" cx="4.32"  cy="54.72" stroke="black" id="connector7pin" r="1.98" stroke-width="2.16"/>
     <circle fill="black" cx="25.92"  cy="54.72" stroke="black" id="connector8pin" r="1.98" stroke-width="2.16"/>
    </g>
   </g>
  </g>
 </g>
 <g partID="14891">
  <g transform="translate(91.0104,34.9136)">
   <g transform="matrix(-1,0,0,-1,0,0)">
    <g  id="copper1">
     <g  id="copper0">
      <circle fill="black" cx="5.04"  cy="5.04" stroke="black" id="connector0pin" r="2.088" stroke-width="2.16"/>
      <circle fill="black" cx="5.04"  cy="12.24" stroke="black" id="connector1pin" r="2.088" stroke-width="2.16"/>
      <circle fill="black" cx="5.04"  cy="19.44" stroke="black" id="connector2pin" r="2.088" stroke-width="2.16"/>
     </g>
    </g>
   </g>
  </g>
 </g>
 <g partID="14881">
  <g transform="translate(141.41,34.9136)">
   <g transform="matrix(-1,0,0,-1,0,0)">
    <g  id="copper1">
     <g  id="copper0">
      <circle fill="black" cx="5.04"  cy="5.04" stroke="black" id="connector0pin" r="2.088" stroke-width="2.16"/>
      <circle fill="black" cx="5.04"  cy="12.24" stroke="black" id="connector1pin" r="2.088" stroke-width="2.16"/>
      <circle fill="black" cx="5.04"  cy="19.44" stroke="black" id="connector2pin" r="2.088" stroke-width="2.16"/>
     </g>
    </g>
   </g>
  </g>
 </g>
 <g partID="14871">
  <g transform="translate(26.2104,34.9136)">
   <g transform="matrix(-1,0,0,-1,0,0)">
    <g  id="copper1">
     <g  id="copper0">
      <circle fill="black" cx="5.04"  cy="5.04" stroke="black" id="connector0pin" r="2.088" stroke-width="2.16"/>
      <circle fill="black" cx="5.04"  cy="12.24" stroke="black" id="connector1pin" r="2.088" stroke-width="2.16"/>
      <circle fill="black" cx="5.04"  cy="19.44" stroke="black" id="connector2pin" r="2.088" stroke-width="2.16"/>
     </g>
    </g>
   </g>
  </g>
 </g>
 <g partID="14861">
  <g transform="translate(76.6104,34.9136)">
   <g transform="matrix(-1,0,0,-1,0,0)">
    <g  id="copper1">
     <g  id="copper0">
      <circle fill="black" cx="5.04"  cy="5.04" stroke="black" id="connector0pin" r="2.088" stroke-width="2.16"/>
      <circle fill="black" cx="5.04"  cy="12.24" stroke="black" id="connector1pin" r="2.088" stroke-width="2.16"/>
      <circle fill="black" cx="5.04"  cy="19.44" stroke="black" id="connector2pin" r="2.088" stroke-width="2.16"/>
     </g>
    </g>
   </g>
  </g>
 </g>
 <g partID="14831">
  <g transform="translate(26.2104,85.3136)">
   <g transform="matrix(-1,0,0,-1,0,0)">
    <g  id="copper1">
     <g  id="copper0">
      <circle fill="black" cx="5.04"  cy="5.04" stroke="black" id="connector0pin" r="2.088" stroke-width="2.16"/>
      <circle fill="black" cx="5.04"  cy="12.24" stroke="black" id="connector1pin" r="2.088" stroke-width="2.16"/>
      <circle fill="black" cx="5.04"  cy="19.44" stroke="black" id="connector2pin" r="2.088" stroke-width="2.16"/>
     </g>
    </g>
   </g>
  </g>
 </g>
 <g partID="14821">
  <g transform="translate(76.6104,85.3136)">
   <g transform="matrix(-1,0,0,-1,0,0)">
    <g  id="copper1">
     <g  id="copper0">
      <circle fill="black" cx="5.04"  cy="5.04" stroke="black" id="connector0pin" r="2.088" stroke-width="2.16"/>
      <circle fill="black" cx="5.04"  cy="12.24" stroke="black" id="connector1pin" r="2.088" stroke-width="2.16"/>
      <circle fill="black" cx="5.04"  cy="19.44" stroke="black" id="connector2pin" r="2.088" stroke-width="2.16"/>
     </g>
    </g>
   </g>
  </g>
 </g>
 <g partID="14801">
  <g transform="translate(26.2104,135.714)">
   <g transform="matrix(-1,0,0,-1,0,0)">
    <g  id="copper1">
     <g  id="copper0">
      <circle fill="black" cx="5.04"  cy="5.04" stroke="black" id="connector0pin" r="2.088" stroke-width="2.16"/>
      <circle fill="black" cx="5.04"  cy="12.24" stroke="black" id="connector1pin" r="2.088" stroke-width="2.16"/>
      <circle fill="black" cx="5.04"  cy="19.44" stroke="black" id="connector2pin" r="2.088" stroke-width="2.16"/>
     </g>
    </g>
   </g>
  </g>
 </g>
 <g partID="14451">
  <g transform="translate(76.6104,135.714)">
   <g transform="matrix(-1,0,0,-1,0,0)">
    <g  id="copper1">
     <g  id="copper0">
      <circle fill="black" cx="5.04"  cy="5.04" stroke="black" id="connector0pin" r="2.088" stroke-width="2.16"/>
      <circle fill="black" cx="5.04"  cy="12.24" stroke="black" id="connector1pin" r="2.088" stroke-width="2.16"/>
      <circle fill="black" cx="5.04"  cy="19.44" stroke="black" id="connector2pin" r="2.088" stroke-width="2.16"/>
     </g>
    </g>
   </g>
  </g>
 </g>
 <g partID="6454501">
  <g transform="translate(130.857,152.273)">
   <g transform="matrix(0,1,-1,0,0,0)">
    <g id="copper1">
     <g id="copper0">
      <rect width="4.32" x="12.24" y="6.72661" fill="black" height="4.32" stroke="black" id="square" stroke-width="2.16"/>
      <circle fill="black" cx="14.4" cy="8.8866" stroke="black" id="connector0pin" r="2.16" stroke-width="2.16"/>
      <circle fill="black" cx="14.4" cy="23.0599" stroke="black" id="connector1pin" r="2.16" stroke-width="2.16"/>
     </g>
    </g>
   </g>
  </g>
 </g>
 <g partID="6454401">
  <g transform="translate(102.057,152.273)">
   <g transform="matrix(0,1,-1,0,0,0)">
    <g id="copper1">
     <g id="copper0">
      <rect width="4.32" x="12.24" y="6.72661" fill="black" height="4.32" stroke="black" id="square" stroke-width="2.16"/>
      <circle fill="black" cx="14.4" cy="8.8866" stroke="black" id="connector0pin" r="2.16" stroke-width="2.16"/>
      <circle fill="black" cx="14.4" cy="23.0599" stroke="black" id="connector1pin" r="2.16" stroke-width="2.16"/>
     </g>
    </g>
   </g>
  </g>
 </g>
 <g partID="6454381">
  <g transform="translate(73.257,152.273)">
   <g transform="matrix(0,1,-1,0,0,0)">
    <g id="copper1">
     <g id="copper0">
      <rect width="4.32" x="12.24" y="6.72661" fill="black" height="4.32" stroke="black" id="square" stroke-width="2.16"/>
      <circle fill="black" cx="14.4" cy="8.8866" stroke="black" id="connector0pin" r="2.16" stroke-width="2.16"/>
      <circle fill="black" cx="14.4" cy="23.0599" stroke="black" id="connector1pin" r="2.16" stroke-width="2.16"/>
     </g>
    </g>
   </g>
  </g>
 </g>
 <g partID="6454521">
  <g transform="translate(44.4572,152.273)">
   <g transform="matrix(0,1,-1,0,0,0)">
    <g id="copper1">
     <g id="copper0">
      <rect width="4.32" x="12.24" y="6.72661" fill="black" height="4.32" stroke="black" id="square" stroke-width="2.16"/>
      <circle fill="black" cx="14.4" cy="8.8866" stroke="black" id="connector0pin" r="2.16" stroke-width="2.16"/>
      <circle fill="black" cx="14.4" cy="23.0599" stroke="black" id="connector1pin" r="2.16" stroke-width="2.16"/>
     </g>
    </g>
   </g>
  </g>
 </g>
 <g partID="6460841">
  <g transform="translate(111.753,55.656)">
   <g  id="copper1">
    <circle fill="black" cx="3.01733"  cy="3.01733" stroke="black" r="0.992124" id="connector0pin" stroke-width="1.57039"/>
   </g>
  </g>
 </g>
 <g partID="6461051">
  <g transform="translate(111.753,41.256)">
   <g  id="copper1">
    <circle fill="black" cx="3.01733"  cy="3.01733" stroke="black" r="0.992124" id="connector0pin" stroke-width="1.57039"/>
   </g>
  </g>
 </g>
 <g partID="6461391">
  <g transform="translate(75.753,55.656)">
   <g  id="copper1">
    <circle fill="black" cx="3.01733"  cy="3.01733" stroke="black" r="0.992124" id="connector0pin" stroke-width="1.57039"/>
   </g>
  </g>
 </g>
 <g partID="12131">
  <g transform="translate(146.054,51.1494)">
   <g transform="matrix(0,1,-1,0,0,0)">
    <g  id="copper1">
     <g  id="copper0">
      <circle fill="black" cx="1.98"  cy="2.484" stroke="black" id="connector30pin" r="1.98" stroke-width="2.22"/>
      <circle fill="black" cx="9.18"  cy="2.484" stroke="black" id="connector31pin" r="1.98" stroke-width="2.22"/>
      <circle fill="black" cx="16.884"  cy="2.484" stroke="black" id="connector0pin" r="1.98" stroke-width="2.22"/>
      <circle fill="black" cx="24.084"  cy="2.484" stroke="black" id="connector1pin" r="1.98" stroke-width="2.22"/>
      <circle fill="black" cx="31.284"  cy="2.484" stroke="black" id="connector2pin" r="1.98" stroke-width="2.22"/>
      <circle fill="black" cx="38.485"  cy="2.484" stroke="black" id="connector3pin" r="1.98" stroke-width="2.22"/>
      <circle fill="black" cx="45.685"  cy="2.484" stroke="black" id="connector4pin" r="1.98" stroke-width="2.22"/>
      <circle fill="black" cx="52.884"  cy="2.484" stroke="black" id="connector5pin" r="1.98" stroke-width="2.22"/>
      <circle fill="black" cx="60.084"  cy="2.484" stroke="black" id="connector6pin" r="1.98" stroke-width="2.22"/>
      <circle fill="black" cx="67.284"  cy="2.484" stroke="black" id="connector7pin" r="1.98" stroke-width="2.22"/>
      <circle fill="black" cx="79.525"  cy="2.484" stroke="black" id="connector8pin" r="1.98" stroke-width="2.22"/>
      <circle fill="black" cx="86.725"  cy="2.484" stroke="black" id="connector9pin" r="1.98" stroke-width="2.22"/>
      <circle fill="black" cx="93.924"  cy="2.484" stroke="black" id="connector10pin" r="1.98" stroke-width="2.22"/>
      <circle fill="black" cx="101.124"  cy="2.484" stroke="black" id="connector11pin" r="1.98" stroke-width="2.22"/>
      <circle fill="black" cx="108.324"  cy="2.484" stroke="black" id="connector12pin" r="1.98" stroke-width="2.22"/>
      <circle fill="black" cx="115.525"  cy="2.484" stroke="black" id="connector13pin" r="1.98" stroke-width="2.22"/>
      <circle fill="black" cx="122.725"  cy="2.484" stroke="black" id="connector14pin" r="1.98" stroke-width="2.22"/>
      <circle fill="black" cx="129.924"  cy="2.484" stroke="black" id="connector15pin" r="1.98" stroke-width="2.22"/>
      <circle fill="black" cx="29.124"  cy="139.284" stroke="black" id="connector28pin" r="1.98" stroke-width="2.22"/>
      <circle fill="black" cx="36.324"  cy="139.284" stroke="black" id="connector29pin" r="1.98" stroke-width="2.22"/>
      <circle fill="black" cx="43.525"  cy="139.284" stroke="black" id="connector16pin" r="1.98" stroke-width="2.22"/>
      <circle fill="black" cx="50.725"  cy="139.284" stroke="black" id="connector17pin" r="1.98" stroke-width="2.22"/>
      <circle fill="black" cx="57.924"  cy="139.284" stroke="black" id="connector18pin" r="1.98" stroke-width="2.22"/>
      <circle fill="black" cx="65.124"  cy="139.284" stroke="black" id="connector19pin" r="1.98" stroke-width="2.22"/>
      <circle fill="black" cx="72.324"  cy="139.284" stroke="black" id="connector20pin" r="1.98" stroke-width="2.22"/>
      <circle fill="black" cx="79.525"  cy="139.284" stroke="black" id="connector21pin" r="1.98" stroke-width="2.22"/>
      <circle fill="black" cx="93.924"  cy="139.284" stroke="black" id="connector22pin" r="1.98" stroke-width="2.22"/>
      <circle fill="black" cx="101.124"  cy="139.284" stroke="black" id="connector23pin" r="1.98" stroke-width="2.22"/>
      <circle fill="black" cx="108.324"  cy="139.284" stroke="black" id="connector24pin" r="1.98" stroke-width="2.22"/>
      <circle fill="black" cx="115.525"  cy="139.284" stroke="black" id="connector25pin" r="1.98" stroke-width="2.22"/>
      <circle fill="black" cx="122.725"  cy="139.284" stroke="black" id="connector26pin" r="1.98" stroke-width="2.22"/>
      <circle fill="black" cx="129.924"  cy="139.284" stroke="black" id="connector27pin" r="1.98" stroke-width="2.22"/>
     </g>
    </g>
   </g>
  </g>
 </g>
</svg>
