G04 MADE WITH FRITZING*
G04 WWW.FRITZING.ORG*
G04 DOUBLE SIDED*
G04 HOLES PLATED*
G04 CONTOUR ON CENTER OF CONTOUR VECTOR*
%ASAXBY*%
%FSLAX23Y23*%
%MOIN*%
%OFA0B0*%
%SFA1.0B1.0*%
%ADD10C,0.075833*%
%ADD11C,0.075000*%
%ADD12C,0.078000*%
%ADD13C,0.080000*%
%ADD14C,0.039370*%
%ADD15R,0.075000X0.075000*%
%ADD16R,0.080000X0.080000*%
%ADD17C,0.024000*%
%LNCOPPER0*%
G90*
G70*
G54D10*
X1994Y1987D03*
X1994Y1887D03*
X1994Y1780D03*
X1994Y1680D03*
X1994Y1580D03*
X1994Y1480D03*
X1994Y1380D03*
X1994Y1280D03*
X1994Y1180D03*
X1994Y1080D03*
X1994Y910D03*
X1994Y810D03*
X1994Y710D03*
X1994Y610D03*
X1994Y510D03*
X1994Y410D03*
X1994Y310D03*
X1994Y210D03*
X94Y1610D03*
X94Y1510D03*
X94Y1410D03*
X94Y1310D03*
X94Y1210D03*
X94Y1110D03*
X94Y1010D03*
X94Y910D03*
X94Y710D03*
X94Y610D03*
X94Y510D03*
X94Y410D03*
X94Y310D03*
X94Y210D03*
G54D11*
X1394Y1810D03*
X1694Y1810D03*
X1394Y1710D03*
X1694Y1710D03*
X1394Y1610D03*
X1694Y1610D03*
X1394Y1510D03*
X1694Y1510D03*
X1394Y1410D03*
X1694Y1410D03*
X1394Y1310D03*
X1694Y1310D03*
X1394Y1210D03*
X1694Y1210D03*
X1394Y1110D03*
X1694Y1110D03*
G54D12*
X1194Y2310D03*
X1194Y2410D03*
X1194Y2510D03*
X1894Y2310D03*
X1894Y2410D03*
X1894Y2510D03*
X294Y2310D03*
X294Y2410D03*
X294Y2510D03*
X994Y2310D03*
X994Y2410D03*
X994Y2510D03*
X294Y1610D03*
X294Y1710D03*
X294Y1810D03*
X994Y1610D03*
X994Y1710D03*
X994Y1810D03*
X294Y910D03*
X294Y1010D03*
X294Y1110D03*
X994Y910D03*
X994Y1010D03*
X994Y1110D03*
G54D13*
X1694Y410D03*
X1497Y410D03*
X1294Y410D03*
X1097Y410D03*
X894Y410D03*
X697Y410D03*
X494Y410D03*
X297Y410D03*
G54D14*
X1594Y1910D03*
X1594Y2110D03*
X1094Y1910D03*
G54D15*
X1394Y1810D03*
G54D16*
X1694Y410D03*
X1294Y410D03*
X894Y410D03*
X494Y410D03*
G54D17*
X1394Y1139D02*
X1394Y1181D01*
D02*
X1394Y1239D02*
X1394Y1281D01*
D02*
X1094Y1310D02*
X994Y1210D01*
D02*
X994Y1210D02*
X994Y1140D01*
D02*
X1365Y1310D02*
X1094Y1310D01*
D02*
X294Y710D02*
X297Y441D01*
D02*
X194Y810D02*
X294Y710D01*
D02*
X194Y910D02*
X194Y810D01*
D02*
X273Y989D02*
X194Y910D01*
D02*
X494Y610D02*
X494Y410D01*
D02*
X294Y810D02*
X494Y610D01*
D02*
X294Y880D02*
X294Y810D01*
D02*
X694Y510D02*
X696Y441D01*
D02*
X194Y1510D02*
X294Y1410D01*
D02*
X394Y810D02*
X694Y510D01*
D02*
X394Y1310D02*
X394Y810D01*
D02*
X294Y1410D02*
X394Y1310D01*
D02*
X194Y1610D02*
X194Y1510D01*
D02*
X273Y1689D02*
X194Y1610D01*
D02*
X794Y510D02*
X872Y432D01*
D02*
X494Y810D02*
X794Y510D01*
D02*
X494Y1310D02*
X494Y810D01*
D02*
X294Y1510D02*
X494Y1310D01*
D02*
X294Y1580D02*
X294Y1510D01*
D02*
X394Y1510D02*
X594Y1310D01*
D02*
X394Y1910D02*
X394Y1510D01*
D02*
X894Y510D02*
X1069Y424D01*
D02*
X594Y810D02*
X894Y510D01*
D02*
X594Y1310D02*
X594Y810D01*
D02*
X194Y2110D02*
X394Y1910D01*
D02*
X194Y2310D02*
X194Y2110D01*
D02*
X273Y2389D02*
X194Y2310D01*
D02*
X994Y510D02*
X1094Y510D01*
D02*
X1094Y510D02*
X1266Y424D01*
D02*
X694Y810D02*
X994Y510D01*
D02*
X694Y1310D02*
X694Y810D01*
D02*
X494Y1510D02*
X694Y1310D01*
D02*
X494Y1910D02*
X494Y1510D01*
D02*
X294Y2110D02*
X494Y1910D01*
D02*
X294Y2280D02*
X294Y2110D01*
D02*
X1394Y510D02*
X1475Y432D01*
D02*
X994Y610D02*
X1094Y610D01*
D02*
X1094Y610D02*
X1294Y510D01*
D02*
X1294Y510D02*
X1394Y510D01*
D02*
X1094Y2210D02*
X794Y2010D01*
D02*
X1094Y2310D02*
X1094Y2210D01*
D02*
X794Y810D02*
X994Y610D01*
D02*
X794Y2010D02*
X794Y810D01*
D02*
X1173Y2389D02*
X1094Y2310D01*
D02*
X1294Y610D02*
X1494Y610D01*
D02*
X1494Y610D02*
X1672Y432D01*
D02*
X994Y710D02*
X1094Y710D01*
D02*
X1094Y710D02*
X1294Y610D01*
D02*
X894Y810D02*
X994Y710D01*
D02*
X1194Y2110D02*
X894Y1910D01*
D02*
X894Y1910D02*
X894Y810D01*
D02*
X1194Y2280D02*
X1194Y2110D01*
D02*
X294Y1210D02*
X294Y1140D01*
D02*
X194Y1310D02*
X294Y1210D01*
D02*
X122Y1310D02*
X194Y1310D01*
D02*
X294Y1910D02*
X294Y1840D01*
D02*
X94Y2310D02*
X94Y2110D01*
D02*
X94Y2110D02*
X294Y1910D01*
D02*
X273Y2489D02*
X94Y2310D01*
D02*
X394Y2610D02*
X315Y2531D01*
D02*
X494Y2610D02*
X394Y2610D01*
D02*
X1194Y2610D02*
X494Y2610D01*
D02*
X1194Y2540D02*
X1194Y2610D01*
D02*
X1194Y2610D02*
X1194Y2540D01*
D02*
X1694Y2310D02*
X1394Y2610D01*
D02*
X1394Y2610D02*
X1194Y2610D01*
D02*
X1694Y1839D02*
X1694Y2310D01*
D02*
X1094Y1610D02*
X1015Y1689D01*
D02*
X1094Y1510D02*
X1094Y1610D01*
D02*
X1194Y1410D02*
X1094Y1510D01*
D02*
X1365Y1410D02*
X1194Y1410D01*
D02*
X1894Y2010D02*
X1894Y1710D01*
D02*
X1994Y2110D02*
X1894Y2010D01*
D02*
X1894Y1710D02*
X1967Y1688D01*
D02*
X1994Y2410D02*
X1994Y2110D01*
D02*
X1915Y2489D02*
X1994Y2410D01*
D02*
X1894Y2110D02*
X1894Y2280D01*
D02*
X1794Y1410D02*
X1794Y2010D01*
D02*
X1794Y2010D02*
X1894Y2110D01*
D02*
X1714Y1330D02*
X1794Y1410D01*
D02*
X1694Y710D02*
X1694Y1081D01*
D02*
X1894Y510D02*
X1694Y710D01*
D02*
X1966Y510D02*
X1894Y510D01*
D02*
X1494Y1010D02*
X1394Y910D01*
D02*
X1494Y1210D02*
X1494Y1010D01*
D02*
X1394Y910D02*
X994Y910D01*
D02*
X1674Y1390D02*
X1494Y1210D01*
D02*
X1594Y1110D02*
X1674Y1190D01*
D02*
X1894Y410D02*
X1594Y710D01*
D02*
X1594Y710D02*
X1594Y1110D01*
D02*
X1966Y410D02*
X1894Y410D01*
D02*
X1594Y1810D02*
X1594Y1891D01*
D02*
X1674Y1730D02*
X1594Y1810D01*
D02*
X1494Y2010D02*
X1581Y2097D01*
D02*
X1494Y1610D02*
X1494Y2010D01*
D02*
X1414Y1530D02*
X1494Y1610D01*
D02*
X1194Y1810D02*
X1107Y1897D01*
D02*
X1294Y1710D02*
X1194Y1810D01*
D02*
X1365Y1710D02*
X1294Y1710D01*
G04 End of Copper0*
M02*