<?xml version='1.0' encoding='UTF-8' standalone='no'?>
<!-- Created with Fritzing (http://www.fritzing.org/) -->
<svg xmlns="http://www.w3.org/2000/svg" width="2.1014in" x="0in" version="1.2" y="0in"  height="2.725in" viewBox="0 0 151.301 196.2" baseProfile="tiny" xmlns:svg="http://www.w3.org/2000/svg">
 <g transform="matrix(-1, 0, 0, 1, 151.301, 0)">
  <g partID="6393830">
   <g transform="translate(151.301,0)">
    <g transform="matrix(0,1,-1,0,0,0)">
     <g id="board">
      <path fill="none" stroke="black" fill-opacity="0.5" id="boardoutline" stroke-width="0.5" d="M186.956,36.4096L186.956,4.3672L183.389,0.8008L0.800042,0.8L0.801642,150.501L186.958,150.501L186.958,144.674L195.4,136.232L195.4,43.5456L186.956,36.4096z"/>
     </g>
    </g>
   </g>
  </g>
  <g partID="12581">
   <g transform="translate(96.0504,61.5536)">
    <g  id="copper1">
     <g  id="copper0">
      <rect width="3.96" x="2.34" y="2.34" fill="none"  height="3.96" stroke="black" id="square" stroke-width="1.44"/>
      <circle fill="none" cx="4.32"  cy="4.32" stroke="black" id="connector0pin" r="1.98" stroke-width="1.44"/>
      <circle fill="none" cx="25.92"  cy="4.32" stroke="black" id="connector15pin" r="1.98" stroke-width="1.44"/>
      <circle fill="none" cx="4.32"  cy="11.52" stroke="black" id="connector1pin" r="1.98" stroke-width="1.44"/>
      <circle fill="none" cx="25.92"  cy="11.52" stroke="black" id="connector14pin" r="1.98" stroke-width="1.44"/>
      <circle fill="none" cx="4.32"  cy="18.72" stroke="black" id="connector2pin" r="1.98" stroke-width="1.44"/>
      <circle fill="none" cx="25.92"  cy="18.72" stroke="black" id="connector13pin" r="1.98" stroke-width="1.44"/>
      <circle fill="none" cx="4.32"  cy="25.92" stroke="black" id="connector3pin" r="1.98" stroke-width="1.44"/>
      <circle fill="none" cx="25.92"  cy="25.92" stroke="black" id="connector12pin" r="1.98" stroke-width="1.44"/>
      <circle fill="none" cx="4.32"  cy="33.12" stroke="black" id="connector4pin" r="1.98" stroke-width="1.44"/>
      <circle fill="none" cx="25.92"  cy="33.12" stroke="black" id="connector11pin" r="1.98" stroke-width="1.44"/>
      <circle fill="none" cx="4.32"  cy="40.32" stroke="black" id="connector5pin" r="1.98" stroke-width="1.44"/>
      <circle fill="none" cx="25.92"  cy="40.32" stroke="black" id="connector10pin" r="1.98" stroke-width="1.44"/>
      <circle fill="none" cx="4.32"  cy="47.52" stroke="black" id="connector6pin" r="1.98" stroke-width="1.44"/>
      <circle fill="none" cx="25.92"  cy="47.52" stroke="black" id="connector9pin" r="1.98" stroke-width="1.44"/>
      <circle fill="none" cx="4.32"  cy="54.72" stroke="black" id="connector7pin" r="1.98" stroke-width="1.44"/>
      <circle fill="none" cx="25.92"  cy="54.72" stroke="black" id="connector8pin" r="1.98" stroke-width="1.44"/>
     </g>
    </g>
   </g>
  </g>
  <g partID="14891">
   <g transform="translate(91.0104,34.9136)">
    <g transform="matrix(-1,0,0,-1,0,0)">
     <g  id="copper1">
      <g  id="copper0">
       <circle fill="none" cx="5.04"  cy="5.04" stroke="black" id="connector0pin" r="2.088" stroke-width="1.44"/>
       <circle fill="none" cx="5.04"  cy="12.24" stroke="black" id="connector1pin" r="2.088" stroke-width="1.44"/>
       <circle fill="none" cx="5.04"  cy="19.44" stroke="black" id="connector2pin" r="2.088" stroke-width="1.44"/>
      </g>
     </g>
    </g>
   </g>
  </g>
  <g partID="14881">
   <g transform="translate(141.41,34.9136)">
    <g transform="matrix(-1,0,0,-1,0,0)">
     <g  id="copper1">
      <g  id="copper0">
       <circle fill="none" cx="5.04"  cy="5.04" stroke="black" id="connector0pin" r="2.088" stroke-width="1.44"/>
       <circle fill="none" cx="5.04"  cy="12.24" stroke="black" id="connector1pin" r="2.088" stroke-width="1.44"/>
       <circle fill="none" cx="5.04"  cy="19.44" stroke="black" id="connector2pin" r="2.088" stroke-width="1.44"/>
      </g>
     </g>
    </g>
   </g>
  </g>
  <g partID="14871">
   <g transform="translate(26.2104,34.9136)">
    <g transform="matrix(-1,0,0,-1,0,0)">
     <g  id="copper1">
      <g  id="copper0">
       <circle fill="none" cx="5.04"  cy="5.04" stroke="black" id="connector0pin" r="2.088" stroke-width="1.44"/>
       <circle fill="none" cx="5.04"  cy="12.24" stroke="black" id="connector1pin" r="2.088" stroke-width="1.44"/>
       <circle fill="none" cx="5.04"  cy="19.44" stroke="black" id="connector2pin" r="2.088" stroke-width="1.44"/>
      </g>
     </g>
    </g>
   </g>
  </g>
  <g partID="14861">
   <g transform="translate(76.6104,34.9136)">
    <g transform="matrix(-1,0,0,-1,0,0)">
     <g  id="copper1">
      <g  id="copper0">
       <circle fill="none" cx="5.04"  cy="5.04" stroke="black" id="connector0pin" r="2.088" stroke-width="1.44"/>
       <circle fill="none" cx="5.04"  cy="12.24" stroke="black" id="connector1pin" r="2.088" stroke-width="1.44"/>
       <circle fill="none" cx="5.04"  cy="19.44" stroke="black" id="connector2pin" r="2.088" stroke-width="1.44"/>
      </g>
     </g>
    </g>
   </g>
  </g>
  <g partID="14831">
   <g transform="translate(26.2104,85.3136)">
    <g transform="matrix(-1,0,0,-1,0,0)">
     <g  id="copper1">
      <g  id="copper0">
       <circle fill="none" cx="5.04"  cy="5.04" stroke="black" id="connector0pin" r="2.088" stroke-width="1.44"/>
       <circle fill="none" cx="5.04"  cy="12.24" stroke="black" id="connector1pin" r="2.088" stroke-width="1.44"/>
       <circle fill="none" cx="5.04"  cy="19.44" stroke="black" id="connector2pin" r="2.088" stroke-width="1.44"/>
      </g>
     </g>
    </g>
   </g>
  </g>
  <g partID="14821">
   <g transform="translate(76.6104,85.3136)">
    <g transform="matrix(-1,0,0,-1,0,0)">
     <g  id="copper1">
      <g  id="copper0">
       <circle fill="none" cx="5.04"  cy="5.04" stroke="black" id="connector0pin" r="2.088" stroke-width="1.44"/>
       <circle fill="none" cx="5.04"  cy="12.24" stroke="black" id="connector1pin" r="2.088" stroke-width="1.44"/>
       <circle fill="none" cx="5.04"  cy="19.44" stroke="black" id="connector2pin" r="2.088" stroke-width="1.44"/>
      </g>
     </g>
    </g>
   </g>
  </g>
  <g partID="14801">
   <g transform="translate(26.2104,135.714)">
    <g transform="matrix(-1,0,0,-1,0,0)">
     <g  id="copper1">
      <g  id="copper0">
       <circle fill="none" cx="5.04"  cy="5.04" stroke="black" id="connector0pin" r="2.088" stroke-width="1.44"/>
       <circle fill="none" cx="5.04"  cy="12.24" stroke="black" id="connector1pin" r="2.088" stroke-width="1.44"/>
       <circle fill="none" cx="5.04"  cy="19.44" stroke="black" id="connector2pin" r="2.088" stroke-width="1.44"/>
      </g>
     </g>
    </g>
   </g>
  </g>
  <g partID="14451">
   <g transform="translate(76.6104,135.714)">
    <g transform="matrix(-1,0,0,-1,0,0)">
     <g  id="copper1">
      <g  id="copper0">
       <circle fill="none" cx="5.04"  cy="5.04" stroke="black" id="connector0pin" r="2.088" stroke-width="1.44"/>
       <circle fill="none" cx="5.04"  cy="12.24" stroke="black" id="connector1pin" r="2.088" stroke-width="1.44"/>
       <circle fill="none" cx="5.04"  cy="19.44" stroke="black" id="connector2pin" r="2.088" stroke-width="1.44"/>
      </g>
     </g>
    </g>
   </g>
  </g>
  <g partID="6454501">
   <g transform="translate(130.857,152.273)">
    <g transform="matrix(0,1,-1,0,0,0)">
     <g id="copper1">
      <g id="copper0">
       <rect width="4.32" x="12.24" y="6.72661" fill="none" height="4.32" stroke="black" id="square" stroke-width="1.44"/>
       <circle fill="none" cx="14.4" cy="8.8866" stroke="black" id="connector0pin" r="2.16" stroke-width="1.44"/>
       <circle fill="none" cx="14.4" cy="23.0599" stroke="black" id="connector1pin" r="2.16" stroke-width="1.44"/>
      </g>
     </g>
    </g>
   </g>
  </g>
  <g partID="6454401">
   <g transform="translate(102.057,152.273)">
    <g transform="matrix(0,1,-1,0,0,0)">
     <g id="copper1">
      <g id="copper0">
       <rect width="4.32" x="12.24" y="6.72661" fill="none" height="4.32" stroke="black" id="square" stroke-width="1.44"/>
       <circle fill="none" cx="14.4" cy="8.8866" stroke="black" id="connector0pin" r="2.16" stroke-width="1.44"/>
       <circle fill="none" cx="14.4" cy="23.0599" stroke="black" id="connector1pin" r="2.16" stroke-width="1.44"/>
      </g>
     </g>
    </g>
   </g>
  </g>
  <g partID="6454381">
   <g transform="translate(73.257,152.273)">
    <g transform="matrix(0,1,-1,0,0,0)">
     <g id="copper1">
      <g id="copper0">
       <rect width="4.32" x="12.24" y="6.72661" fill="none" height="4.32" stroke="black" id="square" stroke-width="1.44"/>
       <circle fill="none" cx="14.4" cy="8.8866" stroke="black" id="connector0pin" r="2.16" stroke-width="1.44"/>
       <circle fill="none" cx="14.4" cy="23.0599" stroke="black" id="connector1pin" r="2.16" stroke-width="1.44"/>
      </g>
     </g>
    </g>
   </g>
  </g>
  <g partID="6454521">
   <g transform="translate(44.4572,152.273)">
    <g transform="matrix(0,1,-1,0,0,0)">
     <g id="copper1">
      <g id="copper0">
       <rect width="4.32" x="12.24" y="6.72661" fill="none" height="4.32" stroke="black" id="square" stroke-width="1.44"/>
       <circle fill="none" cx="14.4" cy="8.8866" stroke="black" id="connector0pin" r="2.16" stroke-width="1.44"/>
       <circle fill="none" cx="14.4" cy="23.0599" stroke="black" id="connector1pin" r="2.16" stroke-width="1.44"/>
      </g>
     </g>
    </g>
   </g>
  </g>
  <g partID="6460841">
   <g transform="translate(111.753,55.656)">
    <g  id="copper1">
     <circle fill="none" cx="3.01733"  cy="3.01733" stroke="black" r="0.992124" id="connector0pin" stroke-width="0.850392"/>
    </g>
   </g>
  </g>
  <g partID="6461051">
   <g transform="translate(111.753,41.256)">
    <g  id="copper1">
     <circle fill="none" cx="3.01733"  cy="3.01733" stroke="black" r="0.992124" id="connector0pin" stroke-width="0.850392"/>
    </g>
   </g>
  </g>
  <g partID="6461391">
   <g transform="translate(75.753,55.656)">
    <g  id="copper1">
     <circle fill="none" cx="3.01733"  cy="3.01733" stroke="black" r="0.992124" id="connector0pin" stroke-width="0.850392"/>
    </g>
   </g>
  </g>
  <g partID="12131">
   <g transform="translate(146.054,51.1494)">
    <g transform="matrix(0,1,-1,0,0,0)">
     <g  id="copper1">
      <g  id="copper0">
       <circle fill="none" cx="1.98"  cy="2.484" stroke="black" id="connector30pin" r="1.98" stroke-width="1.5"/>
       <circle fill="none" cx="9.18"  cy="2.484" stroke="black" id="connector31pin" r="1.98" stroke-width="1.5"/>
       <circle fill="none" cx="16.884"  cy="2.484" stroke="black" id="connector0pin" r="1.98" stroke-width="1.5"/>
       <circle fill="none" cx="24.084"  cy="2.484" stroke="black" id="connector1pin" r="1.98" stroke-width="1.5"/>
       <circle fill="none" cx="31.284"  cy="2.484" stroke="black" id="connector2pin" r="1.98" stroke-width="1.5"/>
       <circle fill="none" cx="38.485"  cy="2.484" stroke="black" id="connector3pin" r="1.98" stroke-width="1.5"/>
       <circle fill="none" cx="45.685"  cy="2.484" stroke="black" id="connector4pin" r="1.98" stroke-width="1.5"/>
       <circle fill="none" cx="52.884"  cy="2.484" stroke="black" id="connector5pin" r="1.98" stroke-width="1.5"/>
       <circle fill="none" cx="60.084"  cy="2.484" stroke="black" id="connector6pin" r="1.98" stroke-width="1.5"/>
       <circle fill="none" cx="67.284"  cy="2.484" stroke="black" id="connector7pin" r="1.98" stroke-width="1.5"/>
       <circle fill="none" cx="79.525"  cy="2.484" stroke="black" id="connector8pin" r="1.98" stroke-width="1.5"/>
       <circle fill="none" cx="86.725"  cy="2.484" stroke="black" id="connector9pin" r="1.98" stroke-width="1.5"/>
       <circle fill="none" cx="93.924"  cy="2.484" stroke="black" id="connector10pin" r="1.98" stroke-width="1.5"/>
       <circle fill="none" cx="101.124"  cy="2.484" stroke="black" id="connector11pin" r="1.98" stroke-width="1.5"/>
       <circle fill="none" cx="108.324"  cy="2.484" stroke="black" id="connector12pin" r="1.98" stroke-width="1.5"/>
       <circle fill="none" cx="115.525"  cy="2.484" stroke="black" id="connector13pin" r="1.98" stroke-width="1.5"/>
       <circle fill="none" cx="122.725"  cy="2.484" stroke="black" id="connector14pin" r="1.98" stroke-width="1.5"/>
       <circle fill="none" cx="129.924"  cy="2.484" stroke="black" id="connector15pin" r="1.98" stroke-width="1.5"/>
       <circle fill="none" cx="29.124"  cy="139.284" stroke="black" id="connector28pin" r="1.98" stroke-width="1.5"/>
       <circle fill="none" cx="36.324"  cy="139.284" stroke="black" id="connector29pin" r="1.98" stroke-width="1.5"/>
       <circle fill="none" cx="43.525"  cy="139.284" stroke="black" id="connector16pin" r="1.98" stroke-width="1.5"/>
       <circle fill="none" cx="50.725"  cy="139.284" stroke="black" id="connector17pin" r="1.98" stroke-width="1.5"/>
       <circle fill="none" cx="57.924"  cy="139.284" stroke="black" id="connector18pin" r="1.98" stroke-width="1.5"/>
       <circle fill="none" cx="65.124"  cy="139.284" stroke="black" id="connector19pin" r="1.98" stroke-width="1.5"/>
       <circle fill="none" cx="72.324"  cy="139.284" stroke="black" id="connector20pin" r="1.98" stroke-width="1.5"/>
       <circle fill="none" cx="79.525"  cy="139.284" stroke="black" id="connector21pin" r="1.98" stroke-width="1.5"/>
       <circle fill="none" cx="93.924"  cy="139.284" stroke="black" id="connector22pin" r="1.98" stroke-width="1.5"/>
       <circle fill="none" cx="101.124"  cy="139.284" stroke="black" id="connector23pin" r="1.98" stroke-width="1.5"/>
       <circle fill="none" cx="108.324"  cy="139.284" stroke="black" id="connector24pin" r="1.98" stroke-width="1.5"/>
       <circle fill="none" cx="115.525"  cy="139.284" stroke="black" id="connector25pin" r="1.98" stroke-width="1.5"/>
       <circle fill="none" cx="122.725"  cy="139.284" stroke="black" id="connector26pin" r="1.98" stroke-width="1.5"/>
       <circle fill="none" cx="129.924"  cy="139.284" stroke="black" id="connector27pin" r="1.98" stroke-width="1.5"/>
      </g>
     </g>
    </g>
   </g>
  </g>
  <g partID="6419820">
   <line stroke="black" stroke-linecap="round" y1="111.134" x1="100.37" y2="114.214" stroke-width="1.728" x2="100.37"/>
  </g>
  <g partID="6419910">
   <line stroke="black" stroke-linecap="round" y1="103.934" x1="100.37" y2="107.014" stroke-width="1.728" x2="100.37"/>
  </g>
  <g partID="6462980">
   <line stroke="black" stroke-linecap="round" y1="15.4736" x1="64.3704" y2="22.6736" stroke-width="1.728" x2="57.1704"/>
  </g>
  <g partID="6459560">
   <line stroke="black" stroke-linecap="round" y1="15.4736" x1="69.4024" y2="15.4736" stroke-width="1.728" x2="64.3704"/>
  </g>
  <g partID="6459630">
   <line stroke="black" stroke-linecap="round" y1="51.4736" x1="57.1704" y2="64.3406" stroke-width="1.728" x2="70.0374"/>
  </g>
  <g partID="6459550">
   <line stroke="black" stroke-linecap="round" y1="22.6736" x1="57.1704" y2="51.4736" stroke-width="1.728" x2="57.1704"/>
  </g>
  <g partID="6459760">
   <line stroke="black" stroke-linecap="round" y1="73.0736" x1="64.3704" y2="67.4066" stroke-width="1.728" x2="70.0374"/>
  </g>
  <g partID="6459820">
   <line stroke="black" stroke-linecap="round" y1="109.074" x1="64.3704" y2="73.0736" stroke-width="1.728" x2="64.3704"/>
  </g>
  <g partID="6459770">
   <line stroke="black" stroke-linecap="round" y1="114.741" x1="70.0374" y2="109.074" stroke-width="1.728" x2="64.3704"/>
  </g>
  <g partID="6460860">
   <line stroke="black" stroke-linecap="round" y1="80.2736" x1="114.77" y2="73.0736" stroke-width="1.728" x2="107.57"/>
  </g>
  <g partID="6459930">
   <line stroke="black" stroke-linecap="round" y1="73.0736" x1="107.57" y2="58.6736" stroke-width="1.728" x2="107.57"/>
  </g>
  <g partID="6459900">
   <line stroke="black" stroke-linecap="round" y1="80.2736" x1="119.91" y2="80.2736" stroke-width="1.728" x2="114.77"/>
  </g>
  <g partID="6459960">
   <line stroke="black" stroke-linecap="round" y1="58.6736" x1="93.1704" y2="78.7406" stroke-width="1.728" x2="73.1034"/>
  </g>
  <g partID="6459890">
   <line stroke="black" stroke-linecap="round" y1="58.6736" x1="107.57" y2="58.6736" stroke-width="1.728" x2="93.1704"/>
  </g>
  <g partID="6463070">
   <line stroke="black" stroke-linecap="round" y1="116.274" x1="107.57" y2="87.4736" stroke-width="1.728" x2="107.57"/>
  </g>
  <g partID="6460110">
   <line stroke="black" stroke-linecap="round" y1="87.4736" x1="107.57" y2="81.7302" stroke-width="1.728" x2="101.827"/>
  </g>
  <g partID="6460040">
   <line stroke="black" stroke-linecap="round" y1="130.674" x1="121.97" y2="116.274" stroke-width="1.728" x2="107.57"/>
  </g>
  <g partID="6460140">
   <line stroke="black" stroke-linecap="round" y1="130.674" x1="129.17" y2="130.674" stroke-width="1.728" x2="121.97"/>
  </g>
  <g partID="6460050">
   <line stroke="black" stroke-linecap="round" y1="119.748" x1="142.024" y2="130.674" stroke-width="1.728" x2="129.17"/>
  </g>
  <g partID="6463010">
   <line stroke="black" stroke-linecap="round" y1="123.474" x1="121.97" y2="116.274" stroke-width="1.728" x2="114.77"/>
  </g>
  <g partID="6460290">
   <line stroke="black" stroke-linecap="round" y1="94.6736" x1="114.77" y2="88.9302" stroke-width="1.728" x2="120.514"/>
  </g>
  <g partID="6460260">
   <line stroke="black" stroke-linecap="round" y1="116.274" x1="114.77" y2="94.6736" stroke-width="1.728" x2="114.77"/>
  </g>
  <g partID="6460230">
   <line stroke="black" stroke-linecap="round" y1="123.474" x1="129.17" y2="123.474" stroke-width="1.728" x2="121.97"/>
  </g>
  <g partID="6460190">
   <line stroke="black" stroke-linecap="round" y1="112.548" x1="142.024" y2="123.474" stroke-width="1.728" x2="129.17"/>
  </g>
  <g partID="6460780">
   <line stroke="black" stroke-linecap="round" y1="80.2736" x1="78.7704" y2="116.274" stroke-width="1.728" x2="78.7704"/>
  </g>
  <g partID="6460750">
   <line stroke="black" stroke-linecap="round" y1="116.274" x1="78.7704" y2="121.941" stroke-width="1.728" x2="73.1034"/>
  </g>
  <g partID="6460710">
   <line stroke="black" stroke-linecap="round" y1="65.8736" x1="93.1704" y2="80.2736" stroke-width="1.728" x2="78.7704"/>
  </g>
  <g partID="6460720">
   <line stroke="black" stroke-linecap="round" y1="65.8736" x1="98.3104" y2="65.8736" stroke-width="1.728" x2="93.1704"/>
  </g>
  <g partID="6463150">
   <line stroke="black" stroke-linecap="round" y1="44.2736" x1="100.37" y2="44.2736" stroke-width="1.728" x2="78.7704"/>
  </g>
  <g partID="6460540">
   <line stroke="black" stroke-linecap="round" y1="57.707" x1="113.804" y2="44.2736" stroke-width="1.728" x2="100.37"/>
  </g>
  <g partID="6461620">
   <line stroke="black" stroke-linecap="round" y1="37.0736" x1="71.5704" y2="32.0416" stroke-width="1.728" x2="71.5704"/>
  </g>
  <g partID="6460470">
   <line stroke="black" stroke-linecap="round" y1="44.2736" x1="78.7704" y2="37.0736" stroke-width="1.728" x2="71.5704"/>
  </g>
  <g partID="6460590">
   <line stroke="black" stroke-linecap="round" y1="44.2736" x1="114.77" y2="24.2066" stroke-width="1.728" x2="134.837"/>
  </g>
  <g partID="6463100">
   <line stroke="black" stroke-linecap="round" y1="123.474" x1="100.37" y2="137.874" stroke-width="1.728" x2="85.9704"/>
  </g>
  <g partID="6461680">
   <line stroke="black" stroke-linecap="round" y1="137.874" x1="13.9704" y2="130.674" stroke-width="1.728" x2="13.9704"/>
  </g>
  <g partID="6461650">
   <line stroke="black" stroke-linecap="round" y1="130.674" x1="13.9704" y2="124.909" stroke-width="1.728" x2="8.20581"/>
  </g>
  <g partID="6461100">
   <line stroke="black" stroke-linecap="round" y1="137.874" x1="85.9704" y2="137.874" stroke-width="1.728" x2="13.9704"/>
  </g>
  <g partID="6461070">
   <line stroke="black" stroke-linecap="round" y1="118.334" x1="100.37" y2="123.474" stroke-width="1.728" x2="100.37"/>
  </g>
  <g partID="6461360">
   <line stroke="black" stroke-linecap="round" y1="57.707" x1="77.8038" y2="44.2736" stroke-width="1.728" x2="64.3704"/>
  </g>
  <g partID="6461250">
   <line stroke="black" stroke-linecap="round" y1="44.2736" x1="64.3704" y2="29.8736" stroke-width="1.728" x2="64.3704"/>
  </g>
  <g partID="6461210">
   <line stroke="black" stroke-linecap="round" y1="29.8736" x1="64.3704" y2="24.2066" stroke-width="1.728" x2="70.0374"/>
  </g>
  <g partID="6461920">
   <line stroke="black" stroke-linecap="round" y1="94.6736" x1="13.9704" y2="100.439" stroke-width="1.728" x2="8.20575"/>
  </g>
  <g partID="6461960">
   <line stroke="black" stroke-linecap="round" y1="73.0736" x1="13.9704" y2="94.6736" stroke-width="1.728" x2="13.9704"/>
  </g>
  <g partID="6461930">
   <line stroke="black" stroke-linecap="round" y1="67.4066" x1="19.6374" y2="73.0736" stroke-width="1.728" x2="13.9704"/>
  </g>
 </g>
</svg>
