G04 MADE WITH FRITZING*
G04 WWW.FRITZING.ORG*
G04 DOUBLE SIDED*
G04 HOLES PLATED*
G04 CONTOUR ON CENTER OF CONTOUR VECTOR*
%ASAXBY*%
%FSLAX23Y23*%
%MOIN*%
%OFA0B0*%
%SFA1.0B1.0*%
%ADD10C,0.085833*%
%ADD11C,0.085000*%
%ADD12C,0.088000*%
%ADD13C,0.090000*%
%ADD14C,0.049370*%
%ADD15R,0.085000X0.085000*%
%ADD16R,0.090000X0.090000*%
%LNMASK0*%
G90*
G70*
G54D10*
X1994Y1987D03*
X1994Y1887D03*
X1994Y1780D03*
X1994Y1680D03*
X1994Y1580D03*
X1994Y1480D03*
X1994Y1380D03*
X1994Y1280D03*
X1994Y1180D03*
X1994Y1080D03*
X1994Y910D03*
X1994Y810D03*
X1994Y710D03*
X1994Y610D03*
X1994Y510D03*
X1994Y410D03*
X1994Y310D03*
X1994Y210D03*
X94Y1610D03*
X94Y1510D03*
X94Y1410D03*
X94Y1310D03*
X94Y1210D03*
X94Y1110D03*
X94Y1010D03*
X94Y910D03*
X94Y710D03*
X94Y610D03*
X94Y510D03*
X94Y410D03*
X94Y310D03*
X94Y210D03*
G54D11*
X1394Y1210D03*
X1694Y1210D03*
X1394Y1110D03*
X1694Y1110D03*
X1394Y1010D03*
X1694Y1010D03*
X1394Y910D03*
X1694Y910D03*
X1394Y810D03*
X1694Y810D03*
X1394Y710D03*
X1694Y710D03*
X1394Y610D03*
X1694Y610D03*
X1394Y510D03*
X1694Y510D03*
G54D12*
X394Y2310D03*
X394Y2410D03*
X394Y2510D03*
X1094Y2310D03*
X1094Y2410D03*
X1094Y2510D03*
X394Y1710D03*
X394Y1810D03*
X394Y1910D03*
X1094Y1710D03*
X1094Y1810D03*
X1094Y1910D03*
X394Y1110D03*
X394Y1210D03*
X394Y1310D03*
X1094Y1110D03*
X1094Y1210D03*
X1094Y1310D03*
X394Y510D03*
X394Y610D03*
X394Y710D03*
X1094Y510D03*
X1094Y610D03*
X1094Y710D03*
G54D13*
X1411Y169D03*
X1273Y169D03*
X1081Y169D03*
X943Y169D03*
X753Y169D03*
X615Y169D03*
X424Y169D03*
X286Y169D03*
G54D14*
X1494Y1610D03*
X1294Y810D03*
G54D15*
X1394Y1210D03*
G54D16*
X1411Y169D03*
X1081Y169D03*
X753Y169D03*
X424Y169D03*
G04 End of Mask0*
M02*