<?xml version='1.0' encoding='UTF-8' standalone='no'?>
<!-- Created with Fritzing (http://www.fritzing.org/) -->
<svg xmlns="http://www.w3.org/2000/svg" width="2.1014in" x="0in" version="1.2" y="0in"  height="2.725in" viewBox="0 0 151.301 196.2" baseProfile="tiny" xmlns:svg="http://www.w3.org/2000/svg">
 <g partID="6393831">
  <g transform="translate(151.301,0)">
   <g transform="matrix(0,1,-1,0,0,0)">
    <g id="silkscreen">
     <path fill="none" stroke="black" style="stroke-linecap:round;stroke-linejoin:round;stroke-miterlimit:10" id="outline" stroke-width="0.800042" d="M186.956,36.4096L186.956,4.3672L183.389,0.8008L0.800042,0.8L0.801642,150.501L186.958,150.501L186.958,144.674L195.4,136.232L195.4,43.5456L186.956,36.4096z" stroke-miterlimit="10"/>
    </g>
   </g>
  </g>
 </g>
 <g partID="6393830">
  <g transform="translate(151.301,0)">
   <g transform="matrix(0,1,-1,0,0,0)">
    <g id="board">
     <path fill="none" stroke="black" fill-opacity="0.5" id="boardoutline" stroke-width="0.5" d="M186.956,36.4096L186.956,4.3672L183.389,0.8008L0.800042,0.8L0.801642,150.501L186.958,150.501L186.958,144.674L195.4,136.232L195.4,43.5456L186.956,36.4096z"/>
    </g>
   </g>
  </g>
 </g>
 <g partID="6393831">
  <g transform="translate(151.301,0)">
   <g transform="matrix(0,1,-1,0,0,0)">
    <g id="silkscreen">
     <path fill="none" stroke="black" style="stroke-linecap:round;stroke-linejoin:round;stroke-miterlimit:10" id="outline" stroke-width="0.800042" d="M186.956,36.4096L186.956,4.3672L183.389,0.8008L0.800042,0.8L0.801642,150.501L186.958,150.501L186.958,144.674L195.4,136.232L195.4,43.5456L186.956,36.4096z" stroke-miterlimit="10"/>
    </g>
   </g>
  </g>
 </g>
 <g partID="12582">
  <g transform="translate(96.0504,104.754)">
   <g id="silkscreen">
    <line stroke="black" y1="0.72" stroke-width="0.72" x1="0.72" y2="58.32" x2="0.72"/>
    <line stroke="black" y1="58.32" stroke-width="0.72" x1="0.72" y2="58.32" x2="29.52"/>
    <line stroke="black" y1="58.32" stroke-width="0.72" x1="29.52" y2="0.72" x2="29.52"/>
    <line stroke="black" y1="0.72" stroke-width="0.72" x1="0.72" y2="0.72" x2="11.52"/>
    <line stroke="black" y1="0.72" stroke-width="0.72" x1="18.72" y2="0.72" x2="29.52"/>
   </g>
  </g>
 </g>
 <g partID="14892">
  <g transform="translate(33.4104,34.9136)">
   <g transform="matrix(-1,0,0,-1,0,0)">
    <g id="silkscreen">
     <line stroke="black" y1="1.44" stroke-width="0.72" x1="1.44" y2="23.04" x2="1.44"/>
     <line stroke="black" y1="23.04" stroke-width="0.72" x1="1.44" y2="23.04" x2="8.64"/>
     <line stroke="black" y1="23.04" stroke-width="0.72" x1="8.64" y2="1.44" x2="8.64"/>
     <line stroke="black" y1="1.44" stroke-width="0.72" x1="8.64" y2="1.44" x2="1.44"/>
     <line stroke="black" y1="3.96" stroke-width="0.36" x1="1.44" y2="1.44" x2="3.96"/>
     <!-- 120 -->
    </g>
   </g>
  </g>
 </g>
 <g partID="14882">
  <g transform="translate(83.8104,34.9136)">
   <g transform="matrix(-1,0,0,-1,0,0)">
    <g id="silkscreen">
     <line stroke="black" y1="1.44" stroke-width="0.72" x1="1.44" y2="23.04" x2="1.44"/>
     <line stroke="black" y1="23.04" stroke-width="0.72" x1="1.44" y2="23.04" x2="8.64"/>
     <line stroke="black" y1="23.04" stroke-width="0.72" x1="8.64" y2="1.44" x2="8.64"/>
     <line stroke="black" y1="1.44" stroke-width="0.72" x1="8.64" y2="1.44" x2="1.44"/>
     <line stroke="black" y1="3.96" stroke-width="0.36" x1="1.44" y2="1.44" x2="3.96"/>
     <!-- 120 -->
    </g>
   </g>
  </g>
 </g>
 <g partID="14872">
  <g transform="translate(33.4104,78.1136)">
   <g transform="matrix(-1,0,0,-1,0,0)">
    <g id="silkscreen">
     <line stroke="black" y1="1.44" stroke-width="0.72" x1="1.44" y2="23.04" x2="1.44"/>
     <line stroke="black" y1="23.04" stroke-width="0.72" x1="1.44" y2="23.04" x2="8.64"/>
     <line stroke="black" y1="23.04" stroke-width="0.72" x1="8.64" y2="1.44" x2="8.64"/>
     <line stroke="black" y1="1.44" stroke-width="0.72" x1="8.64" y2="1.44" x2="1.44"/>
     <line stroke="black" y1="3.96" stroke-width="0.36" x1="1.44" y2="1.44" x2="3.96"/>
     <!-- 120 -->
    </g>
   </g>
  </g>
 </g>
 <g partID="14862">
  <g transform="translate(83.8104,78.1136)">
   <g transform="matrix(-1,0,0,-1,0,0)">
    <g id="silkscreen">
     <line stroke="black" y1="1.44" stroke-width="0.72" x1="1.44" y2="23.04" x2="1.44"/>
     <line stroke="black" y1="23.04" stroke-width="0.72" x1="1.44" y2="23.04" x2="8.64"/>
     <line stroke="black" y1="23.04" stroke-width="0.72" x1="8.64" y2="1.44" x2="8.64"/>
     <line stroke="black" y1="1.44" stroke-width="0.72" x1="8.64" y2="1.44" x2="1.44"/>
     <line stroke="black" y1="3.96" stroke-width="0.36" x1="1.44" y2="1.44" x2="3.96"/>
     <!-- 120 -->
    </g>
   </g>
  </g>
 </g>
 <g partID="14832">
  <g transform="translate(33.4104,121.314)">
   <g transform="matrix(-1,0,0,-1,0,0)">
    <g id="silkscreen">
     <line stroke="black" y1="1.44" stroke-width="0.72" x1="1.44" y2="23.04" x2="1.44"/>
     <line stroke="black" y1="23.04" stroke-width="0.72" x1="1.44" y2="23.04" x2="8.64"/>
     <line stroke="black" y1="23.04" stroke-width="0.72" x1="8.64" y2="1.44" x2="8.64"/>
     <line stroke="black" y1="1.44" stroke-width="0.72" x1="8.64" y2="1.44" x2="1.44"/>
     <line stroke="black" y1="3.96" stroke-width="0.36" x1="1.44" y2="1.44" x2="3.96"/>
     <!-- 120 -->
    </g>
   </g>
  </g>
 </g>
 <g partID="14822">
  <g transform="translate(83.8104,121.314)">
   <g transform="matrix(-1,0,0,-1,0,0)">
    <g id="silkscreen">
     <line stroke="black" y1="1.44" stroke-width="0.72" x1="1.44" y2="23.04" x2="1.44"/>
     <line stroke="black" y1="23.04" stroke-width="0.72" x1="1.44" y2="23.04" x2="8.64"/>
     <line stroke="black" y1="23.04" stroke-width="0.72" x1="8.64" y2="1.44" x2="8.64"/>
     <line stroke="black" y1="1.44" stroke-width="0.72" x1="8.64" y2="1.44" x2="1.44"/>
     <line stroke="black" y1="3.96" stroke-width="0.36" x1="1.44" y2="1.44" x2="3.96"/>
     <!-- 120 -->
    </g>
   </g>
  </g>
 </g>
 <g partID="14802">
  <g transform="translate(33.4104,164.514)">
   <g transform="matrix(-1,0,0,-1,0,0)">
    <g id="silkscreen">
     <line stroke="black" y1="1.44" stroke-width="0.72" x1="1.44" y2="23.04" x2="1.44"/>
     <line stroke="black" y1="23.04" stroke-width="0.72" x1="1.44" y2="23.04" x2="8.64"/>
     <line stroke="black" y1="23.04" stroke-width="0.72" x1="8.64" y2="1.44" x2="8.64"/>
     <line stroke="black" y1="1.44" stroke-width="0.72" x1="8.64" y2="1.44" x2="1.44"/>
     <line stroke="black" y1="3.96" stroke-width="0.36" x1="1.44" y2="1.44" x2="3.96"/>
     <!-- 120 -->
    </g>
   </g>
  </g>
 </g>
 <g partID="14452">
  <g transform="translate(83.8104,164.514)">
   <g transform="matrix(-1,0,0,-1,0,0)">
    <g id="silkscreen">
     <line stroke="black" y1="1.44" stroke-width="0.72" x1="1.44" y2="23.04" x2="1.44"/>
     <line stroke="black" y1="23.04" stroke-width="0.72" x1="1.44" y2="23.04" x2="8.64"/>
     <line stroke="black" y1="23.04" stroke-width="0.72" x1="8.64" y2="1.44" x2="8.64"/>
     <line stroke="black" y1="1.44" stroke-width="0.72" x1="8.64" y2="1.44" x2="1.44"/>
     <line stroke="black" y1="3.96" stroke-width="0.36" x1="1.44" y2="1.44" x2="3.96"/>
     <!-- 120 -->
    </g>
   </g>
  </g>
 </g>
 <g partID="15342">
  <g transform="translate(108.331,176.231)">
   <g transform="matrix(0,1,-1,0,0,0)">
    <g id="silkscreen">
     <line stroke="black" id="vertical-left" y1="1.44" stroke-width="0.72" x1="1.44" y2="22.0026" x2="1.44"/>
     <line stroke="black" id="bottom" y1="22.0026" stroke-width="0.72" x1="1.44" y2="22.0026" x2="16.992"/>
     <line stroke="black" id="vertical-right" y1="22.0026" stroke-width="0.72" x1="16.992" y2="1.44" x2="16.992"/>
     <line stroke="black" id="top" y1="1.44" stroke-width="0.72" x1="16.992" y2="1.44" x2="1.44"/>
     <line stroke="black" id="mid-vertical" y1="22.0026" stroke-width="0.36" x1="14.112" y2="1.44" x2="14.112"/>
    </g>
   </g>
  </g>
 </g>
 <g partID="15242">
  <g transform="translate(84.5977,176.231)">
   <g transform="matrix(0,1,-1,0,0,0)">
    <g id="silkscreen">
     <line stroke="black" id="vertical-left" y1="1.44" stroke-width="0.72" x1="1.44" y2="22.0026" x2="1.44"/>
     <line stroke="black" id="bottom" y1="22.0026" stroke-width="0.72" x1="1.44" y2="22.0026" x2="16.992"/>
     <line stroke="black" id="vertical-right" y1="22.0026" stroke-width="0.72" x1="16.992" y2="1.44" x2="16.992"/>
     <line stroke="black" id="top" y1="1.44" stroke-width="0.72" x1="16.992" y2="1.44" x2="1.44"/>
     <line stroke="black" id="mid-vertical" y1="22.0026" stroke-width="0.36" x1="14.112" y2="1.44" x2="14.112"/>
    </g>
   </g>
  </g>
 </g>
 <g partID="15142">
  <g transform="translate(60.9533,176.276)">
   <g transform="matrix(0,1,-1,0,0,0)">
    <g id="silkscreen">
     <line stroke="black" id="vertical-left" y1="1.44" stroke-width="0.72" x1="1.44" y2="22.0026" x2="1.44"/>
     <line stroke="black" id="bottom" y1="22.0026" stroke-width="0.72" x1="1.44" y2="22.0026" x2="16.992"/>
     <line stroke="black" id="vertical-right" y1="22.0026" stroke-width="0.72" x1="16.992" y2="1.44" x2="16.992"/>
     <line stroke="black" id="top" y1="1.44" stroke-width="0.72" x1="16.992" y2="1.44" x2="1.44"/>
     <line stroke="black" id="mid-vertical" y1="22.0026" stroke-width="0.36" x1="14.112" y2="1.44" x2="14.112"/>
    </g>
   </g>
  </g>
 </g>
 <g partID="15032">
  <g transform="translate(37.2645,176.231)">
   <g transform="matrix(0,1,-1,0,0,0)">
    <g id="silkscreen">
     <line stroke="black" id="vertical-left" y1="1.44" stroke-width="0.72" x1="1.44" y2="22.0026" x2="1.44"/>
     <line stroke="black" id="bottom" y1="22.0026" stroke-width="0.72" x1="1.44" y2="22.0026" x2="16.992"/>
     <line stroke="black" id="vertical-right" y1="22.0026" stroke-width="0.72" x1="16.992" y2="1.44" x2="16.992"/>
     <line stroke="black" id="top" y1="1.44" stroke-width="0.72" x1="16.992" y2="1.44" x2="1.44"/>
     <line stroke="black" id="mid-vertical" y1="22.0026" stroke-width="0.36" x1="14.112" y2="1.44" x2="14.112"/>
    </g>
   </g>
  </g>
 </g>
 <g partID="6453850">
  <g transform="translate(86.3704,169.194)">
   <g id="silkscreen">
    <text x="3.6" y="6.48" fill="black" font-family="OCRA" text-anchor="middle" xmlns:xml="http://www.w3.org/XML/1998/namespace" id="label" xml:space="preserve" stroke-width="0" font-size="7.2">3</text>
   </g>
  </g>
 </g>
 <g partID="6453830">
  <g transform="translate(63.1704,169.727)">
   <g id="silkscreen">
    <text x="3.6" y="6.48" fill="black" font-family="OCRA" text-anchor="middle" xmlns:xml="http://www.w3.org/XML/1998/namespace" id="label" xml:space="preserve" stroke-width="0" font-size="7.2">2</text>
   </g>
  </g>
 </g>
 <g partID="6453810">
  <g transform="translate(40.5038,169.727)">
   <g id="silkscreen">
    <text x="3.6" y="6.48" fill="black" font-family="OCRA" text-anchor="middle" xmlns:xml="http://www.w3.org/XML/1998/namespace" id="label" xml:space="preserve" stroke-width="0" font-size="7.2">1</text>
   </g>
  </g>
 </g>
 <g partID="6453790">
  <g transform="translate(17.0368,168.927)">
   <g id="silkscreen">
    <text x="3.6" y="6.48" fill="black" font-family="OCRA" text-anchor="middle" xmlns:xml="http://www.w3.org/XML/1998/namespace" id="label" xml:space="preserve" stroke-width="0" font-size="7.2">0</text>
   </g>
  </g>
 </g>
 <g partID="6453770">
  <g transform="translate(16.2368,147.327)">
   <g id="silkscreen">
    <text x="3.6" y="6.48" fill="black" font-family="OCRA" text-anchor="middle" xmlns:xml="http://www.w3.org/XML/1998/namespace" id="label" xml:space="preserve" stroke-width="0" font-size="7.2">0</text>
   </g>
  </g>
 </g>
 <g partID="6453750">
  <g transform="translate(16.504,104.927)">
   <g id="silkscreen">
    <text x="3.6" y="6.48" fill="black" font-family="OCRA" text-anchor="middle" xmlns:xml="http://www.w3.org/XML/1998/namespace" id="label" xml:space="preserve" stroke-width="0" font-size="7.2">1</text>
   </g>
  </g>
 </g>
 <g partID="6453730">
  <g transform="translate(16.2368,62.26)">
   <g id="silkscreen">
    <text x="3.6" y="6.48" fill="black" font-family="OCRA" text-anchor="middle" xmlns:xml="http://www.w3.org/XML/1998/namespace" id="label" xml:space="preserve" stroke-width="0" font-size="7.2">2</text>
   </g>
  </g>
 </g>
 <g partID="6453700">
  <g transform="translate(16.3704,18.5272)">
   <g id="silkscreen">
    <text x="3.6" y="6.48" fill="black" font-family="OCRA" text-anchor="middle" xmlns:xml="http://www.w3.org/XML/1998/namespace" id="label" xml:space="preserve" stroke-width="0" font-size="7.2">3</text>
   </g>
  </g>
 </g>
 <g partID="6453680">
  <g transform="translate(39.3038,152.394)">
   <g id="silkscreen">
    <text x="14.4" y="6.48" fill="black" font-family="OCRA" text-anchor="middle" xmlns:xml="http://www.w3.org/XML/1998/namespace" id="label" xml:space="preserve" stroke-width="0" font-size="7.2">d3=0</text>
   </g>
  </g>
 </g>
 <g partID="6453660">
  <g transform="translate(38.7704,65.9936)">
   <g id="silkscreen">
    <text x="14.4" y="6.48" fill="black" font-family="OCRA" text-anchor="middle" xmlns:xml="http://www.w3.org/XML/1998/namespace" id="label" xml:space="preserve" stroke-width="0" font-size="7.2">d3=1</text>
   </g>
  </g>
 </g>
 <g partID="6453640">
  <g transform="translate(40.637,109.194)">
   <g id="silkscreen">
    <text x="14.4" y="6.48" fill="black" font-family="OCRA" text-anchor="middle" xmlns:xml="http://www.w3.org/XML/1998/namespace" id="label" xml:space="preserve" stroke-width="0" font-size="7.2">d3=0</text>
   </g>
  </g>
 </g>
 <g partID="6453620">
  <g transform="translate(37.9704,22.26)">
   <g id="silkscreen">
    <text x="14.4" y="6.48" fill="black" font-family="OCRA" text-anchor="middle" xmlns:xml="http://www.w3.org/XML/1998/namespace" id="label" xml:space="preserve" stroke-width="0" font-size="7.2">d3=1</text>
   </g>
  </g>
 </g>
 <g partID="6453600">
  <g transform="translate(39.3038,143.327)">
   <g id="silkscreen">
    <text x="14.4" y="6.48" fill="black" font-family="OCRA" text-anchor="middle" xmlns:xml="http://www.w3.org/XML/1998/namespace" id="label" xml:space="preserve" stroke-width="0" font-size="7.2">d2=0</text>
   </g>
  </g>
 </g>
 <g partID="6453580">
  <g transform="translate(38.7704,56.9272)">
   <g id="silkscreen">
    <text x="14.4" y="6.48" fill="black" font-family="OCRA" text-anchor="middle" xmlns:xml="http://www.w3.org/XML/1998/namespace" id="label" xml:space="preserve" stroke-width="0" font-size="7.2">d2=0</text>
   </g>
  </g>
 </g>
 <g partID="6453560">
  <g transform="translate(40.3704,100.394)">
   <g id="silkscreen">
    <text x="14.4" y="6.48" fill="black" font-family="OCRA" text-anchor="middle" xmlns:xml="http://www.w3.org/XML/1998/namespace" id="label" xml:space="preserve" stroke-width="0" font-size="7.2">d2=1</text>
   </g>
  </g>
 </g>
 <g partID="6453530">
  <g transform="translate(37.9704,13.9936)">
   <g id="silkscreen">
    <text x="14.4" y="6.48" fill="black" font-family="OCRA" text-anchor="middle" xmlns:xml="http://www.w3.org/XML/1998/namespace" id="label" xml:space="preserve" stroke-width="0" font-size="7.2">d2=1</text>
   </g>
  </g>
 </g>
 <g partID="6453410">
  <g transform="translate(134.237,3.06)">
   <g id="silkscreen">
    <text x="7.2" y="6.48" fill="black" font-family="OCRA" text-anchor="middle" xmlns:xml="http://www.w3.org/XML/1998/namespace" id="label" xml:space="preserve" stroke-width="0" font-size="7.2">v1</text>
   </g>
  </g>
 </g>
 <g partID="6453380">
  <g transform="translate(3.84224,80.9959)">
   <g transform="matrix(0,-1,1,0,0,0)">
    <g id="silkscreen">
     <text x="43.3703" y="6.50552" fill="black" font-family="OCRA" text-anchor="middle" xmlns:xml="http://www.w3.org/XML/1998/namespace" id="label" xml:space="preserve" stroke-width="0" font-size="7.22838">Atlas Shield</text>
    </g>
   </g>
  </g>
 </g>
 <g partID="6453350">
  <g transform="translate(129.557,195.74)">
   <g transform="matrix(0,-1,1,0,0,0)">
    <g id="silkscreen">
     <text x="72" y="6.48" fill="black" font-family="OCRA" text-anchor="middle" xmlns:xml="http://www.w3.org/XML/1998/namespace" id="label" xml:space="preserve" stroke-width="0" font-size="7.2">CC-BY Russell Neches</text>
    </g>
   </g>
  </g>
 </g>
 <g partID="12131">
  <g transform="translate(146.054,51.1494)">
   <g transform="matrix(0,1,-1,0,0,0)">
    <g id="copper1">
     <g id="copper0">
      <circle fill="white" cx="1.98" cy="2.484" stroke="white" id="connector30pin" r="1.98" stroke-width="2.22"/>
      <circle fill="white" cx="9.18" cy="2.484" stroke="white" id="connector31pin" r="1.98" stroke-width="2.22"/>
      <circle fill="white" cx="16.884" cy="2.484" stroke="white" id="connector0pin" r="1.98" stroke-width="2.22"/>
      <circle fill="white" cx="24.084" cy="2.484" stroke="white" id="connector1pin" r="1.98" stroke-width="2.22"/>
      <circle fill="white" cx="31.284" cy="2.484" stroke="white" id="connector2pin" r="1.98" stroke-width="2.22"/>
      <circle fill="white" cx="38.485" cy="2.484" stroke="white" id="connector3pin" r="1.98" stroke-width="2.22"/>
      <circle fill="white" cx="45.685" cy="2.484" stroke="white" id="connector4pin" r="1.98" stroke-width="2.22"/>
      <circle fill="white" cx="52.884" cy="2.484" stroke="white" id="connector5pin" r="1.98" stroke-width="2.22"/>
      <circle fill="white" cx="60.084" cy="2.484" stroke="white" id="connector6pin" r="1.98" stroke-width="2.22"/>
      <circle fill="white" cx="67.284" cy="2.484" stroke="white" id="connector7pin" r="1.98" stroke-width="2.22"/>
      <circle fill="white" cx="79.525" cy="2.484" stroke="white" id="connector8pin" r="1.98" stroke-width="2.22"/>
      <circle fill="white" cx="86.725" cy="2.484" stroke="white" id="connector9pin" r="1.98" stroke-width="2.22"/>
      <circle fill="white" cx="93.924" cy="2.484" stroke="white" id="connector10pin" r="1.98" stroke-width="2.22"/>
      <circle fill="white" cx="101.124" cy="2.484" stroke="white" id="connector11pin" r="1.98" stroke-width="2.22"/>
      <circle fill="white" cx="108.324" cy="2.484" stroke="white" id="connector12pin" r="1.98" stroke-width="2.22"/>
      <circle fill="white" cx="115.525" cy="2.484" stroke="white" id="connector13pin" r="1.98" stroke-width="2.22"/>
      <circle fill="white" cx="122.725" cy="2.484" stroke="white" id="connector14pin" r="1.98" stroke-width="2.22"/>
      <circle fill="white" cx="129.924" cy="2.484" stroke="white" id="connector15pin" r="1.98" stroke-width="2.22"/>
      <circle fill="white" cx="29.124" cy="139.284" stroke="white" id="connector28pin" r="1.98" stroke-width="2.22"/>
      <circle fill="white" cx="36.324" cy="139.284" stroke="white" id="connector29pin" r="1.98" stroke-width="2.22"/>
      <circle fill="white" cx="43.525" cy="139.284" stroke="white" id="connector16pin" r="1.98" stroke-width="2.22"/>
      <circle fill="white" cx="50.725" cy="139.284" stroke="white" id="connector17pin" r="1.98" stroke-width="2.22"/>
      <circle fill="white" cx="57.924" cy="139.284" stroke="white" id="connector18pin" r="1.98" stroke-width="2.22"/>
      <circle fill="white" cx="65.124" cy="139.284" stroke="white" id="connector19pin" r="1.98" stroke-width="2.22"/>
      <circle fill="white" cx="72.324" cy="139.284" stroke="white" id="connector20pin" r="1.98" stroke-width="2.22"/>
      <circle fill="white" cx="79.525" cy="139.284" stroke="white" id="connector21pin" r="1.98" stroke-width="2.22"/>
      <circle fill="white" cx="93.924" cy="139.284" stroke="white" id="connector22pin" r="1.98" stroke-width="2.22"/>
      <circle fill="white" cx="101.124" cy="139.284" stroke="white" id="connector23pin" r="1.98" stroke-width="2.22"/>
      <circle fill="white" cx="108.324" cy="139.284" stroke="white" id="connector24pin" r="1.98" stroke-width="2.22"/>
      <circle fill="white" cx="115.525" cy="139.284" stroke="white" id="connector25pin" r="1.98" stroke-width="2.22"/>
      <circle fill="white" cx="122.725" cy="139.284" stroke="white" id="connector26pin" r="1.98" stroke-width="2.22"/>
      <circle fill="white" cx="129.924" cy="139.284" stroke="white" id="connector27pin" r="1.98" stroke-width="2.22"/>
     </g>
    </g>
   </g>
  </g>
 </g>
 <g partID="12581">
  <g transform="translate(96.0504,104.754)">
   <g id="copper1">
    <g id="copper0">
     <rect width="3.96" x="2.34" y="2.34" fill="white" height="3.96" stroke="white" id="square" stroke-width="2.16"/>
     <circle fill="white" cx="4.32" cy="4.32" stroke="white" id="connector0pin" r="1.98" stroke-width="2.16"/>
     <circle fill="white" cx="25.92" cy="4.32" stroke="white" id="connector15pin" r="1.98" stroke-width="2.16"/>
     <circle fill="white" cx="4.32" cy="11.52" stroke="white" id="connector1pin" r="1.98" stroke-width="2.16"/>
     <circle fill="white" cx="25.92" cy="11.52" stroke="white" id="connector14pin" r="1.98" stroke-width="2.16"/>
     <circle fill="white" cx="4.32" cy="18.72" stroke="white" id="connector2pin" r="1.98" stroke-width="2.16"/>
     <circle fill="white" cx="25.92" cy="18.72" stroke="white" id="connector13pin" r="1.98" stroke-width="2.16"/>
     <circle fill="white" cx="4.32" cy="25.92" stroke="white" id="connector3pin" r="1.98" stroke-width="2.16"/>
     <circle fill="white" cx="25.92" cy="25.92" stroke="white" id="connector12pin" r="1.98" stroke-width="2.16"/>
     <circle fill="white" cx="4.32" cy="33.12" stroke="white" id="connector4pin" r="1.98" stroke-width="2.16"/>
     <circle fill="white" cx="25.92" cy="33.12" stroke="white" id="connector11pin" r="1.98" stroke-width="2.16"/>
     <circle fill="white" cx="4.32" cy="40.32" stroke="white" id="connector5pin" r="1.98" stroke-width="2.16"/>
     <circle fill="white" cx="25.92" cy="40.32" stroke="white" id="connector10pin" r="1.98" stroke-width="2.16"/>
     <circle fill="white" cx="4.32" cy="47.52" stroke="white" id="connector6pin" r="1.98" stroke-width="2.16"/>
     <circle fill="white" cx="25.92" cy="47.52" stroke="white" id="connector9pin" r="1.98" stroke-width="2.16"/>
     <circle fill="white" cx="4.32" cy="54.72" stroke="white" id="connector7pin" r="1.98" stroke-width="2.16"/>
     <circle fill="white" cx="25.92" cy="54.72" stroke="white" id="connector8pin" r="1.98" stroke-width="2.16"/>
    </g>
   </g>
  </g>
 </g>
 <g partID="14891">
  <g transform="translate(33.4104,34.9136)">
   <g transform="matrix(-1,0,0,-1,0,0)">
    <g id="copper1">
     <g id="copper0">
      <circle fill="white" cx="5.04" cy="5.04" stroke="white" id="connector0pin" r="2.088" stroke-width="2.16"/>
      <circle fill="white" cx="5.04" cy="12.24" stroke="white" id="connector1pin" r="2.088" stroke-width="2.16"/>
      <circle fill="white" cx="5.04" cy="19.44" stroke="white" id="connector2pin" r="2.088" stroke-width="2.16"/>
     </g>
    </g>
   </g>
  </g>
 </g>
 <g partID="14881">
  <g transform="translate(83.8104,34.9136)">
   <g transform="matrix(-1,0,0,-1,0,0)">
    <g id="copper1">
     <g id="copper0">
      <circle fill="white" cx="5.04" cy="5.04" stroke="white" id="connector0pin" r="2.088" stroke-width="2.16"/>
      <circle fill="white" cx="5.04" cy="12.24" stroke="white" id="connector1pin" r="2.088" stroke-width="2.16"/>
      <circle fill="white" cx="5.04" cy="19.44" stroke="white" id="connector2pin" r="2.088" stroke-width="2.16"/>
     </g>
    </g>
   </g>
  </g>
 </g>
 <g partID="14871">
  <g transform="translate(33.4104,78.1136)">
   <g transform="matrix(-1,0,0,-1,0,0)">
    <g id="copper1">
     <g id="copper0">
      <circle fill="white" cx="5.04" cy="5.04" stroke="white" id="connector0pin" r="2.088" stroke-width="2.16"/>
      <circle fill="white" cx="5.04" cy="12.24" stroke="white" id="connector1pin" r="2.088" stroke-width="2.16"/>
      <circle fill="white" cx="5.04" cy="19.44" stroke="white" id="connector2pin" r="2.088" stroke-width="2.16"/>
     </g>
    </g>
   </g>
  </g>
 </g>
 <g partID="14861">
  <g transform="translate(83.8104,78.1136)">
   <g transform="matrix(-1,0,0,-1,0,0)">
    <g id="copper1">
     <g id="copper0">
      <circle fill="white" cx="5.04" cy="5.04" stroke="white" id="connector0pin" r="2.088" stroke-width="2.16"/>
      <circle fill="white" cx="5.04" cy="12.24" stroke="white" id="connector1pin" r="2.088" stroke-width="2.16"/>
      <circle fill="white" cx="5.04" cy="19.44" stroke="white" id="connector2pin" r="2.088" stroke-width="2.16"/>
     </g>
    </g>
   </g>
  </g>
 </g>
 <g partID="14831">
  <g transform="translate(33.4104,121.314)">
   <g transform="matrix(-1,0,0,-1,0,0)">
    <g id="copper1">
     <g id="copper0">
      <circle fill="white" cx="5.04" cy="5.04" stroke="white" id="connector0pin" r="2.088" stroke-width="2.16"/>
      <circle fill="white" cx="5.04" cy="12.24" stroke="white" id="connector1pin" r="2.088" stroke-width="2.16"/>
      <circle fill="white" cx="5.04" cy="19.44" stroke="white" id="connector2pin" r="2.088" stroke-width="2.16"/>
     </g>
    </g>
   </g>
  </g>
 </g>
 <g partID="14821">
  <g transform="translate(83.8104,121.314)">
   <g transform="matrix(-1,0,0,-1,0,0)">
    <g id="copper1">
     <g id="copper0">
      <circle fill="white" cx="5.04" cy="5.04" stroke="white" id="connector0pin" r="2.088" stroke-width="2.16"/>
      <circle fill="white" cx="5.04" cy="12.24" stroke="white" id="connector1pin" r="2.088" stroke-width="2.16"/>
      <circle fill="white" cx="5.04" cy="19.44" stroke="white" id="connector2pin" r="2.088" stroke-width="2.16"/>
     </g>
    </g>
   </g>
  </g>
 </g>
 <g partID="14801">
  <g transform="translate(33.4104,164.514)">
   <g transform="matrix(-1,0,0,-1,0,0)">
    <g id="copper1">
     <g id="copper0">
      <circle fill="white" cx="5.04" cy="5.04" stroke="white" id="connector0pin" r="2.088" stroke-width="2.16"/>
      <circle fill="white" cx="5.04" cy="12.24" stroke="white" id="connector1pin" r="2.088" stroke-width="2.16"/>
      <circle fill="white" cx="5.04" cy="19.44" stroke="white" id="connector2pin" r="2.088" stroke-width="2.16"/>
     </g>
    </g>
   </g>
  </g>
 </g>
 <g partID="14451">
  <g transform="translate(83.8104,164.514)">
   <g transform="matrix(-1,0,0,-1,0,0)">
    <g id="copper1">
     <g id="copper0">
      <circle fill="white" cx="5.04" cy="5.04" stroke="white" id="connector0pin" r="2.088" stroke-width="2.16"/>
      <circle fill="white" cx="5.04" cy="12.24" stroke="white" id="connector1pin" r="2.088" stroke-width="2.16"/>
      <circle fill="white" cx="5.04" cy="19.44" stroke="white" id="connector2pin" r="2.088" stroke-width="2.16"/>
     </g>
    </g>
   </g>
  </g>
 </g>
 <g partID="15341">
  <g transform="translate(108.331,176.231)">
   <g transform="matrix(0,1,-1,0,0,0)">
    <g id="copper1">
     <g id="copper0">
      <rect width="4.32" x="5.616" y="4.60063" fill="white" height="4.32" stroke="white" id="square" stroke-width="2.16"/>
      <circle fill="white" cx="7.776" cy="6.76063" stroke="white" id="connector0pin" r="2.16" stroke-width="2.16"/>
      <circle fill="white" cx="7.776" cy="16.6819" stroke="white" id="connector1pin" r="2.16" stroke-width="2.16"/>
     </g>
    </g>
   </g>
  </g>
 </g>
 <g partID="15241">
  <g transform="translate(84.5977,176.231)">
   <g transform="matrix(0,1,-1,0,0,0)">
    <g id="copper1">
     <g id="copper0">
      <rect width="4.32" x="5.616" y="4.60063" fill="white" height="4.32" stroke="white" id="square" stroke-width="2.16"/>
      <circle fill="white" cx="7.776" cy="6.76063" stroke="white" id="connector0pin" r="2.16" stroke-width="2.16"/>
      <circle fill="white" cx="7.776" cy="16.6819" stroke="white" id="connector1pin" r="2.16" stroke-width="2.16"/>
     </g>
    </g>
   </g>
  </g>
 </g>
 <g partID="15141">
  <g transform="translate(60.9533,176.276)">
   <g transform="matrix(0,1,-1,0,0,0)">
    <g id="copper1">
     <g id="copper0">
      <rect width="4.32" x="5.616" y="4.60063" fill="white" height="4.32" stroke="white" id="square" stroke-width="2.16"/>
      <circle fill="white" cx="7.776" cy="6.76063" stroke="white" id="connector0pin" r="2.16" stroke-width="2.16"/>
      <circle fill="white" cx="7.776" cy="16.6819" stroke="white" id="connector1pin" r="2.16" stroke-width="2.16"/>
     </g>
    </g>
   </g>
  </g>
 </g>
 <g partID="15031">
  <g transform="translate(37.2645,176.231)">
   <g transform="matrix(0,1,-1,0,0,0)">
    <g id="copper1">
     <g id="copper0">
      <rect width="4.32" x="5.616" y="4.60063" fill="white" height="4.32" stroke="white" id="square" stroke-width="2.16"/>
      <circle fill="white" cx="7.776" cy="6.76063" stroke="white" id="connector0pin" r="2.16" stroke-width="2.16"/>
      <circle fill="white" cx="7.776" cy="16.6819" stroke="white" id="connector1pin" r="2.16" stroke-width="2.16"/>
     </g>
    </g>
   </g>
  </g>
 </g>
 <g partID="6449841">
  <g transform="translate(104.553,77.256)">
   <g id="copper1">
    <circle fill="white" cx="3.01733" cy="3.01733" stroke="white" r="0.992124" id="connector0pin" stroke-width="1.57039"/>
   </g>
  </g>
 </g>
 <g partID="6450521">
  <g transform="translate(90.153,134.856)">
   <g id="copper1">
    <circle fill="white" cx="3.01733" cy="3.01733" stroke="white" r="0.992124" id="connector0pin" stroke-width="1.57039"/>
   </g>
  </g>
 </g>
</svg>
