M48
INCH
T10C0.034167
T11C0.035000
T12C0.038000
T13C0.040000
T14C0.015748
%
T10
X000940Y002100
X000940Y003100
X000940Y004100
X000940Y005100
X000940Y006100
X000940Y007100
X000940Y009100
X000940Y010100
X000940Y011100
X000940Y012100
X000940Y013100
X000940Y014100
X000940Y015100
X000940Y016100
X019940Y002100
X019940Y003100
X019940Y004100
X019940Y005100
X019940Y006100
X019940Y007100
X019940Y008100
X019940Y009100
X019940Y010800
X019940Y011800
X019940Y012800
X019940Y013800
X019940Y014800
X019940Y015800
X019940Y016800
X019940Y017800
X019940Y018870
X019940Y019870
T11
X016940Y005100
X013940Y005100
X016940Y006100
X013940Y006100
X016940Y007100
X013940Y007100
X016940Y008100
X013940Y008100
X016940Y009100
X013940Y009100
X016940Y010100
X013940Y010100
X016940Y011100
X013940Y011100
X016940Y012100
X013940Y012100
T12
X010940Y007100
X010940Y006100
X010940Y005100
X003940Y007100
X003940Y006100
X003940Y005100
X010940Y013100
X010940Y012100
X010940Y011100
X003940Y013100
X003940Y012100
X003940Y011100
X010940Y019100
X010940Y018100
X010940Y017100
X003940Y019100
X003940Y018100
X003940Y017100
X010940Y025100
X010940Y024100
X010940Y023100
X003940Y025100
X003940Y024100
X003940Y023100
T13
X002858Y001693
X004236Y001693
X006148Y001687
X007526Y001687
X009432Y001693
X010810Y001693
X012729Y001693
X014107Y001693
T14
X012940Y008100
X014940Y016100
T00
M30
